<?xml version="1.0" encoding="utf-8" standalone="no"?>
<!DOCTYPE svg PUBLIC "-//W3C//DTD SVG 1.1//EN"
  "http://www.w3.org/Graphics/SVG/1.1/DTD/svg11.dtd">
<svg xmlns:xlink="http://www.w3.org/1999/xlink" width="351.057813pt" height="298.242031pt" viewBox="0 0 351.057813 298.242031" xmlns="http://www.w3.org/2000/svg" version="1.1">
 <metadata>
  <rdf:RDF xmlns:dc="http://purl.org/dc/elements/1.1/" xmlns:cc="http://creativecommons.org/ns#" xmlns:rdf="http://www.w3.org/1999/02/22-rdf-syntax-ns#">
   <cc:Work>
    <dc:type rdf:resource="http://purl.org/dc/dcmitype/StillImage"/>
    <dc:date>2026-06-21T20:43:02.358572</dc:date>
    <dc:format>image/svg+xml</dc:format>
    <dc:creator>
     <cc:Agent>
      <dc:title>Matplotlib v3.10.8, https://matplotlib.org/</dc:title>
     </cc:Agent>
    </dc:creator>
   </cc:Work>
  </rdf:RDF>
 </metadata>
 <defs>
  <style type="text/css">*{stroke-linejoin: round; stroke-linecap: butt}</style>
 </defs>
 <g id="figure_1">
  <g id="patch_1">
   <path d="M 0 298.242031 
L 351.057813 298.242031 
L 351.057813 0 
L 0 0 
z
" style="fill: #ffffff"/>
  </g>
  <g id="axes_1">
   <g id="patch_2">
    <path d="M 34.932813 266.384687 
L 341.832813 266.384687 
L 341.832813 16.904687 
L 34.932813 16.904687 
z
" style="fill: #ffffff"/>
   </g>
   <g id="matplotlib.axis_1">
    <g id="xtick_1">
     <g id="line2d_1">
      <defs>
       <path id="mbdfd66280a" d="M 0 0 
L 0 3.5 
" style="stroke: #000000; stroke-width: 0.8"/>
      </defs>
      <g>
       <use xlink:href="#mbdfd66280a" x="34.932813" y="266.384687" style="stroke: #000000; stroke-width: 0.8"/>
      </g>
     </g>
     <g id="text_1">
      <!-- 0.0 -->
      <g transform="translate(29.307813 279.634062) scale(0.09 -0.09)">
       <defs>
        <path id="TimesNewRomanPSMT-30" d="M 231 2094 
Q 231 2819 450 3342 
Q 669 3866 1031 4122 
Q 1313 4325 1613 4325 
Q 2100 4325 2488 3828 
Q 2972 3213 2972 2159 
Q 2972 1422 2759 906 
Q 2547 391 2217 158 
Q 1888 -75 1581 -75 
Q 975 -75 572 641 
Q 231 1244 231 2094 
z
M 844 2016 
Q 844 1141 1059 588 
Q 1238 122 1591 122 
Q 1759 122 1940 273 
Q 2122 425 2216 781 
Q 2359 1319 2359 2297 
Q 2359 3022 2209 3506 
Q 2097 3866 1919 4016 
Q 1791 4119 1609 4119 
Q 1397 4119 1231 3928 
Q 1006 3669 925 3112 
Q 844 2556 844 2016 
z
" transform="scale(0.015625)"/>
        <path id="TimesNewRomanPSMT-2e" d="M 800 606 
Q 947 606 1047 504 
Q 1147 403 1147 259 
Q 1147 116 1045 14 
Q 944 -88 800 -88 
Q 656 -88 554 14 
Q 453 116 453 259 
Q 453 406 554 506 
Q 656 606 800 606 
z
" transform="scale(0.015625)"/>
       </defs>
       <use xlink:href="#TimesNewRomanPSMT-30"/>
       <use xlink:href="#TimesNewRomanPSMT-2e" transform="translate(50 0)"/>
       <use xlink:href="#TimesNewRomanPSMT-30" transform="translate(75 0)"/>
      </g>
     </g>
    </g>
    <g id="xtick_2">
     <g id="line2d_2">
      <g>
       <use xlink:href="#mbdfd66280a" x="96.312813" y="266.384687" style="stroke: #000000; stroke-width: 0.8"/>
      </g>
     </g>
     <g id="text_2">
      <!-- 0.2 -->
      <g transform="translate(90.687813 279.634062) scale(0.09 -0.09)">
       <defs>
        <path id="TimesNewRomanPSMT-32" d="M 2934 816 
L 2638 0 
L 138 0 
L 138 116 
Q 1241 1122 1691 1759 
Q 2141 2397 2141 2925 
Q 2141 3328 1894 3587 
Q 1647 3847 1303 3847 
Q 991 3847 742 3664 
Q 494 3481 375 3128 
L 259 3128 
Q 338 3706 661 4015 
Q 984 4325 1469 4325 
Q 1984 4325 2329 3994 
Q 2675 3663 2675 3213 
Q 2675 2891 2525 2569 
Q 2294 2063 1775 1497 
Q 997 647 803 472 
L 1909 472 
Q 2247 472 2383 497 
Q 2519 522 2628 598 
Q 2738 675 2819 816 
L 2934 816 
z
" transform="scale(0.015625)"/>
       </defs>
       <use xlink:href="#TimesNewRomanPSMT-30"/>
       <use xlink:href="#TimesNewRomanPSMT-2e" transform="translate(50 0)"/>
       <use xlink:href="#TimesNewRomanPSMT-32" transform="translate(75 0)"/>
      </g>
     </g>
    </g>
    <g id="xtick_3">
     <g id="line2d_3">
      <g>
       <use xlink:href="#mbdfd66280a" x="157.692813" y="266.384687" style="stroke: #000000; stroke-width: 0.8"/>
      </g>
     </g>
     <g id="text_3">
      <!-- 0.4 -->
      <g transform="translate(152.067813 279.634062) scale(0.09 -0.09)">
       <defs>
        <path id="TimesNewRomanPSMT-34" d="M 2978 1563 
L 2978 1119 
L 2409 1119 
L 2409 0 
L 1894 0 
L 1894 1119 
L 100 1119 
L 100 1519 
L 2066 4325 
L 2409 4325 
L 2409 1563 
L 2978 1563 
z
M 1894 1563 
L 1894 3666 
L 406 1563 
L 1894 1563 
z
" transform="scale(0.015625)"/>
       </defs>
       <use xlink:href="#TimesNewRomanPSMT-30"/>
       <use xlink:href="#TimesNewRomanPSMT-2e" transform="translate(50 0)"/>
       <use xlink:href="#TimesNewRomanPSMT-34" transform="translate(75 0)"/>
      </g>
     </g>
    </g>
    <g id="xtick_4">
     <g id="line2d_4">
      <g>
       <use xlink:href="#mbdfd66280a" x="219.072813" y="266.384687" style="stroke: #000000; stroke-width: 0.8"/>
      </g>
     </g>
     <g id="text_4">
      <!-- 0.6 -->
      <g transform="translate(213.447813 279.634062) scale(0.09 -0.09)">
       <defs>
        <path id="TimesNewRomanPSMT-36" d="M 2869 4325 
L 2869 4209 
Q 2456 4169 2195 4045 
Q 1934 3922 1679 3669 
Q 1425 3416 1258 3105 
Q 1091 2794 978 2366 
Q 1428 2675 1881 2675 
Q 2316 2675 2634 2325 
Q 2953 1975 2953 1425 
Q 2953 894 2631 456 
Q 2244 -75 1606 -75 
Q 1172 -75 869 213 
Q 275 772 275 1663 
Q 275 2231 503 2743 
Q 731 3256 1154 3653 
Q 1578 4050 1965 4187 
Q 2353 4325 2688 4325 
L 2869 4325 
z
M 925 2138 
Q 869 1716 869 1456 
Q 869 1156 980 804 
Q 1091 453 1309 247 
Q 1469 100 1697 100 
Q 1969 100 2183 356 
Q 2397 613 2397 1088 
Q 2397 1622 2184 2012 
Q 1972 2403 1581 2403 
Q 1463 2403 1327 2353 
Q 1191 2303 925 2138 
z
" transform="scale(0.015625)"/>
       </defs>
       <use xlink:href="#TimesNewRomanPSMT-30"/>
       <use xlink:href="#TimesNewRomanPSMT-2e" transform="translate(50 0)"/>
       <use xlink:href="#TimesNewRomanPSMT-36" transform="translate(75 0)"/>
      </g>
     </g>
    </g>
    <g id="xtick_5">
     <g id="line2d_5">
      <g>
       <use xlink:href="#mbdfd66280a" x="280.452813" y="266.384687" style="stroke: #000000; stroke-width: 0.8"/>
      </g>
     </g>
     <g id="text_5">
      <!-- 0.8 -->
      <g transform="translate(274.827813 279.634062) scale(0.09 -0.09)">
       <defs>
        <path id="TimesNewRomanPSMT-38" d="M 1228 2134 
Q 725 2547 579 2797 
Q 434 3047 434 3316 
Q 434 3728 753 4026 
Q 1072 4325 1600 4325 
Q 2113 4325 2425 4047 
Q 2738 3769 2738 3413 
Q 2738 3175 2569 2928 
Q 2400 2681 1866 2347 
Q 2416 1922 2594 1678 
Q 2831 1359 2831 1006 
Q 2831 559 2490 242 
Q 2150 -75 1597 -75 
Q 994 -75 656 303 
Q 388 606 388 966 
Q 388 1247 577 1523 
Q 766 1800 1228 2134 
z
M 1719 2469 
Q 2094 2806 2194 3001 
Q 2294 3197 2294 3444 
Q 2294 3772 2109 3958 
Q 1925 4144 1606 4144 
Q 1288 4144 1088 3959 
Q 888 3775 888 3528 
Q 888 3366 970 3203 
Q 1053 3041 1206 2894 
L 1719 2469 
z
M 1375 2016 
Q 1116 1797 991 1539 
Q 866 1281 866 981 
Q 866 578 1086 336 
Q 1306 94 1647 94 
Q 1984 94 2187 284 
Q 2391 475 2391 747 
Q 2391 972 2272 1150 
Q 2050 1481 1375 2016 
z
" transform="scale(0.015625)"/>
       </defs>
       <use xlink:href="#TimesNewRomanPSMT-30"/>
       <use xlink:href="#TimesNewRomanPSMT-2e" transform="translate(50 0)"/>
       <use xlink:href="#TimesNewRomanPSMT-38" transform="translate(75 0)"/>
      </g>
     </g>
    </g>
    <g id="xtick_6">
     <g id="line2d_6">
      <g>
       <use xlink:href="#mbdfd66280a" x="341.832813" y="266.384687" style="stroke: #000000; stroke-width: 0.8"/>
      </g>
     </g>
     <g id="text_6">
      <!-- 1.0 -->
      <g transform="translate(336.207813 279.634062) scale(0.09 -0.09)">
       <defs>
        <path id="TimesNewRomanPSMT-31" d="M 750 3822 
L 1781 4325 
L 1884 4325 
L 1884 747 
Q 1884 391 1914 303 
Q 1944 216 2037 169 
Q 2131 122 2419 116 
L 2419 0 
L 825 0 
L 825 116 
Q 1125 122 1212 167 
Q 1300 213 1334 289 
Q 1369 366 1369 747 
L 1369 3034 
Q 1369 3497 1338 3628 
Q 1316 3728 1258 3775 
Q 1200 3822 1119 3822 
Q 1003 3822 797 3725 
L 750 3822 
z
" transform="scale(0.015625)"/>
       </defs>
       <use xlink:href="#TimesNewRomanPSMT-31"/>
       <use xlink:href="#TimesNewRomanPSMT-2e" transform="translate(50 0)"/>
       <use xlink:href="#TimesNewRomanPSMT-30" transform="translate(75 0)"/>
      </g>
     </g>
    </g>
    <g id="text_7">
     <!-- Recall -->
     <g transform="translate(175.610938 292.502969) scale(0.1 -0.1)">
      <defs>
       <path id="TimesNewRomanPSMT-52" d="M 4325 0 
L 3194 0 
L 1759 1981 
Q 1600 1975 1500 1975 
Q 1459 1975 1412 1976 
Q 1366 1978 1316 1981 
L 1316 750 
Q 1316 350 1403 253 
Q 1522 116 1759 116 
L 1925 116 
L 1925 0 
L 109 0 
L 109 116 
L 269 116 
Q 538 116 653 291 
Q 719 388 719 750 
L 719 3488 
Q 719 3888 631 3984 
Q 509 4122 269 4122 
L 109 4122 
L 109 4238 
L 1653 4238 
Q 2328 4238 2648 4139 
Q 2969 4041 3192 3777 
Q 3416 3513 3416 3147 
Q 3416 2756 3161 2468 
Q 2906 2181 2372 2063 
L 3247 847 
Q 3547 428 3762 290 
Q 3978 153 4325 116 
L 4325 0 
z
M 1316 2178 
Q 1375 2178 1419 2176 
Q 1463 2175 1491 2175 
Q 2097 2175 2405 2437 
Q 2713 2700 2713 3106 
Q 2713 3503 2464 3751 
Q 2216 4000 1806 4000 
Q 1625 4000 1316 3941 
L 1316 2178 
z
" transform="scale(0.015625)"/>
       <path id="TimesNewRomanPSMT-65" d="M 681 1784 
Q 678 1147 991 784 
Q 1303 422 1725 422 
Q 2006 422 2214 576 
Q 2422 731 2563 1106 
L 2659 1044 
Q 2594 616 2278 264 
Q 1963 -88 1488 -88 
Q 972 -88 605 314 
Q 238 716 238 1394 
Q 238 2128 614 2539 
Q 991 2950 1559 2950 
Q 2041 2950 2350 2633 
Q 2659 2316 2659 1784 
L 681 1784 
z
M 681 1966 
L 2006 1966 
Q 1991 2241 1941 2353 
Q 1863 2528 1708 2628 
Q 1553 2728 1384 2728 
Q 1125 2728 920 2526 
Q 716 2325 681 1966 
z
" transform="scale(0.015625)"/>
       <path id="TimesNewRomanPSMT-63" d="M 2631 1088 
Q 2516 522 2178 217 
Q 1841 -88 1431 -88 
Q 944 -88 581 321 
Q 219 731 219 1428 
Q 219 2103 620 2525 
Q 1022 2947 1584 2947 
Q 2006 2947 2278 2723 
Q 2550 2500 2550 2259 
Q 2550 2141 2473 2067 
Q 2397 1994 2259 1994 
Q 2075 1994 1981 2113 
Q 1928 2178 1911 2362 
Q 1894 2547 1784 2644 
Q 1675 2738 1481 2738 
Q 1169 2738 978 2506 
Q 725 2200 725 1697 
Q 725 1184 976 792 
Q 1228 400 1656 400 
Q 1963 400 2206 609 
Q 2378 753 2541 1131 
L 2631 1088 
z
" transform="scale(0.015625)"/>
       <path id="TimesNewRomanPSMT-61" d="M 1822 413 
Q 1381 72 1269 19 
Q 1100 -59 909 -59 
Q 613 -59 420 144 
Q 228 347 228 678 
Q 228 888 322 1041 
Q 450 1253 767 1440 
Q 1084 1628 1822 1897 
L 1822 2009 
Q 1822 2438 1686 2597 
Q 1550 2756 1291 2756 
Q 1094 2756 978 2650 
Q 859 2544 859 2406 
L 866 2225 
Q 866 2081 792 2003 
Q 719 1925 600 1925 
Q 484 1925 411 2006 
Q 338 2088 338 2228 
Q 338 2497 613 2722 
Q 888 2947 1384 2947 
Q 1766 2947 2009 2819 
Q 2194 2722 2281 2516 
Q 2338 2381 2338 1966 
L 2338 994 
Q 2338 584 2353 492 
Q 2369 400 2405 369 
Q 2441 338 2488 338 
Q 2538 338 2575 359 
Q 2641 400 2828 588 
L 2828 413 
Q 2478 -56 2159 -56 
Q 2006 -56 1915 50 
Q 1825 156 1822 413 
z
M 1822 616 
L 1822 1706 
Q 1350 1519 1213 1441 
Q 966 1303 859 1153 
Q 753 1003 753 825 
Q 753 600 887 451 
Q 1022 303 1197 303 
Q 1434 303 1822 616 
z
" transform="scale(0.015625)"/>
       <path id="TimesNewRomanPSMT-6c" d="M 1184 4444 
L 1184 647 
Q 1184 378 1223 290 
Q 1263 203 1344 158 
Q 1425 113 1647 113 
L 1647 0 
L 244 0 
L 244 113 
Q 441 113 512 153 
Q 584 194 625 287 
Q 666 381 666 647 
L 666 3247 
Q 666 3731 644 3842 
Q 622 3953 573 3993 
Q 525 4034 450 4034 
Q 369 4034 244 3984 
L 191 4094 
L 1044 4444 
L 1184 4444 
z
" transform="scale(0.015625)"/>
      </defs>
      <use xlink:href="#TimesNewRomanPSMT-52"/>
      <use xlink:href="#TimesNewRomanPSMT-65" transform="translate(66.699219 0)"/>
      <use xlink:href="#TimesNewRomanPSMT-63" transform="translate(111.083984 0)"/>
      <use xlink:href="#TimesNewRomanPSMT-61" transform="translate(155.46875 0)"/>
      <use xlink:href="#TimesNewRomanPSMT-6c" transform="translate(199.853516 0)"/>
      <use xlink:href="#TimesNewRomanPSMT-6c" transform="translate(227.636719 0)"/>
     </g>
    </g>
   </g>
   <g id="matplotlib.axis_2">
    <g id="ytick_1">
     <g id="line2d_7">
      <defs>
       <path id="m8cca6aa411" d="M 0 0 
L -3.5 0 
" style="stroke: #000000; stroke-width: 0.8"/>
      </defs>
      <g>
       <use xlink:href="#m8cca6aa411" x="34.932813" y="266.384687" style="stroke: #000000; stroke-width: 0.8"/>
      </g>
     </g>
     <g id="text_8">
      <!-- 0.0 -->
      <g transform="translate(16.682813 269.509375) scale(0.09 -0.09)">
       <use xlink:href="#TimesNewRomanPSMT-30"/>
       <use xlink:href="#TimesNewRomanPSMT-2e" transform="translate(50 0)"/>
       <use xlink:href="#TimesNewRomanPSMT-30" transform="translate(75 0)"/>
      </g>
     </g>
    </g>
    <g id="ytick_2">
     <g id="line2d_8">
      <g>
       <use xlink:href="#m8cca6aa411" x="34.932813" y="217.46704" style="stroke: #000000; stroke-width: 0.8"/>
      </g>
     </g>
     <g id="text_9">
      <!-- 0.2 -->
      <g transform="translate(16.682813 220.591728) scale(0.09 -0.09)">
       <use xlink:href="#TimesNewRomanPSMT-30"/>
       <use xlink:href="#TimesNewRomanPSMT-2e" transform="translate(50 0)"/>
       <use xlink:href="#TimesNewRomanPSMT-32" transform="translate(75 0)"/>
      </g>
     </g>
    </g>
    <g id="ytick_3">
     <g id="line2d_9">
      <g>
       <use xlink:href="#m8cca6aa411" x="34.932813" y="168.549393" style="stroke: #000000; stroke-width: 0.8"/>
      </g>
     </g>
     <g id="text_10">
      <!-- 0.4 -->
      <g transform="translate(16.682813 171.674081) scale(0.09 -0.09)">
       <use xlink:href="#TimesNewRomanPSMT-30"/>
       <use xlink:href="#TimesNewRomanPSMT-2e" transform="translate(50 0)"/>
       <use xlink:href="#TimesNewRomanPSMT-34" transform="translate(75 0)"/>
      </g>
     </g>
    </g>
    <g id="ytick_4">
     <g id="line2d_10">
      <g>
       <use xlink:href="#m8cca6aa411" x="34.932813" y="119.631746" style="stroke: #000000; stroke-width: 0.8"/>
      </g>
     </g>
     <g id="text_11">
      <!-- 0.6 -->
      <g transform="translate(16.682813 122.756434) scale(0.09 -0.09)">
       <use xlink:href="#TimesNewRomanPSMT-30"/>
       <use xlink:href="#TimesNewRomanPSMT-2e" transform="translate(50 0)"/>
       <use xlink:href="#TimesNewRomanPSMT-36" transform="translate(75 0)"/>
      </g>
     </g>
    </g>
    <g id="ytick_5">
     <g id="line2d_11">
      <g>
       <use xlink:href="#m8cca6aa411" x="34.932813" y="70.714099" style="stroke: #000000; stroke-width: 0.8"/>
      </g>
     </g>
     <g id="text_12">
      <!-- 0.8 -->
      <g transform="translate(16.682813 73.838787) scale(0.09 -0.09)">
       <use xlink:href="#TimesNewRomanPSMT-30"/>
       <use xlink:href="#TimesNewRomanPSMT-2e" transform="translate(50 0)"/>
       <use xlink:href="#TimesNewRomanPSMT-38" transform="translate(75 0)"/>
      </g>
     </g>
    </g>
    <g id="ytick_6">
     <g id="line2d_12">
      <g>
       <use xlink:href="#m8cca6aa411" x="34.932813" y="21.796452" style="stroke: #000000; stroke-width: 0.8"/>
      </g>
     </g>
     <g id="text_13">
      <!-- 1.0 -->
      <g transform="translate(16.682813 24.92114) scale(0.09 -0.09)">
       <use xlink:href="#TimesNewRomanPSMT-31"/>
       <use xlink:href="#TimesNewRomanPSMT-2e" transform="translate(50 0)"/>
       <use xlink:href="#TimesNewRomanPSMT-30" transform="translate(75 0)"/>
      </g>
     </g>
    </g>
    <g id="text_14">
     <!-- Precision -->
     <g transform="translate(10.54375 160.253281) rotate(-90) scale(0.1 -0.1)">
      <defs>
       <path id="TimesNewRomanPSMT-50" d="M 1313 1984 
L 1313 750 
Q 1313 350 1400 253 
Q 1519 116 1759 116 
L 1922 116 
L 1922 0 
L 106 0 
L 106 116 
L 266 116 
Q 534 116 650 291 
Q 713 388 713 750 
L 713 3488 
Q 713 3888 628 3984 
Q 506 4122 266 4122 
L 106 4122 
L 106 4238 
L 1659 4238 
Q 2228 4238 2556 4120 
Q 2884 4003 3109 3725 
Q 3334 3447 3334 3066 
Q 3334 2547 2992 2222 
Q 2650 1897 2025 1897 
Q 1872 1897 1694 1919 
Q 1516 1941 1313 1984 
z
M 1313 2163 
Q 1478 2131 1606 2115 
Q 1734 2100 1825 2100 
Q 2150 2100 2386 2351 
Q 2622 2603 2622 3003 
Q 2622 3278 2509 3514 
Q 2397 3750 2190 3867 
Q 1984 3984 1722 3984 
Q 1563 3984 1313 3925 
L 1313 2163 
z
" transform="scale(0.015625)"/>
       <path id="TimesNewRomanPSMT-72" d="M 1038 2947 
L 1038 2303 
Q 1397 2947 1775 2947 
Q 1947 2947 2059 2842 
Q 2172 2738 2172 2600 
Q 2172 2478 2090 2393 
Q 2009 2309 1897 2309 
Q 1788 2309 1652 2417 
Q 1516 2525 1450 2525 
Q 1394 2525 1328 2463 
Q 1188 2334 1038 2041 
L 1038 669 
Q 1038 431 1097 309 
Q 1138 225 1241 169 
Q 1344 113 1538 113 
L 1538 0 
L 72 0 
L 72 113 
Q 291 113 397 181 
Q 475 231 506 341 
Q 522 394 522 644 
L 522 1753 
Q 522 2253 501 2348 
Q 481 2444 426 2487 
Q 372 2531 291 2531 
Q 194 2531 72 2484 
L 41 2597 
L 906 2947 
L 1038 2947 
z
" transform="scale(0.015625)"/>
       <path id="TimesNewRomanPSMT-69" d="M 928 4444 
Q 1059 4444 1151 4351 
Q 1244 4259 1244 4128 
Q 1244 3997 1151 3903 
Q 1059 3809 928 3809 
Q 797 3809 703 3903 
Q 609 3997 609 4128 
Q 609 4259 701 4351 
Q 794 4444 928 4444 
z
M 1188 2947 
L 1188 647 
Q 1188 378 1227 289 
Q 1266 200 1342 156 
Q 1419 113 1622 113 
L 1622 0 
L 231 0 
L 231 113 
Q 441 113 512 153 
Q 584 194 626 287 
Q 669 381 669 647 
L 669 1750 
Q 669 2216 641 2353 
Q 619 2453 572 2492 
Q 525 2531 444 2531 
Q 356 2531 231 2484 
L 188 2597 
L 1050 2947 
L 1188 2947 
z
" transform="scale(0.015625)"/>
       <path id="TimesNewRomanPSMT-73" d="M 2050 2947 
L 2050 1972 
L 1947 1972 
Q 1828 2431 1642 2597 
Q 1456 2763 1169 2763 
Q 950 2763 815 2647 
Q 681 2531 681 2391 
Q 681 2216 781 2091 
Q 878 1963 1175 1819 
L 1631 1597 
Q 2266 1288 2266 781 
Q 2266 391 1970 151 
Q 1675 -88 1309 -88 
Q 1047 -88 709 6 
Q 606 38 541 38 
Q 469 38 428 -44 
L 325 -44 
L 325 978 
L 428 978 
Q 516 541 762 319 
Q 1009 97 1316 97 
Q 1531 97 1667 223 
Q 1803 350 1803 528 
Q 1803 744 1651 891 
Q 1500 1038 1047 1263 
Q 594 1488 453 1669 
Q 313 1847 313 2119 
Q 313 2472 555 2709 
Q 797 2947 1181 2947 
Q 1350 2947 1591 2875 
Q 1750 2828 1803 2828 
Q 1853 2828 1881 2850 
Q 1909 2872 1947 2947 
L 2050 2947 
z
" transform="scale(0.015625)"/>
       <path id="TimesNewRomanPSMT-6f" d="M 1600 2947 
Q 2250 2947 2644 2453 
Q 2978 2031 2978 1484 
Q 2978 1100 2793 706 
Q 2609 313 2286 112 
Q 1963 -88 1566 -88 
Q 919 -88 538 428 
Q 216 863 216 1403 
Q 216 1797 411 2186 
Q 606 2575 925 2761 
Q 1244 2947 1600 2947 
z
M 1503 2744 
Q 1338 2744 1170 2645 
Q 1003 2547 900 2300 
Q 797 2053 797 1666 
Q 797 1041 1045 587 
Q 1294 134 1700 134 
Q 2003 134 2200 384 
Q 2397 634 2397 1244 
Q 2397 2006 2069 2444 
Q 1847 2744 1503 2744 
z
" transform="scale(0.015625)"/>
       <path id="TimesNewRomanPSMT-6e" d="M 1034 2341 
Q 1538 2947 1994 2947 
Q 2228 2947 2397 2830 
Q 2566 2713 2666 2444 
Q 2734 2256 2734 1869 
L 2734 647 
Q 2734 375 2778 278 
Q 2813 200 2889 156 
Q 2966 113 3172 113 
L 3172 0 
L 1756 0 
L 1756 113 
L 1816 113 
Q 2016 113 2095 173 
Q 2175 234 2206 353 
Q 2219 400 2219 647 
L 2219 1819 
Q 2219 2209 2117 2386 
Q 2016 2563 1775 2563 
Q 1403 2563 1034 2156 
L 1034 647 
Q 1034 356 1069 288 
Q 1113 197 1189 155 
Q 1266 113 1500 113 
L 1500 0 
L 84 0 
L 84 113 
L 147 113 
Q 366 113 442 223 
Q 519 334 519 647 
L 519 1709 
Q 519 2225 495 2337 
Q 472 2450 423 2490 
Q 375 2531 294 2531 
Q 206 2531 84 2484 
L 38 2597 
L 900 2947 
L 1034 2947 
L 1034 2341 
z
" transform="scale(0.015625)"/>
      </defs>
      <use xlink:href="#TimesNewRomanPSMT-50"/>
      <use xlink:href="#TimesNewRomanPSMT-72" transform="translate(55.615234 0)"/>
      <use xlink:href="#TimesNewRomanPSMT-65" transform="translate(88.916016 0)"/>
      <use xlink:href="#TimesNewRomanPSMT-63" transform="translate(133.300781 0)"/>
      <use xlink:href="#TimesNewRomanPSMT-69" transform="translate(177.685547 0)"/>
      <use xlink:href="#TimesNewRomanPSMT-73" transform="translate(205.46875 0)"/>
      <use xlink:href="#TimesNewRomanPSMT-69" transform="translate(244.384766 0)"/>
      <use xlink:href="#TimesNewRomanPSMT-6f" transform="translate(272.167969 0)"/>
      <use xlink:href="#TimesNewRomanPSMT-6e" transform="translate(322.167969 0)"/>
     </g>
    </g>
   </g>
   <g id="line2d_13">
    <path d="M 34.932813 243.508228 
L 341.832813 243.508228 
" clip-path="url(#pc82a8c0c55)" style="fill: none; stroke-dasharray: 3.7,1.6; stroke-dashoffset: 0; stroke: #636363"/>
   </g>
   <g id="patch_3">
    <path d="M 34.932813 266.384687 
L 34.932813 16.904687 
" style="fill: none; stroke: #000000; stroke-width: 0.8; stroke-linejoin: miter; stroke-linecap: square"/>
   </g>
   <g id="patch_4">
    <path d="M 34.932813 266.384687 
L 341.832813 266.384687 
" style="fill: none; stroke: #000000; stroke-width: 0.8; stroke-linejoin: miter; stroke-linecap: square"/>
   </g>
   <g id="line2d_14">
    <path d="M 34.932813 21.796452 
L 45.72829 21.796452 
L 47.270501 31.416103 
L 50.354923 29.803074 
L 53.439345 28.653 
L 56.523767 27.791664 
L 61.1504 26.843901 
L 64.234823 26.359716 
L 65.777034 30.54159 
L 70.403667 29.49085 
L 71.945878 36.621128 
L 76.572511 35.085805 
L 79.656933 34.225591 
L 81.199144 36.502112 
L 85.825777 35.264485 
L 87.367988 37.300481 
L 88.910199 36.89323 
L 90.45241 40.470265 
L 91.994622 40.024455 
L 93.536833 43.261183 
L 96.621255 42.340624 
L 98.163466 45.795786 
L 99.705677 47.003487 
L 101.247888 46.500191 
L 102.790099 48.953227 
L 107.416732 47.493441 
L 108.958943 50.80884 
L 110.501154 50.324429 
L 112.043365 53.953602 
L 113.585576 54.89897 
L 115.127787 56.453674 
L 116.669998 58.505053 
L 118.212209 59.474769 
L 119.754421 60.075441 
L 122.838843 59.012771 
L 124.381054 64.28429 
L 125.923265 64.756332 
L 127.465476 69.381507 
L 129.007687 71.557342 
L 130.549898 73.172023 
L 132.092109 72.560091 
L 133.63432 73.579973 
L 135.176531 72.984277 
L 136.718742 74.635607 
L 138.260953 74.919668 
L 139.803164 74.339215 
L 141.345375 79.772875 
L 142.887586 79.175974 
L 144.429797 80.179012 
L 145.972008 79.59406 
L 147.51422 81.015746 
L 149.056431 80.441915 
L 150.598642 83.084121 
L 152.140853 82.505916 
L 153.683064 83.242443 
L 155.225275 82.677825 
L 156.767486 84.523131 
L 158.309697 83.96628 
L 159.851908 84.608428 
L 161.394119 84.064839 
L 162.93633 85.192712 
L 164.478541 84.659891 
L 166.020752 90.392482 
L 169.105174 89.280068 
L 170.647385 90.324804 
L 172.189596 90.311354 
L 173.731807 89.776918 
L 175.274019 91.967371 
L 176.81623 91.925056 
L 178.358441 94.136156 
L 179.900652 94.539132 
L 181.442863 95.233813 
L 182.985074 94.710573 
L 186.069496 95.391964 
L 187.611707 99.375777 
L 189.153918 99.6811 
L 190.696129 101.738698 
L 192.23834 102.373951 
L 193.780551 103.886891 
L 196.864973 104.384675 
L 199.949395 104.091141 
L 201.491606 103.603249 
L 203.033818 107.061024 
L 204.576029 106.573745 
L 206.11824 107.655352 
L 207.660451 110.205825 
L 210.744873 109.253869 
L 212.287084 111.99836 
L 213.829295 112.574969 
L 215.371506 115.586471 
L 216.913717 115.615862 
L 218.455928 118.615373 
L 219.998139 118.618601 
L 221.54035 120.033871 
L 223.082561 119.568853 
L 224.624772 123.822518 
L 226.166983 123.35819 
L 227.709194 123.634751 
L 229.251405 123.176487 
L 230.793617 123.364323 
L 232.335828 122.912501 
L 233.878039 124.534298 
L 235.42025 124.085525 
L 236.962461 128.105378 
L 238.504672 127.657146 
L 240.046883 130.549504 
L 241.589094 132.47044 
L 243.131305 132.215724 
L 244.673516 134.741381 
L 246.215727 134.303554 
L 247.757938 134.977907 
L 249.300149 136.270138 
L 250.84236 137.958522 
L 252.384571 137.532889 
L 253.926782 138.9789 
L 255.468993 139.029895 
L 257.011204 140.335027 
L 258.553416 139.917883 
L 260.095627 143.180466 
L 261.637838 142.766747 
L 263.180049 145.187444 
L 264.72226 144.778421 
L 266.264471 152.0002 
L 267.806682 152.054203 
L 269.348893 154.350824 
L 270.891104 154.537096 
L 272.433315 157.123056 
L 273.975526 156.734828 
L 275.517737 156.49609 
L 277.059948 157.066503 
L 278.602159 159.362218 
L 280.14437 159.497085 
L 281.686581 160.619495 
L 283.228792 160.247749 
L 284.771003 165.55139 
L 286.313215 165.188459 
L 287.855426 167.85896 
L 289.397637 167.502583 
L 290.939848 170.351168 
L 292.482059 170.002191 
L 294.02427 174.647977 
L 295.566481 174.308689 
L 297.108692 177.422949 
L 298.650903 177.091657 
L 300.193114 177.991741 
L 301.735325 177.665339 
L 303.277536 179.728525 
L 304.819747 179.408523 
L 306.361958 181.232521 
L 307.904169 180.918487 
L 309.44638 185.029247 
L 310.988591 184.726644 
L 312.530802 193.182588 
L 314.073014 192.898783 
L 315.615225 195.504584 
L 317.157436 195.230085 
L 318.699647 199.842534 
L 320.241858 199.581204 
L 321.784069 203.199154 
L 323.32628 202.949453 
L 324.868491 207.340555 
L 326.410702 207.104505 
L 327.952913 210.714227 
L 329.495124 210.489497 
L 331.037335 217.539506 
L 332.579546 217.338355 
L 334.121757 220.139177 
L 335.663968 219.948901 
L 337.206179 226.952092 
L 338.74839 226.787201 
L 340.290601 230.376869 
L 341.832813 243.508228 
L 341.832813 243.508228 
" clip-path="url(#pc82a8c0c55)" style="fill: none; stroke: #4393c3; stroke-opacity: 0.85; stroke-width: 1.6; stroke-linecap: square"/>
   </g>
   <g id="line2d_15">
    <path d="M 34.932813 21.796452 
L 70.403667 21.796452 
L 71.945878 25.510725 
L 73.488089 25.37431 
L 75.0303 35.082586 
L 76.572511 34.637188 
L 78.114722 37.041585 
L 82.741355 35.712946 
L 85.825777 34.949032 
L 87.367988 39.16705 
L 91.994622 37.91462 
L 93.536833 39.358233 
L 96.621255 38.589727 
L 98.163466 41.798464 
L 99.705677 45.591158 
L 101.247888 45.105062 
L 102.790099 46.419147 
L 105.874521 45.484338 
L 107.416732 46.481642 
L 108.958943 50.936357 
L 112.043365 49.930453 
L 113.585576 50.726984 
L 115.127787 51.80086 
L 116.669998 53.589666 
L 118.212209 55.740441 
L 119.754421 55.220885 
L 121.296632 60.299778 
L 122.838843 60.735906 
L 124.381054 64.649419 
L 125.923265 67.54151 
L 127.465476 68.236822 
L 129.007687 67.628915 
L 130.549898 68.927087 
L 135.176531 67.19775 
L 136.718742 69.694625 
L 138.260953 71.031745 
L 139.803164 70.466819 
L 141.345375 70.698555 
L 142.887586 70.152854 
L 144.429797 76.17055 
L 145.972008 75.596553 
L 147.51422 80.865284 
L 149.056431 80.267557 
L 150.598642 80.376936 
L 152.140853 79.798112 
L 153.683064 81.153066 
L 155.225275 80.585519 
L 156.767486 83.216145 
L 159.851908 84.463287 
L 161.394119 84.449761 
L 162.93633 88.884735 
L 164.478541 88.832295 
L 166.020752 90.638286 
L 167.562963 90.068931 
L 169.105174 91.624046 
L 170.647385 91.561196 
L 172.189596 92.548823 
L 173.731807 91.997588 
L 175.274019 94.436187 
L 176.81623 94.82714 
L 178.358441 97.970982 
L 179.900652 97.869944 
L 181.442863 98.012618 
L 182.985074 97.47469 
L 184.527285 99.067118 
L 186.069496 98.965811 
L 187.611707 101.730286 
L 189.153918 102.800338 
L 190.696129 106.914557 
L 192.23834 106.381886 
L 193.780551 111.983505 
L 195.322762 112.536863 
L 196.864973 113.812021 
L 198.407184 113.965965 
L 199.949395 115.133649 
L 201.491606 114.940526 
L 203.033818 115.816365 
L 204.576029 116.243454 
L 206.11824 116.501705 
L 207.660451 116.588414 
L 209.202662 117.474381 
L 210.744873 116.975034 
L 212.287084 118.953607 
L 213.829295 118.460863 
L 215.371506 119.128408 
L 216.913717 118.641576 
L 218.455928 121.911088 
L 219.998139 124.035868 
L 221.54035 124.886711 
L 223.082561 124.404999 
L 224.624772 127.678433 
L 226.166983 127.202208 
L 227.709194 129.0048 
L 229.251405 128.535368 
L 230.793617 130.65705 
L 232.335828 130.193948 
L 233.878039 132.871209 
L 235.42025 132.414712 
L 236.962461 133.87608 
L 238.504672 133.425516 
L 240.046883 134.461237 
L 241.589094 136.912414 
L 243.131305 136.832175 
L 244.673516 138.081417 
L 246.215727 137.646845 
L 247.757938 139.356534 
L 249.300149 138.925964 
L 250.84236 140.08199 
L 252.384571 139.833162 
L 253.926782 140.492094 
L 255.468993 140.587246 
L 257.011204 142.95747 
L 258.553416 142.875462 
L 260.095627 146.631749 
L 261.637838 146.701042 
L 263.180049 147.997558 
L 264.72226 147.594011 
L 266.264471 153.112378 
L 267.806682 154.458604 
L 269.348893 158.617666 
L 270.891104 158.883039 
L 272.433315 161.201085 
L 273.975526 160.81638 
L 275.517737 164.819802 
L 277.059948 164.696358 
L 278.602159 166.926167 
L 280.14437 167.284108 
L 281.686581 168.423652 
L 283.228792 168.061467 
L 284.771003 169.965294 
L 286.313215 169.609759 
L 287.855426 173.927601 
L 289.397637 173.581006 
L 290.939848 175.773713 
L 292.482059 175.434055 
L 294.02427 178.928834 
L 295.566481 178.597972 
L 297.108692 183.399253 
L 298.650903 183.081091 
L 300.193114 185.582008 
L 301.735325 185.271303 
L 303.277536 189.771719 
L 304.819747 189.47334 
L 306.361958 192.092615 
L 307.904169 191.803619 
L 309.44638 197.920736 
L 310.988591 197.646737 
L 312.530802 201.01949 
L 314.073014 200.756537 
L 315.615225 205.442317 
L 317.157436 205.19383 
L 318.699647 207.840126 
L 320.241858 207.600775 
L 321.784069 212.881237 
L 323.32628 212.658504 
L 324.868491 218.651423 
L 326.410702 218.448256 
L 327.952913 220.713747 
L 329.495124 220.519461 
L 331.037335 223.329501 
L 332.579546 223.145751 
L 334.121757 231.190947 
L 335.663968 231.035854 
L 337.206179 233.923611 
L 338.74839 233.780143 
L 340.290601 238.059887 
L 341.832813 243.508228 
L 341.832813 243.508228 
" clip-path="url(#pc82a8c0c55)" style="fill: none; stroke: #d6604d; stroke-opacity: 0.85; stroke-width: 1.6; stroke-linecap: square"/>
   </g>
   <g id="line2d_16">
    <path d="M 34.932813 21.796452 
L 58.065978 21.796452 
L 59.608189 27.166195 
L 61.1504 26.890333 
L 62.692611 36.250511 
L 65.777034 34.932781 
L 68.861456 33.835198 
L 73.488089 32.496259 
L 76.572511 31.755565 
L 78.114722 34.640407 
L 79.656933 34.225591 
L 81.199144 38.875302 
L 82.741355 38.382779 
L 84.283566 45.013436 
L 85.825777 44.404664 
L 87.367988 45.993451 
L 88.910199 45.397169 
L 90.45241 48.793252 
L 91.994622 48.173522 
L 93.536833 49.404384 
L 95.079044 48.804956 
L 96.621255 53.764909 
L 101.247888 51.882544 
L 102.790099 51.308176 
L 104.33231 57.431073 
L 105.874521 56.786663 
L 107.416732 57.501921 
L 113.585576 55.138249 
L 119.754421 53.068501 
L 121.296632 54.943595 
L 122.838843 56.630081 
L 124.381054 58.69548 
L 125.923265 58.172106 
L 129.007687 59.116792 
L 130.549898 63.414034 
L 132.092109 62.869009 
L 133.63432 66.551004 
L 135.176531 67.727326 
L 136.718742 68.198562 
L 138.260953 72.905679 
L 139.803164 72.323386 
L 141.345375 77.457784 
L 145.972008 75.686214 
L 147.51422 76.646615 
L 152.140853 74.985599 
L 153.683064 78.671652 
L 155.225275 78.124415 
L 156.767486 85.571078 
L 158.309697 85.973404 
L 159.851908 86.613608 
L 161.394119 86.047021 
L 162.93633 87.452543 
L 164.478541 87.354781 
L 166.020752 88.637864 
L 167.562963 88.53093 
L 169.105174 91.07548 
L 170.647385 90.952444 
L 172.189596 93.631891 
L 173.731807 93.079714 
L 175.274019 97.468355 
L 176.81623 96.91231 
L 178.358441 99.47172 
L 179.900652 99.33274 
L 181.442863 99.668399 
L 182.985074 99.129123 
L 184.527285 101.356189 
L 186.069496 101.217168 
L 187.611707 101.414459 
L 189.153918 101.274933 
L 190.696129 103.327239 
L 192.23834 103.182755 
L 193.780551 103.527477 
L 195.322762 103.018868 
L 196.864973 104.178628 
L 198.407184 103.679289 
L 199.949395 104.305535 
L 201.491606 103.815112 
L 203.033818 105.307049 
L 204.576029 104.82138 
L 206.11824 105.555472 
L 207.660451 105.078982 
L 209.202662 110.321522 
L 210.744873 111.530736 
L 212.287084 113.022504 
L 213.829295 112.54094 
L 215.371506 114.055228 
L 216.913717 113.894731 
L 218.455928 116.046193 
L 219.998139 115.881624 
L 221.54035 117.655244 
L 223.082561 117.186779 
L 224.624772 119.493388 
L 226.166983 119.030693 
L 227.709194 120.853157 
L 229.251405 120.395139 
L 230.793617 124.742831 
L 232.335828 124.286021 
L 233.878039 128.593826 
L 235.42025 128.138198 
L 236.962461 131.040135 
L 238.504672 130.589954 
L 240.046883 133.127349 
L 241.589094 134.763889 
L 243.131305 135.998975 
L 244.673516 137.757553 
L 246.215727 137.629995 
L 247.757938 139.03073 
L 249.300149 138.601512 
L 250.84236 141.75479 
L 252.384571 141.922955 
L 253.926782 144.104002 
L 255.468993 143.828275 
L 257.011204 147.98384 
L 258.553416 148.262218 
L 260.095627 150.163597 
L 261.637838 150.656713 
L 263.180049 155.13601 
L 264.72226 154.73097 
L 266.264471 156.570289 
L 267.806682 156.172782 
L 269.348893 156.700126 
L 270.891104 157.031291 
L 272.433315 159.427138 
L 273.975526 159.611004 
L 275.517737 161.80803 
L 277.059948 161.430743 
L 278.602159 163.060438 
L 280.14437 163.943782 
L 281.686581 165.793222 
L 283.228792 165.431491 
L 284.771003 166.431742 
L 286.313215 166.074258 
L 287.855426 167.698765 
L 289.397637 167.346433 
L 290.939848 171.726921 
L 292.482059 171.382869 
L 294.02427 171.839481 
L 295.566481 171.499324 
L 297.108692 176.290198 
L 298.650903 175.959937 
L 300.193114 180.788964 
L 301.735325 180.46953 
L 303.277536 188.510686 
L 304.819747 188.209755 
L 306.361958 191.890546 
L 307.904169 191.600168 
L 309.44638 196.081302 
L 310.988591 195.802813 
L 312.530802 199.093144 
L 314.073014 198.82412 
L 315.615225 202.144244 
L 317.157436 201.886582 
L 318.699647 204.866813 
L 320.241858 204.618955 
L 321.784069 205.585799 
L 323.32628 205.34264 
L 324.868491 216.195832 
L 326.410702 215.984767 
L 327.952913 221.315659 
L 329.495124 221.12447 
L 331.037335 228.036047 
L 332.579546 227.868517 
L 334.121757 234.073766 
L 335.663968 233.929417 
L 337.206179 237.578222 
L 338.74839 237.448822 
L 340.290601 240.027213 
L 341.832813 243.508228 
L 341.832813 243.508228 
" clip-path="url(#pc82a8c0c55)" style="fill: none; stroke: #f4a582; stroke-opacity: 0.85; stroke-width: 1.6; stroke-linecap: square"/>
   </g>
   <g id="line2d_17">
    <path d="M 34.932813 21.796452 
L 45.72829 21.796452 
L 47.270501 31.481655 
L 50.354923 29.861601 
L 51.897134 29.270469 
L 53.439345 35.562222 
L 56.523767 33.834673 
L 58.065978 33.141604 
L 59.608189 37.86198 
L 62.692611 36.250511 
L 65.777034 34.932781 
L 68.861456 33.835198 
L 70.403667 33.356169 
L 71.945878 36.621128 
L 73.488089 36.074117 
L 75.0303 38.553878 
L 79.656933 36.967116 
L 84.283566 35.653886 
L 85.825777 35.264485 
L 87.367988 39.465337 
L 91.994622 38.172358 
L 95.079044 37.411448 
L 96.621255 40.725163 
L 99.705677 39.930691 
L 101.247888 41.502098 
L 104.33231 47.158288 
L 105.874521 48.16561 
L 107.416732 47.687424 
L 108.958943 51.159226 
L 113.585576 49.729223 
L 115.127787 53.133236 
L 116.669998 55.21951 
L 118.212209 59.307381 
L 119.754421 58.76574 
L 121.296632 61.028142 
L 122.838843 60.493053 
L 124.381054 61.308111 
L 125.923265 63.904082 
L 127.465476 64.588928 
L 129.007687 64.044805 
L 132.092109 64.864272 
L 133.63432 67.414045 
L 135.176531 66.88445 
L 136.718742 71.799408 
L 138.260953 72.876403 
L 139.803164 72.31838 
L 141.345375 73.808438 
L 142.887586 73.252125 
L 144.429797 75.86405 
L 145.972008 75.307455 
L 147.51422 79.333527 
L 149.056431 78.764995 
L 150.598642 79.661747 
L 152.140853 79.10501 
L 153.683064 79.79388 
L 155.225275 79.251353 
L 156.767486 82.961223 
L 158.309697 82.408918 
L 159.851908 84.00282 
L 161.394119 83.454772 
L 162.93633 85.470496 
L 164.478541 86.834301 
L 167.562963 89.046002 
L 170.647385 88.977361 
L 172.189596 90.581485 
L 173.731807 90.551394 
L 175.274019 91.500267 
L 176.81623 91.459652 
L 178.358441 92.363098 
L 179.900652 92.313233 
L 182.985074 93.127283 
L 184.527285 94.392682 
L 186.069496 93.885859 
L 187.611707 96.313164 
L 189.153918 96.651348 
L 190.696129 98.303131 
L 192.23834 98.205105 
L 193.780551 100.201094 
L 195.322762 101.207774 
L 196.864973 101.338892 
L 201.491606 100.97762 
L 203.033818 105.070861 
L 204.576029 105.251242 
L 206.11824 106.366998 
L 207.660451 106.826029 
L 209.202662 106.934141 
L 210.744873 106.763684 
L 212.287084 108.845576 
L 213.829295 110.303602 
L 215.371506 111.580108 
L 216.913717 111.368818 
L 218.455928 112.044939 
L 219.998139 112.320017 
L 221.54035 114.071278 
L 223.082561 113.618085 
L 224.624772 118.356498 
L 226.166983 117.896176 
L 227.709194 118.875964 
L 229.251405 118.422826 
L 230.793617 122.780101 
L 232.335828 122.326647 
L 233.878039 125.473898 
L 235.42025 125.025477 
L 236.962461 128.457004 
L 238.504672 128.011273 
L 240.046883 129.464509 
L 241.589094 133.201392 
L 243.131305 132.760294 
L 244.673516 134.047021 
L 246.215727 133.611361 
L 247.757938 133.539686 
L 249.300149 133.110695 
L 250.84236 134.466193 
L 252.384571 134.924358 
L 253.926782 138.683978 
L 255.468993 138.599101 
L 257.011204 139.387795 
L 258.553416 139.136964 
L 260.095627 146.293233 
L 261.637838 145.878248 
L 263.180049 147.1464 
L 264.72226 146.737162 
L 266.264471 147.949924 
L 267.806682 148.335063 
L 269.348893 149.126499 
L 270.891104 148.728517 
L 272.433315 152.381224 
L 273.975526 152.291312 
L 275.517737 154.273736 
L 277.059948 154.036211 
L 278.602159 156.165035 
L 280.14437 156.219764 
L 281.686581 159.840455 
L 283.228792 159.469394 
L 284.771003 160.154473 
L 286.313215 159.788447 
L 287.855426 162.038049 
L 289.397637 161.677559 
L 290.939848 162.772305 
L 292.482059 162.416213 
L 294.02427 167.330037 
L 295.566481 166.981963 
L 297.108692 169.144317 
L 298.650903 168.802059 
L 300.193114 171.155328 
L 301.735325 170.820102 
L 303.277536 171.729176 
L 304.819747 171.398101 
L 306.361958 175.774583 
L 307.904169 175.451987 
L 309.44638 183.100998 
L 310.988591 182.79326 
L 312.530802 187.396297 
L 314.073014 187.100761 
L 315.615225 194.862822 
L 317.157436 194.587058 
L 318.699647 200.723962 
L 320.241858 200.465016 
L 321.784069 205.485734 
L 323.32628 205.241418 
L 324.868491 206.854348 
L 326.410702 206.616413 
L 327.952913 215.775644 
L 329.495124 215.566305 
L 331.037335 221.518269 
L 332.579546 221.328888 
L 334.121757 226.840253 
L 335.663968 226.670763 
L 337.206179 233.813893 
L 338.74839 233.670349 
L 340.290601 239.4633 
L 341.832813 243.508228 
L 341.832813 243.508228 
" clip-path="url(#pc82a8c0c55)" style="fill: none; stroke: #b2182b; stroke-opacity: 0.85; stroke-width: 1.6; stroke-linecap: square"/>
   </g>
   <g id="text_15">
    <!-- Curves averaged via per-fold interpolation; AUPRC = mean fold AP -->
    <g style="fill: #636363" transform="translate(41.070813 261.395087) scale(0.075 -0.075)">
     <defs>
      <path id="TimesNewRomanPSMT-43" d="M 3853 4334 
L 3950 2894 
L 3853 2894 
Q 3659 3541 3300 3825 
Q 2941 4109 2438 4109 
Q 2016 4109 1675 3895 
Q 1334 3681 1139 3212 
Q 944 2744 944 2047 
Q 944 1472 1128 1050 
Q 1313 628 1683 403 
Q 2053 178 2528 178 
Q 2941 178 3256 354 
Q 3572 531 3950 1056 
L 4047 994 
Q 3728 428 3303 165 
Q 2878 -97 2294 -97 
Q 1241 -97 663 684 
Q 231 1266 231 2053 
Q 231 2688 515 3219 
Q 800 3750 1298 4042 
Q 1797 4334 2388 4334 
Q 2847 4334 3294 4109 
Q 3425 4041 3481 4041 
Q 3566 4041 3628 4100 
Q 3709 4184 3744 4334 
L 3853 4334 
z
" transform="scale(0.015625)"/>
      <path id="TimesNewRomanPSMT-75" d="M 2709 2863 
L 2709 1128 
Q 2709 631 2732 520 
Q 2756 409 2807 365 
Q 2859 322 2928 322 
Q 3025 322 3147 375 
L 3191 266 
L 2334 -88 
L 2194 -88 
L 2194 519 
Q 1825 119 1631 15 
Q 1438 -88 1222 -88 
Q 981 -88 804 51 
Q 628 191 559 409 
Q 491 628 491 1028 
L 491 2306 
Q 491 2509 447 2587 
Q 403 2666 317 2708 
Q 231 2750 6 2747 
L 6 2863 
L 1009 2863 
L 1009 947 
Q 1009 547 1148 422 
Q 1288 297 1484 297 
Q 1619 297 1789 381 
Q 1959 466 2194 703 
L 2194 2325 
Q 2194 2569 2105 2655 
Q 2016 2741 1734 2747 
L 1734 2863 
L 2709 2863 
z
" transform="scale(0.015625)"/>
      <path id="TimesNewRomanPSMT-76" d="M 53 2863 
L 1400 2863 
L 1400 2747 
L 1313 2747 
Q 1191 2747 1127 2687 
Q 1063 2628 1063 2528 
Q 1063 2419 1128 2269 
L 1794 688 
L 2463 2328 
Q 2534 2503 2534 2594 
Q 2534 2638 2509 2666 
Q 2475 2713 2422 2730 
Q 2369 2747 2206 2747 
L 2206 2863 
L 3141 2863 
L 3141 2747 
Q 2978 2734 2916 2681 
Q 2806 2588 2719 2369 
L 1703 -88 
L 1575 -88 
L 553 2328 
Q 484 2497 421 2570 
Q 359 2644 263 2694 
Q 209 2722 53 2747 
L 53 2863 
z
" transform="scale(0.015625)"/>
      <path id="TimesNewRomanPSMT-20" transform="scale(0.015625)"/>
      <path id="TimesNewRomanPSMT-67" d="M 966 1044 
Q 703 1172 562 1401 
Q 422 1631 422 1909 
Q 422 2334 742 2640 
Q 1063 2947 1563 2947 
Q 1972 2947 2272 2747 
L 2878 2747 
Q 3013 2747 3034 2739 
Q 3056 2731 3066 2713 
Q 3084 2684 3084 2613 
Q 3084 2531 3069 2500 
Q 3059 2484 3036 2475 
Q 3013 2466 2878 2466 
L 2506 2466 
Q 2681 2241 2681 1891 
Q 2681 1491 2375 1206 
Q 2069 922 1553 922 
Q 1341 922 1119 984 
Q 981 866 932 777 
Q 884 688 884 625 
Q 884 572 936 522 
Q 988 472 1138 450 
Q 1225 438 1575 428 
Q 2219 413 2409 384 
Q 2700 344 2873 169 
Q 3047 -6 3047 -263 
Q 3047 -616 2716 -925 
Q 2228 -1381 1444 -1381 
Q 841 -1381 425 -1109 
Q 191 -953 191 -784 
Q 191 -709 225 -634 
Q 278 -519 444 -313 
Q 466 -284 763 25 
Q 600 122 533 198 
Q 466 275 466 372 
Q 466 481 555 628 
Q 644 775 966 1044 
z
M 1509 2797 
Q 1278 2797 1122 2612 
Q 966 2428 966 2047 
Q 966 1553 1178 1281 
Q 1341 1075 1591 1075 
Q 1828 1075 1981 1253 
Q 2134 1431 2134 1813 
Q 2134 2309 1919 2591 
Q 1759 2797 1509 2797 
z
M 934 0 
Q 788 -159 713 -296 
Q 638 -434 638 -550 
Q 638 -700 819 -813 
Q 1131 -1006 1722 -1006 
Q 2284 -1006 2551 -807 
Q 2819 -609 2819 -384 
Q 2819 -222 2659 -153 
Q 2497 -84 2016 -72 
Q 1313 -53 934 0 
z
" transform="scale(0.015625)"/>
      <path id="TimesNewRomanPSMT-64" d="M 2222 322 
Q 2013 103 1813 7 
Q 1613 -88 1381 -88 
Q 913 -88 563 304 
Q 213 697 213 1313 
Q 213 1928 600 2439 
Q 988 2950 1597 2950 
Q 1975 2950 2222 2709 
L 2222 3238 
Q 2222 3728 2198 3840 
Q 2175 3953 2125 3993 
Q 2075 4034 2000 4034 
Q 1919 4034 1784 3984 
L 1744 4094 
L 2597 4444 
L 2738 4444 
L 2738 1134 
Q 2738 631 2761 520 
Q 2784 409 2836 365 
Q 2888 322 2956 322 
Q 3041 322 3181 375 
L 3216 266 
L 2366 -88 
L 2222 -88 
L 2222 322 
z
M 2222 541 
L 2222 2016 
Q 2203 2228 2109 2403 
Q 2016 2578 1861 2667 
Q 1706 2756 1559 2756 
Q 1284 2756 1069 2509 
Q 784 2184 784 1559 
Q 784 928 1059 592 
Q 1334 256 1672 256 
Q 1956 256 2222 541 
z
" transform="scale(0.015625)"/>
      <path id="TimesNewRomanPSMT-70" d="M -6 2578 
L 875 2934 
L 994 2934 
L 994 2266 
Q 1216 2644 1439 2795 
Q 1663 2947 1909 2947 
Q 2341 2947 2628 2609 
Q 2981 2197 2981 1534 
Q 2981 794 2556 309 
Q 2206 -88 1675 -88 
Q 1444 -88 1275 -22 
Q 1150 25 994 166 
L 994 -706 
Q 994 -1000 1030 -1079 
Q 1066 -1159 1155 -1206 
Q 1244 -1253 1478 -1253 
L 1478 -1369 
L -22 -1369 
L -22 -1253 
L 56 -1253 
Q 228 -1256 350 -1188 
Q 409 -1153 442 -1076 
Q 475 -1000 475 -688 
L 475 2019 
Q 475 2297 450 2372 
Q 425 2447 370 2484 
Q 316 2522 222 2522 
Q 147 2522 31 2478 
L -6 2578 
z
M 994 2081 
L 994 1013 
Q 994 666 1022 556 
Q 1066 375 1236 237 
Q 1406 100 1666 100 
Q 1978 100 2172 344 
Q 2425 663 2425 1241 
Q 2425 1897 2138 2250 
Q 1938 2494 1663 2494 
Q 1513 2494 1366 2419 
Q 1253 2363 994 2081 
z
" transform="scale(0.015625)"/>
      <path id="TimesNewRomanPSMT-2d" d="M 259 1672 
L 1875 1672 
L 1875 1200 
L 259 1200 
L 259 1672 
z
" transform="scale(0.015625)"/>
      <path id="TimesNewRomanPSMT-66" d="M 1319 2638 
L 1319 756 
Q 1319 356 1406 250 
Q 1522 113 1716 113 
L 1975 113 
L 1975 0 
L 266 0 
L 266 113 
L 394 113 
Q 519 113 622 175 
Q 725 238 764 344 
Q 803 450 803 756 
L 803 2638 
L 247 2638 
L 247 2863 
L 803 2863 
L 803 3050 
Q 803 3478 940 3775 
Q 1078 4072 1361 4255 
Q 1644 4438 1997 4438 
Q 2325 4438 2600 4225 
Q 2781 4084 2781 3909 
Q 2781 3816 2700 3733 
Q 2619 3650 2525 3650 
Q 2453 3650 2373 3701 
Q 2294 3753 2178 3923 
Q 2063 4094 1966 4153 
Q 1869 4213 1750 4213 
Q 1606 4213 1506 4136 
Q 1406 4059 1362 3898 
Q 1319 3738 1319 3069 
L 1319 2863 
L 2056 2863 
L 2056 2638 
L 1319 2638 
z
" transform="scale(0.015625)"/>
      <path id="TimesNewRomanPSMT-74" d="M 1031 3803 
L 1031 2863 
L 1700 2863 
L 1700 2644 
L 1031 2644 
L 1031 788 
Q 1031 509 1111 412 
Q 1191 316 1316 316 
Q 1419 316 1516 380 
Q 1613 444 1666 569 
L 1788 569 
Q 1678 263 1478 108 
Q 1278 -47 1066 -47 
Q 922 -47 784 33 
Q 647 113 581 261 
Q 516 409 516 719 
L 516 2644 
L 63 2644 
L 63 2747 
Q 234 2816 414 2980 
Q 594 3144 734 3369 
Q 806 3488 934 3803 
L 1031 3803 
z
" transform="scale(0.015625)"/>
      <path id="TimesNewRomanPSMT-3b" d="M 881 2953 
Q 1025 2953 1126 2853 
Q 1228 2753 1228 2609 
Q 1228 2466 1126 2364 
Q 1025 2263 881 2263 
Q 738 2263 636 2364 
Q 534 2466 534 2609 
Q 534 2753 636 2853 
Q 738 2953 881 2953 
z
M 444 -1066 
L 444 -928 
Q 766 -822 942 -598 
Q 1119 -375 1119 -125 
Q 1119 -66 1091 -25 
Q 1069 3 1047 3 
Q 1013 3 897 -59 
Q 841 -88 778 -88 
Q 625 -88 534 3 
Q 444 94 444 253 
Q 444 406 561 515 
Q 678 625 847 625 
Q 1053 625 1214 445 
Q 1375 266 1375 -31 
Q 1375 -353 1151 -629 
Q 928 -906 444 -1066 
z
" transform="scale(0.015625)"/>
      <path id="TimesNewRomanPSMT-41" d="M 2928 1419 
L 1288 1419 
L 1000 750 
Q 894 503 894 381 
Q 894 284 986 211 
Q 1078 138 1384 116 
L 1384 0 
L 50 0 
L 50 116 
Q 316 163 394 238 
Q 553 388 747 847 
L 2238 4334 
L 2347 4334 
L 3822 809 
Q 4000 384 4145 257 
Q 4291 131 4550 116 
L 4550 0 
L 2878 0 
L 2878 116 
Q 3131 128 3220 200 
Q 3309 272 3309 375 
Q 3309 513 3184 809 
L 2928 1419 
z
M 2841 1650 
L 2122 3363 
L 1384 1650 
L 2841 1650 
z
" transform="scale(0.015625)"/>
      <path id="TimesNewRomanPSMT-55" d="M 3053 4122 
L 3053 4238 
L 4553 4238 
L 4553 4122 
L 4394 4122 
Q 4144 4122 4009 3913 
Q 3944 3816 3944 3463 
L 3944 1744 
Q 3944 1106 3817 754 
Q 3691 403 3320 151 
Q 2950 -100 2313 -100 
Q 1619 -100 1259 140 
Q 900 381 750 788 
Q 650 1066 650 1831 
L 650 3488 
Q 650 3878 542 4000 
Q 434 4122 194 4122 
L 34 4122 
L 34 4238 
L 1866 4238 
L 1866 4122 
L 1703 4122 
Q 1441 4122 1328 3956 
Q 1250 3844 1250 3488 
L 1250 1641 
Q 1250 1394 1295 1075 
Q 1341 756 1459 578 
Q 1578 400 1801 284 
Q 2025 169 2350 169 
Q 2766 169 3094 350 
Q 3422 531 3542 814 
Q 3663 1097 3663 1772 
L 3663 3488 
Q 3663 3884 3575 3984 
Q 3453 4122 3213 4122 
L 3053 4122 
z
" transform="scale(0.015625)"/>
      <path id="TimesNewRomanPSMT-3d" d="M 116 2759 
L 3488 2759 
L 3488 2503 
L 116 2503 
L 116 2759 
z
M 116 1741 
L 3488 1741 
L 3488 1484 
L 116 1484 
L 116 1741 
z
" transform="scale(0.015625)"/>
      <path id="TimesNewRomanPSMT-6d" d="M 1050 2338 
Q 1363 2650 1419 2697 
Q 1559 2816 1721 2881 
Q 1884 2947 2044 2947 
Q 2313 2947 2506 2790 
Q 2700 2634 2766 2338 
Q 3088 2713 3309 2830 
Q 3531 2947 3766 2947 
Q 3994 2947 4170 2830 
Q 4347 2713 4450 2447 
Q 4519 2266 4519 1878 
L 4519 647 
Q 4519 378 4559 278 
Q 4591 209 4675 161 
Q 4759 113 4950 113 
L 4950 0 
L 3538 0 
L 3538 113 
L 3597 113 
Q 3781 113 3884 184 
Q 3956 234 3988 344 
Q 4000 397 4000 647 
L 4000 1878 
Q 4000 2228 3916 2372 
Q 3794 2572 3525 2572 
Q 3359 2572 3192 2489 
Q 3025 2406 2788 2181 
L 2781 2147 
L 2788 2013 
L 2788 647 
Q 2788 353 2820 281 
Q 2853 209 2943 161 
Q 3034 113 3253 113 
L 3253 0 
L 1806 0 
L 1806 113 
Q 2044 113 2133 169 
Q 2222 225 2256 338 
Q 2272 391 2272 647 
L 2272 1878 
Q 2272 2228 2169 2381 
Q 2031 2581 1784 2581 
Q 1616 2581 1450 2491 
Q 1191 2353 1050 2181 
L 1050 647 
Q 1050 366 1089 281 
Q 1128 197 1204 155 
Q 1281 113 1516 113 
L 1516 0 
L 100 0 
L 100 113 
Q 297 113 375 155 
Q 453 197 493 289 
Q 534 381 534 647 
L 534 1741 
Q 534 2213 506 2350 
Q 484 2453 437 2492 
Q 391 2531 309 2531 
Q 222 2531 100 2484 
L 53 2597 
L 916 2947 
L 1050 2947 
L 1050 2338 
z
" transform="scale(0.015625)"/>
     </defs>
     <use xlink:href="#TimesNewRomanPSMT-43"/>
     <use xlink:href="#TimesNewRomanPSMT-75" transform="translate(66.699219 0)"/>
     <use xlink:href="#TimesNewRomanPSMT-72" transform="translate(116.699219 0)"/>
     <use xlink:href="#TimesNewRomanPSMT-76" transform="translate(150 0)"/>
     <use xlink:href="#TimesNewRomanPSMT-65" transform="translate(200 0)"/>
     <use xlink:href="#TimesNewRomanPSMT-73" transform="translate(244.384766 0)"/>
     <use xlink:href="#TimesNewRomanPSMT-20" transform="translate(283.300781 0)"/>
     <use xlink:href="#TimesNewRomanPSMT-61" transform="translate(308.300781 0)"/>
     <use xlink:href="#TimesNewRomanPSMT-76" transform="translate(352.685547 0)"/>
     <use xlink:href="#TimesNewRomanPSMT-65" transform="translate(402.685547 0)"/>
     <use xlink:href="#TimesNewRomanPSMT-72" transform="translate(447.070312 0)"/>
     <use xlink:href="#TimesNewRomanPSMT-61" transform="translate(480.371094 0)"/>
     <use xlink:href="#TimesNewRomanPSMT-67" transform="translate(524.755859 0)"/>
     <use xlink:href="#TimesNewRomanPSMT-65" transform="translate(574.755859 0)"/>
     <use xlink:href="#TimesNewRomanPSMT-64" transform="translate(619.140625 0)"/>
     <use xlink:href="#TimesNewRomanPSMT-20" transform="translate(669.140625 0)"/>
     <use xlink:href="#TimesNewRomanPSMT-76" transform="translate(694.140625 0)"/>
     <use xlink:href="#TimesNewRomanPSMT-69" transform="translate(744.140625 0)"/>
     <use xlink:href="#TimesNewRomanPSMT-61" transform="translate(771.923828 0)"/>
     <use xlink:href="#TimesNewRomanPSMT-20" transform="translate(816.308594 0)"/>
     <use xlink:href="#TimesNewRomanPSMT-70" transform="translate(841.308594 0)"/>
     <use xlink:href="#TimesNewRomanPSMT-65" transform="translate(891.308594 0)"/>
     <use xlink:href="#TimesNewRomanPSMT-72" transform="translate(935.693359 0)"/>
     <use xlink:href="#TimesNewRomanPSMT-2d" transform="translate(966.994141 0)"/>
     <use xlink:href="#TimesNewRomanPSMT-66" transform="translate(1000.294922 0)"/>
     <use xlink:href="#TimesNewRomanPSMT-6f" transform="translate(1033.595703 0)"/>
     <use xlink:href="#TimesNewRomanPSMT-6c" transform="translate(1083.595703 0)"/>
     <use xlink:href="#TimesNewRomanPSMT-64" transform="translate(1111.378906 0)"/>
     <use xlink:href="#TimesNewRomanPSMT-20" transform="translate(1161.378906 0)"/>
     <use xlink:href="#TimesNewRomanPSMT-69" transform="translate(1186.378906 0)"/>
     <use xlink:href="#TimesNewRomanPSMT-6e" transform="translate(1214.162109 0)"/>
     <use xlink:href="#TimesNewRomanPSMT-74" transform="translate(1264.162109 0)"/>
     <use xlink:href="#TimesNewRomanPSMT-65" transform="translate(1291.945312 0)"/>
     <use xlink:href="#TimesNewRomanPSMT-72" transform="translate(1336.330078 0)"/>
     <use xlink:href="#TimesNewRomanPSMT-70" transform="translate(1369.630859 0)"/>
     <use xlink:href="#TimesNewRomanPSMT-6f" transform="translate(1419.630859 0)"/>
     <use xlink:href="#TimesNewRomanPSMT-6c" transform="translate(1469.630859 0)"/>
     <use xlink:href="#TimesNewRomanPSMT-61" transform="translate(1497.414062 0)"/>
     <use xlink:href="#TimesNewRomanPSMT-74" transform="translate(1541.798828 0)"/>
     <use xlink:href="#TimesNewRomanPSMT-69" transform="translate(1569.582031 0)"/>
     <use xlink:href="#TimesNewRomanPSMT-6f" transform="translate(1597.365234 0)"/>
     <use xlink:href="#TimesNewRomanPSMT-6e" transform="translate(1647.365234 0)"/>
     <use xlink:href="#TimesNewRomanPSMT-3b" transform="translate(1697.365234 0)"/>
     <use xlink:href="#TimesNewRomanPSMT-20" transform="translate(1725.148438 0)"/>
     <use xlink:href="#TimesNewRomanPSMT-41" transform="translate(1744.648438 0)"/>
     <use xlink:href="#TimesNewRomanPSMT-55" transform="translate(1816.865234 0)"/>
     <use xlink:href="#TimesNewRomanPSMT-50" transform="translate(1889.082031 0)"/>
     <use xlink:href="#TimesNewRomanPSMT-52" transform="translate(1944.697266 0)"/>
     <use xlink:href="#TimesNewRomanPSMT-43" transform="translate(2011.396484 0)"/>
     <use xlink:href="#TimesNewRomanPSMT-20" transform="translate(2078.095703 0)"/>
     <use xlink:href="#TimesNewRomanPSMT-3d" transform="translate(2103.095703 0)"/>
     <use xlink:href="#TimesNewRomanPSMT-20" transform="translate(2159.492188 0)"/>
     <use xlink:href="#TimesNewRomanPSMT-6d" transform="translate(2184.492188 0)"/>
     <use xlink:href="#TimesNewRomanPSMT-65" transform="translate(2262.275391 0)"/>
     <use xlink:href="#TimesNewRomanPSMT-61" transform="translate(2306.660156 0)"/>
     <use xlink:href="#TimesNewRomanPSMT-6e" transform="translate(2351.044922 0)"/>
     <use xlink:href="#TimesNewRomanPSMT-20" transform="translate(2401.044922 0)"/>
     <use xlink:href="#TimesNewRomanPSMT-66" transform="translate(2426.044922 0)"/>
     <use xlink:href="#TimesNewRomanPSMT-6f" transform="translate(2459.345703 0)"/>
     <use xlink:href="#TimesNewRomanPSMT-6c" transform="translate(2509.345703 0)"/>
     <use xlink:href="#TimesNewRomanPSMT-64" transform="translate(2537.128906 0)"/>
     <use xlink:href="#TimesNewRomanPSMT-20" transform="translate(2587.128906 0)"/>
     <use xlink:href="#TimesNewRomanPSMT-41" transform="translate(2606.628906 0)"/>
     <use xlink:href="#TimesNewRomanPSMT-50" transform="translate(2678.845703 0)"/>
    </g>
   </g>
   <g id="text_16">
    <!-- Precision–Recall Curves (mean across 5 folds) -->
    <g transform="translate(80.579375 10.904687) scale(0.11 -0.11)">
     <defs>
      <path id="TimesNewRomanPS-BoldMT-50" d="M 1728 1919 
L 1728 744 
Q 1728 400 1770 311 
Q 1813 222 1920 169 
Q 2028 116 2316 116 
L 2316 0 
L 163 0 
L 163 116 
Q 456 116 561 170 
Q 666 225 708 312 
Q 750 400 750 744 
L 750 3494 
Q 750 3838 708 3927 
Q 666 4016 559 4069 
Q 453 4122 163 4122 
L 163 4238 
L 2009 4238 
Q 2922 4238 3319 3913 
Q 3716 3588 3716 3100 
Q 3716 2688 3459 2394 
Q 3203 2100 2753 1994 
Q 2450 1919 1728 1919 
z
M 1728 3994 
L 1728 2163 
Q 1831 2156 1884 2156 
Q 2266 2156 2472 2382 
Q 2678 2609 2678 3084 
Q 2678 3556 2472 3775 
Q 2266 3994 1856 3994 
L 1728 3994 
z
" transform="scale(0.015625)"/>
      <path id="TimesNewRomanPS-BoldMT-72" d="M 1428 2922 
L 1428 2259 
Q 1719 2713 1937 2861 
Q 2156 3009 2359 3009 
Q 2534 3009 2639 2901 
Q 2744 2794 2744 2597 
Q 2744 2388 2642 2272 
Q 2541 2156 2397 2156 
Q 2231 2156 2109 2262 
Q 1988 2369 1966 2381 
Q 1934 2400 1894 2400 
Q 1803 2400 1722 2331 
Q 1594 2225 1528 2028 
Q 1428 1725 1428 1359 
L 1428 688 
L 1431 513 
Q 1431 334 1453 284 
Q 1491 200 1564 161 
Q 1638 122 1813 113 
L 1813 0 
L 234 0 
L 234 113 
Q 425 128 492 217 
Q 559 306 559 688 
L 559 2303 
Q 559 2553 534 2622 
Q 503 2709 443 2750 
Q 384 2791 234 2806 
L 234 2922 
L 1428 2922 
z
" transform="scale(0.015625)"/>
      <path id="TimesNewRomanPS-BoldMT-65" d="M 2691 1566 
L 1088 1566 
Q 1116 984 1397 647 
Q 1613 388 1916 388 
Q 2103 388 2256 492 
Q 2409 597 2584 869 
L 2691 800 
Q 2453 316 2165 114 
Q 1878 -88 1500 -88 
Q 850 -88 516 413 
Q 247 816 247 1413 
Q 247 2144 642 2576 
Q 1038 3009 1569 3009 
Q 2013 3009 2339 2645 
Q 2666 2281 2691 1566 
z
M 1922 1775 
Q 1922 2278 1867 2465 
Q 1813 2653 1697 2750 
Q 1631 2806 1522 2806 
Q 1359 2806 1256 2647 
Q 1072 2369 1072 1884 
L 1072 1775 
L 1922 1775 
z
" transform="scale(0.015625)"/>
      <path id="TimesNewRomanPS-BoldMT-63" d="M 2600 753 
L 2697 678 
Q 2491 291 2183 101 
Q 1875 -88 1528 -88 
Q 944 -88 594 353 
Q 244 794 244 1413 
Q 244 2009 563 2463 
Q 947 3009 1622 3009 
Q 2075 3009 2342 2781 
Q 2609 2553 2609 2272 
Q 2609 2094 2501 1987 
Q 2394 1881 2219 1881 
Q 2034 1881 1914 2003 
Q 1794 2125 1766 2438 
Q 1747 2634 1675 2713 
Q 1603 2791 1506 2791 
Q 1356 2791 1250 2631 
Q 1088 2391 1088 1894 
Q 1088 1481 1219 1104 
Q 1350 728 1578 544 
Q 1750 409 1984 409 
Q 2138 409 2275 481 
Q 2413 553 2600 753 
z
" transform="scale(0.015625)"/>
      <path id="TimesNewRomanPS-BoldMT-69" d="M 919 4338 
Q 1122 4338 1262 4195 
Q 1403 4053 1403 3853 
Q 1403 3653 1261 3512 
Q 1119 3372 919 3372 
Q 719 3372 578 3512 
Q 438 3653 438 3853 
Q 438 4053 578 4195 
Q 719 4338 919 4338 
z
M 1356 2922 
L 1356 606 
Q 1356 297 1428 211 
Q 1500 125 1709 113 
L 1709 0 
L 131 0 
L 131 113 
Q 325 119 419 225 
Q 481 297 481 606 
L 481 2313 
Q 481 2622 409 2708 
Q 338 2794 131 2806 
L 131 2922 
L 1356 2922 
z
" transform="scale(0.015625)"/>
      <path id="TimesNewRomanPS-BoldMT-73" d="M 2063 3003 
L 2109 2006 
L 2003 2006 
Q 1813 2450 1608 2612 
Q 1403 2775 1200 2775 
Q 1072 2775 981 2689 
Q 891 2603 891 2491 
Q 891 2406 953 2328 
Q 1053 2200 1512 1889 
Q 1972 1578 2117 1361 
Q 2263 1144 2263 875 
Q 2263 631 2141 397 
Q 2019 163 1797 37 
Q 1575 -88 1306 -88 
Q 1097 -88 747 44 
Q 653 78 619 78 
Q 516 78 447 -78 
L 344 -78 
L 294 972 
L 400 972 
Q 541 559 786 353 
Q 1031 147 1250 147 
Q 1400 147 1495 239 
Q 1591 331 1591 463 
Q 1591 613 1497 722 
Q 1403 831 1078 1053 
Q 600 1384 459 1559 
Q 253 1816 253 2125 
Q 253 2463 486 2736 
Q 719 3009 1159 3009 
Q 1397 3009 1619 2894 
Q 1703 2847 1756 2847 
Q 1813 2847 1847 2870 
Q 1881 2894 1956 3003 
L 2063 3003 
z
" transform="scale(0.015625)"/>
      <path id="TimesNewRomanPS-BoldMT-6f" d="M 1594 3009 
Q 1975 3009 2303 2812 
Q 2631 2616 2801 2253 
Q 2972 1891 2972 1459 
Q 2972 838 2656 419 
Q 2275 -88 1603 -88 
Q 944 -88 587 375 
Q 231 838 231 1447 
Q 231 2075 595 2542 
Q 959 3009 1594 3009 
z
M 1606 2788 
Q 1447 2788 1333 2667 
Q 1219 2547 1183 2192 
Q 1147 1838 1147 1206 
Q 1147 872 1191 581 
Q 1225 359 1337 243 
Q 1450 128 1594 128 
Q 1734 128 1828 206 
Q 1950 313 1991 503 
Q 2053 800 2053 1703 
Q 2053 2234 1993 2432 
Q 1934 2631 1819 2722 
Q 1738 2788 1606 2788 
z
" transform="scale(0.015625)"/>
      <path id="TimesNewRomanPS-BoldMT-6e" d="M 1409 2922 
L 1409 2544 
Q 1634 2788 1840 2898 
Q 2047 3009 2284 3009 
Q 2569 3009 2756 2851 
Q 2944 2694 3006 2459 
Q 3056 2281 3056 1775 
L 3056 638 
Q 3056 300 3117 217 
Q 3178 134 3372 113 
L 3372 0 
L 1894 0 
L 1894 113 
Q 2059 134 2131 250 
Q 2181 328 2181 638 
L 2181 1938 
Q 2181 2297 2153 2390 
Q 2125 2484 2058 2536 
Q 1991 2588 1909 2588 
Q 1641 2588 1409 2203 
L 1409 638 
Q 1409 309 1470 221 
Q 1531 134 1697 113 
L 1697 0 
L 219 0 
L 219 113 
Q 403 131 481 231 
Q 534 300 534 638 
L 534 2288 
Q 534 2619 473 2700 
Q 413 2781 219 2806 
L 219 2922 
L 1409 2922 
z
" transform="scale(0.015625)"/>
      <path id="TimesNewRomanPS-BoldMT-2013" d="M 3250 1291 
L -53 1291 
L -53 1669 
L 3250 1669 
L 3250 1291 
z
" transform="scale(0.015625)"/>
      <path id="TimesNewRomanPS-BoldMT-52" d="M 1700 1931 
L 1700 744 
Q 1700 400 1742 311 
Q 1784 222 1890 169 
Q 1997 116 2288 116 
L 2288 0 
L 119 0 
L 119 116 
Q 413 116 517 170 
Q 622 225 664 312 
Q 706 400 706 744 
L 706 3494 
Q 706 3838 664 3927 
Q 622 4016 515 4069 
Q 409 4122 119 4122 
L 119 4238 
L 2088 4238 
Q 2856 4238 3212 4131 
Q 3569 4025 3794 3739 
Q 4019 3453 4019 3069 
Q 4019 2600 3681 2294 
Q 3466 2100 3078 2003 
L 4097 569 
Q 4297 291 4381 222 
Q 4509 125 4678 116 
L 4678 0 
L 3344 0 
L 1978 1931 
L 1700 1931 
z
M 1700 4009 
L 1700 2153 
L 1878 2153 
Q 2313 2153 2528 2233 
Q 2744 2313 2867 2520 
Q 2991 2728 2991 3063 
Q 2991 3547 2764 3778 
Q 2538 4009 2034 4009 
L 1700 4009 
z
" transform="scale(0.015625)"/>
      <path id="TimesNewRomanPS-BoldMT-61" d="M 1828 431 
Q 1294 -41 869 -41 
Q 619 -41 453 123 
Q 288 288 288 534 
Q 288 869 575 1136 
Q 863 1403 1828 1847 
L 1828 2141 
Q 1828 2472 1792 2558 
Q 1756 2644 1656 2708 
Q 1556 2772 1431 2772 
Q 1228 2772 1097 2681 
Q 1016 2625 1016 2550 
Q 1016 2484 1103 2388 
Q 1222 2253 1222 2128 
Q 1222 1975 1108 1867 
Q 994 1759 809 1759 
Q 613 1759 480 1878 
Q 347 1997 347 2156 
Q 347 2381 525 2586 
Q 703 2791 1022 2900 
Q 1341 3009 1684 3009 
Q 2100 3009 2342 2832 
Q 2584 2656 2656 2450 
Q 2700 2319 2700 1847 
L 2700 713 
Q 2700 513 2715 461 
Q 2731 409 2762 384 
Q 2794 359 2834 359 
Q 2916 359 3000 475 
L 3094 400 
Q 2938 169 2770 64 
Q 2603 -41 2391 -41 
Q 2141 -41 2000 76 
Q 1859 194 1828 431 
z
M 1828 659 
L 1828 1638 
Q 1450 1416 1266 1163 
Q 1144 994 1144 822 
Q 1144 678 1247 569 
Q 1325 484 1466 484 
Q 1622 484 1828 659 
z
" transform="scale(0.015625)"/>
      <path id="TimesNewRomanPS-BoldMT-6c" d="M 1359 4238 
L 1359 606 
Q 1359 297 1431 211 
Q 1503 125 1713 113 
L 1713 0 
L 134 0 
L 134 113 
Q 328 119 422 225 
Q 484 297 484 606 
L 484 3631 
Q 484 3938 412 4023 
Q 341 4109 134 4122 
L 134 4238 
L 1359 4238 
z
" transform="scale(0.015625)"/>
      <path id="TimesNewRomanPS-BoldMT-20" transform="scale(0.015625)"/>
      <path id="TimesNewRomanPS-BoldMT-43" d="M 4272 4334 
L 4272 2866 
L 4150 2866 
Q 4013 3441 3638 3747 
Q 3263 4053 2788 4053 
Q 2391 4053 2059 3825 
Q 1728 3597 1575 3228 
Q 1378 2756 1378 2178 
Q 1378 1609 1522 1142 
Q 1666 675 1972 436 
Q 2278 197 2766 197 
Q 3166 197 3498 372 
Q 3831 547 4200 975 
L 4200 609 
Q 3844 238 3458 70 
Q 3072 -97 2556 -97 
Q 1878 -97 1351 175 
Q 825 447 539 956 
Q 253 1466 253 2041 
Q 253 2647 570 3190 
Q 888 3734 1427 4034 
Q 1966 4334 2572 4334 
Q 3019 4334 3516 4141 
Q 3803 4028 3881 4028 
Q 3981 4028 4054 4101 
Q 4128 4175 4150 4334 
L 4272 4334 
z
" transform="scale(0.015625)"/>
      <path id="TimesNewRomanPS-BoldMT-75" d="M 3038 2922 
L 3038 634 
Q 3038 300 3100 217 
Q 3163 134 3353 113 
L 3353 0 
L 2163 0 
L 2163 391 
Q 1953 141 1743 26 
Q 1534 -88 1275 -88 
Q 1028 -88 836 64 
Q 644 216 578 419 
Q 513 622 513 1128 
L 513 2288 
Q 513 2619 452 2700 
Q 391 2781 197 2806 
L 197 2922 
L 1388 2922 
L 1388 925 
Q 1388 613 1417 522 
Q 1447 431 1511 384 
Q 1575 338 1659 338 
Q 1772 338 1863 397 
Q 1988 478 2163 725 
L 2163 2288 
Q 2163 2619 2102 2700 
Q 2041 2781 1847 2806 
L 1847 2922 
L 3038 2922 
z
" transform="scale(0.015625)"/>
      <path id="TimesNewRomanPS-BoldMT-76" d="M 1534 -88 
L 550 2178 
Q 372 2588 272 2697 
Q 200 2778 59 2806 
L 59 2922 
L 1613 2922 
L 1613 2806 
Q 1466 2806 1413 2753 
Q 1338 2684 1338 2591 
Q 1338 2475 1475 2156 
L 1956 1059 
L 2341 2006 
Q 2506 2413 2506 2581 
Q 2506 2678 2436 2739 
Q 2366 2800 2188 2806 
L 2188 2922 
L 3144 2922 
L 3144 2806 
Q 3006 2788 2918 2703 
Q 2831 2619 2656 2206 
L 1681 -88 
L 1534 -88 
z
" transform="scale(0.015625)"/>
      <path id="TimesNewRomanPS-BoldMT-28" d="M 2056 4334 
L 2056 4191 
Q 1731 3978 1578 3775 
Q 1366 3494 1247 3053 
Q 1097 2506 1097 1525 
Q 1097 600 1233 87 
Q 1369 -425 1603 -741 
Q 1766 -959 2056 -1125 
L 2056 -1281 
Q 1303 -1028 779 -248 
Q 256 531 256 1544 
Q 256 2544 778 3314 
Q 1300 4084 2056 4334 
z
" transform="scale(0.015625)"/>
      <path id="TimesNewRomanPS-BoldMT-6d" d="M 1428 2922 
L 1428 2538 
Q 1669 2800 1873 2904 
Q 2078 3009 2322 3009 
Q 2603 3009 2793 2878 
Q 2984 2747 3088 2478 
Q 3338 2759 3567 2884 
Q 3797 3009 4047 3009 
Q 4350 3009 4529 2870 
Q 4709 2731 4779 2517 
Q 4850 2303 4850 1834 
L 4850 638 
Q 4850 300 4911 219 
Q 4972 138 5166 113 
L 5166 0 
L 3656 0 
L 3656 113 
Q 3834 128 3919 250 
Q 3975 334 3975 638 
L 3975 1894 
Q 3975 2284 3944 2390 
Q 3913 2497 3845 2548 
Q 3778 2600 3688 2600 
Q 3553 2600 3415 2501 
Q 3278 2403 3138 2206 
L 3138 638 
Q 3138 322 3191 241 
Q 3263 125 3466 113 
L 3466 0 
L 1953 0 
L 1953 113 
Q 2075 119 2145 173 
Q 2216 228 2239 304 
Q 2263 381 2263 638 
L 2263 1894 
Q 2263 2291 2231 2391 
Q 2200 2491 2126 2547 
Q 2053 2603 1969 2603 
Q 1844 2603 1741 2538 
Q 1594 2441 1428 2206 
L 1428 638 
Q 1428 328 1489 229 
Q 1550 131 1744 113 
L 1744 0 
L 238 0 
L 238 113 
Q 422 131 500 231 
Q 553 300 553 638 
L 553 2288 
Q 553 2619 492 2700 
Q 431 2781 238 2806 
L 238 2922 
L 1428 2922 
z
" transform="scale(0.015625)"/>
      <path id="TimesNewRomanPS-BoldMT-35" d="M 975 4238 
L 2959 4238 
L 2644 3431 
L 975 3431 
L 816 3009 
Q 1894 2969 2475 2472 
Q 2953 2063 2953 1453 
Q 2953 1063 2731 689 
Q 2509 316 2106 114 
Q 1703 -88 1222 -88 
Q 703 -88 425 106 
Q 231 244 231 419 
Q 231 553 332 656 
Q 434 759 569 759 
Q 691 759 816 709 
Q 941 659 1244 447 
Q 1434 316 1572 266 
Q 1669 228 1791 228 
Q 2047 228 2226 415 
Q 2406 603 2406 866 
Q 2406 1416 1856 1759 
Q 1306 2103 469 2103 
Q 384 2103 216 2100 
L 975 4238 
z
" transform="scale(0.015625)"/>
      <path id="TimesNewRomanPS-BoldMT-66" d="M 1497 2616 
L 1497 588 
Q 1497 294 1559 219 
Q 1659 103 1928 113 
L 1928 0 
L 206 0 
L 206 113 
Q 403 116 486 158 
Q 569 200 600 275 
Q 631 350 631 588 
L 631 2616 
L 206 2616 
L 206 2922 
L 631 2922 
L 631 3138 
L 628 3284 
Q 628 3734 958 4034 
Q 1288 4334 1850 4334 
Q 2234 4334 2420 4190 
Q 2606 4047 2606 3872 
Q 2606 3731 2490 3628 
Q 2375 3525 2184 3525 
Q 2022 3525 1926 3609 
Q 1831 3694 1831 3797 
Q 1831 3825 1850 3913 
Q 1863 3966 1863 4013 
Q 1863 4078 1825 4109 
Q 1775 4156 1703 4156 
Q 1613 4156 1552 4081 
Q 1491 4006 1491 3841 
L 1497 3294 
L 1497 2922 
L 1928 2922 
L 1928 2616 
L 1497 2616 
z
" transform="scale(0.015625)"/>
      <path id="TimesNewRomanPS-BoldMT-64" d="M 3056 4238 
L 3056 875 
Q 3056 534 3075 472 
Q 3100 369 3170 319 
Q 3241 269 3416 256 
L 3416 153 
L 2181 -88 
L 2181 375 
Q 1959 106 1786 9 
Q 1613 -88 1394 -88 
Q 834 -88 509 413 
Q 247 819 247 1409 
Q 247 1881 409 2254 
Q 572 2628 855 2818 
Q 1138 3009 1463 3009 
Q 1672 3009 1834 2928 
Q 1997 2847 2181 2644 
L 2181 3525 
Q 2181 3859 2153 3928 
Q 2116 4019 2041 4062 
Q 1966 4106 1759 4106 
L 1759 4238 
L 3056 4238 
z
M 2181 2256 
Q 1950 2700 1616 2700 
Q 1500 2700 1425 2638 
Q 1309 2541 1236 2297 
Q 1163 2053 1163 1550 
Q 1163 997 1244 731 
Q 1325 466 1466 347 
Q 1538 288 1663 288 
Q 1938 288 2181 719 
L 2181 2256 
z
" transform="scale(0.015625)"/>
      <path id="TimesNewRomanPS-BoldMT-29" d="M 78 -1281 
L 78 -1138 
Q 403 -922 556 -719 
Q 766 -438 888 0 
Q 1038 550 1038 1531 
Q 1038 2456 902 2967 
Q 766 3478 531 3794 
Q 369 4013 78 4178 
L 78 4334 
Q 831 4081 1354 3301 
Q 1878 2522 1878 1509 
Q 1878 513 1354 -257 
Q 831 -1028 78 -1281 
z
" transform="scale(0.015625)"/>
     </defs>
     <use xlink:href="#TimesNewRomanPS-BoldMT-50"/>
     <use xlink:href="#TimesNewRomanPS-BoldMT-72" transform="translate(61.083984 0)"/>
     <use xlink:href="#TimesNewRomanPS-BoldMT-65" transform="translate(103.71875 0)"/>
     <use xlink:href="#TimesNewRomanPS-BoldMT-63" transform="translate(148.103516 0)"/>
     <use xlink:href="#TimesNewRomanPS-BoldMT-69" transform="translate(192.488281 0)"/>
     <use xlink:href="#TimesNewRomanPS-BoldMT-73" transform="translate(220.271484 0)"/>
     <use xlink:href="#TimesNewRomanPS-BoldMT-69" transform="translate(259.1875 0)"/>
     <use xlink:href="#TimesNewRomanPS-BoldMT-6f" transform="translate(286.970703 0)"/>
     <use xlink:href="#TimesNewRomanPS-BoldMT-6e" transform="translate(336.970703 0)"/>
     <use xlink:href="#TimesNewRomanPS-BoldMT-2013" transform="translate(392.585938 0)"/>
     <use xlink:href="#TimesNewRomanPS-BoldMT-52" transform="translate(442.585938 0)"/>
     <use xlink:href="#TimesNewRomanPS-BoldMT-65" transform="translate(514.802734 0)"/>
     <use xlink:href="#TimesNewRomanPS-BoldMT-63" transform="translate(559.1875 0)"/>
     <use xlink:href="#TimesNewRomanPS-BoldMT-61" transform="translate(603.572266 0)"/>
     <use xlink:href="#TimesNewRomanPS-BoldMT-6c" transform="translate(653.572266 0)"/>
     <use xlink:href="#TimesNewRomanPS-BoldMT-6c" transform="translate(681.355469 0)"/>
     <use xlink:href="#TimesNewRomanPS-BoldMT-20" transform="translate(709.138672 0)"/>
     <use xlink:href="#TimesNewRomanPS-BoldMT-43" transform="translate(734.138672 0)"/>
     <use xlink:href="#TimesNewRomanPS-BoldMT-75" transform="translate(806.355469 0)"/>
     <use xlink:href="#TimesNewRomanPS-BoldMT-72" transform="translate(861.970703 0)"/>
     <use xlink:href="#TimesNewRomanPS-BoldMT-76" transform="translate(906.355469 0)"/>
     <use xlink:href="#TimesNewRomanPS-BoldMT-65" transform="translate(956.355469 0)"/>
     <use xlink:href="#TimesNewRomanPS-BoldMT-73" transform="translate(1000.740234 0)"/>
     <use xlink:href="#TimesNewRomanPS-BoldMT-20" transform="translate(1039.65625 0)"/>
     <use xlink:href="#TimesNewRomanPS-BoldMT-28" transform="translate(1064.65625 0)"/>
     <use xlink:href="#TimesNewRomanPS-BoldMT-6d" transform="translate(1097.957031 0)"/>
     <use xlink:href="#TimesNewRomanPS-BoldMT-65" transform="translate(1181.257812 0)"/>
     <use xlink:href="#TimesNewRomanPS-BoldMT-61" transform="translate(1225.642578 0)"/>
     <use xlink:href="#TimesNewRomanPS-BoldMT-6e" transform="translate(1275.642578 0)"/>
     <use xlink:href="#TimesNewRomanPS-BoldMT-20" transform="translate(1331.257812 0)"/>
     <use xlink:href="#TimesNewRomanPS-BoldMT-61" transform="translate(1356.257812 0)"/>
     <use xlink:href="#TimesNewRomanPS-BoldMT-63" transform="translate(1406.257812 0)"/>
     <use xlink:href="#TimesNewRomanPS-BoldMT-72" transform="translate(1450.642578 0)"/>
     <use xlink:href="#TimesNewRomanPS-BoldMT-6f" transform="translate(1493.277344 0)"/>
     <use xlink:href="#TimesNewRomanPS-BoldMT-73" transform="translate(1543.277344 0)"/>
     <use xlink:href="#TimesNewRomanPS-BoldMT-73" transform="translate(1582.193359 0)"/>
     <use xlink:href="#TimesNewRomanPS-BoldMT-20" transform="translate(1621.109375 0)"/>
     <use xlink:href="#TimesNewRomanPS-BoldMT-35" transform="translate(1646.109375 0)"/>
     <use xlink:href="#TimesNewRomanPS-BoldMT-20" transform="translate(1696.109375 0)"/>
     <use xlink:href="#TimesNewRomanPS-BoldMT-66" transform="translate(1721.109375 0)"/>
     <use xlink:href="#TimesNewRomanPS-BoldMT-6f" transform="translate(1754.410156 0)"/>
     <use xlink:href="#TimesNewRomanPS-BoldMT-6c" transform="translate(1804.410156 0)"/>
     <use xlink:href="#TimesNewRomanPS-BoldMT-64" transform="translate(1832.193359 0)"/>
     <use xlink:href="#TimesNewRomanPS-BoldMT-73" transform="translate(1887.808594 0)"/>
     <use xlink:href="#TimesNewRomanPS-BoldMT-29" transform="translate(1926.724609 0)"/>
    </g>
   </g>
   <g id="line2d_18">
    <path d="M 34.932813 21.796452 
L 61.1504 21.796452 
L 62.692611 26.62788 
L 67.319245 25.999556 
L 68.861456 29.810727 
L 73.488089 28.918401 
L 76.572511 28.425326 
L 78.114722 31.422249 
L 82.741355 30.544657 
L 84.283566 33.126542 
L 85.825777 32.801196 
L 87.367988 34.878678 
L 88.910199 34.528927 
L 90.45241 36.260071 
L 91.994622 35.90125 
L 93.536833 37.751796 
L 95.079044 37.377435 
L 96.621255 41.209705 
L 98.163466 40.77936 
L 99.705677 43.908822 
L 102.790099 46.419147 
L 104.33231 45.938765 
L 105.874521 47.494304 
L 110.501154 46.096022 
L 113.585576 47.982271 
L 115.127787 53.645289 
L 116.669998 53.121528 
L 118.212209 53.940444 
L 122.838843 52.469853 
L 124.381054 53.265063 
L 125.923265 52.799459 
L 127.465476 55.752093 
L 129.007687 55.274402 
L 130.549898 57.012865 
L 132.092109 56.536818 
L 133.63432 57.075838 
L 135.176531 56.614738 
L 136.718742 59.811061 
L 138.260953 62.524684 
L 139.803164 62.040385 
L 141.345375 64.737752 
L 142.887586 64.241505 
L 144.429797 68.226966 
L 145.972008 67.713559 
L 147.51422 68.834591 
L 149.056431 68.330136 
L 150.598642 69.444507 
L 152.140853 68.948443 
L 153.683064 69.23663 
L 155.225275 68.754684 
L 156.767486 69.016356 
L 158.309697 68.548176 
L 159.851908 69.753546 
L 161.394119 70.006988 
L 162.93633 76.319096 
L 169.105174 74.388186 
L 170.647385 75.23482 
L 172.189596 80.786237 
L 173.731807 80.913787 
L 175.274019 84.628819 
L 176.81623 84.135806 
L 178.358441 89.27916 
L 181.442863 93.620375 
L 182.985074 94.554779 
L 184.527285 94.443716 
L 186.069496 93.940371 
L 187.611707 94.687182 
L 189.153918 94.193725 
L 190.696129 94.536388 
L 192.23834 94.053482 
L 193.780551 94.744156 
L 195.322762 94.270601 
L 196.864973 95.934767 
L 198.407184 97.151983 
L 199.949395 98.564109 
L 201.491606 98.091855 
L 203.033818 102.902443 
L 204.576029 102.416778 
L 206.11824 103.009607 
L 207.660451 105.738296 
L 209.202662 106.127967 
L 210.744873 105.650127 
L 212.287084 109.427432 
L 213.829295 109.575859 
L 215.371506 113.177786 
L 216.913717 112.697271 
L 218.455928 114.31409 
L 219.998139 114.435217 
L 221.54035 118.011465 
L 223.082561 117.53935 
L 224.624772 119.189748 
L 226.166983 118.722107 
L 227.709194 122.438597 
L 229.251405 121.974942 
L 230.793617 125.379932 
L 232.335828 124.917815 
L 233.878039 128.042002 
L 235.42025 127.582754 
L 236.962461 128.014849 
L 238.504672 127.562686 
L 240.046883 129.200441 
L 243.131305 128.701699 
L 244.673516 131.934565 
L 246.215727 131.894815 
L 247.757938 134.016888 
L 249.300149 133.582611 
L 250.84236 134.205893 
L 252.384571 133.972791 
L 253.926782 135.78888 
L 255.468993 135.364851 
L 257.011204 137.437867 
L 258.553416 137.210771 
L 260.095627 138.975717 
L 261.637838 140.498 
L 263.180049 144.70117 
L 264.72226 144.294879 
L 266.264471 146.461403 
L 267.806682 146.222254 
L 269.348893 149.615468 
L 272.433315 151.68832 
L 273.975526 151.439577 
L 275.517737 151.54695 
L 277.059948 151.441106 
L 278.602159 155.184245 
L 280.14437 157.82735 
L 281.686581 159.58053 
L 283.228792 159.207845 
L 284.771003 163.741675 
L 286.313215 163.376423 
L 287.855426 166.261712 
L 289.397637 165.902764 
L 290.939848 168.608177 
L 292.482059 168.256068 
L 294.02427 172.272883 
L 295.566481 171.92964 
L 297.108692 173.725017 
L 298.650903 173.38779 
L 300.193114 174.704916 
L 301.735325 174.372799 
L 303.277536 175.378008 
L 304.819747 175.050733 
L 306.361958 179.711293 
L 307.904169 179.394444 
L 309.44638 181.094448 
L 310.988591 180.783415 
L 312.530802 188.993561 
L 314.073014 188.700356 
L 315.615225 192.96932 
L 317.157436 192.687642 
L 318.699647 196.392608 
L 320.241858 196.122247 
L 321.784069 199.314934 
L 323.32628 199.054181 
L 324.868491 202.300096 
L 326.410702 202.049949 
L 327.952913 208.092924 
L 329.495124 207.861204 
L 331.037335 218.682303 
L 332.579546 218.486258 
L 334.121757 226.79712 
L 335.663968 226.628464 
L 337.206179 231.669771 
L 338.74839 231.51919 
L 340.290601 237.234715 
L 341.832813 243.508228 
L 341.832813 243.508228 
" clip-path="url(#pc82a8c0c55)" style="fill: none; stroke: #2166ac; stroke-width: 2.5; stroke-linecap: square"/>
   </g>
   <g id="legend_1">
    <g id="patch_5">
     <path d="M 190.346563 91.187187 
L 336.232813 91.187187 
Q 337.832813 91.187187 337.832813 89.587187 
L 337.832813 22.504687 
Q 337.832813 20.904687 336.232813 20.904687 
L 190.346563 20.904687 
Q 188.746563 20.904687 188.746563 22.504687 
L 188.746563 89.587187 
Q 188.746563 91.187187 190.346563 91.187187 
z
" style="fill: #ffffff; opacity: 0.95; stroke: #cccccc; stroke-linejoin: miter"/>
    </g>
    <g id="line2d_19">
     <path d="M 191.946563 26.904687 
L 199.946563 26.904687 
L 207.946563 26.904687 
" style="fill: none; stroke: #2166ac; stroke-width: 2.5; stroke-linecap: square"/>
    </g>
    <g id="text_17">
     <!-- Logistic Regression (AUPRC=0.679) -->
     <g transform="translate(214.346563 29.704687) scale(0.08 -0.08)">
      <defs>
       <path id="TimesNewRomanPSMT-4c" d="M 3669 1172 
L 3772 1150 
L 3409 0 
L 128 0 
L 128 116 
L 288 116 
Q 556 116 672 291 
Q 738 391 738 753 
L 738 3488 
Q 738 3884 650 3984 
Q 528 4122 288 4122 
L 128 4122 
L 128 4238 
L 2047 4238 
L 2047 4122 
Q 1709 4125 1573 4059 
Q 1438 3994 1388 3894 
Q 1338 3794 1338 3416 
L 1338 753 
Q 1338 494 1388 397 
Q 1425 331 1503 300 
Q 1581 269 1991 269 
L 2300 269 
Q 2788 269 2984 341 
Q 3181 413 3343 595 
Q 3506 778 3669 1172 
z
" transform="scale(0.015625)"/>
       <path id="TimesNewRomanPSMT-28" d="M 1988 -1253 
L 1988 -1369 
Q 1516 -1131 1200 -813 
Q 750 -359 506 256 
Q 263 872 263 1534 
Q 263 2503 741 3301 
Q 1219 4100 1988 4444 
L 1988 4313 
Q 1603 4100 1356 3731 
Q 1109 3363 987 2797 
Q 866 2231 866 1616 
Q 866 947 969 400 
Q 1050 -31 1165 -292 
Q 1281 -553 1476 -793 
Q 1672 -1034 1988 -1253 
z
" transform="scale(0.015625)"/>
       <path id="TimesNewRomanPSMT-37" d="M 644 4238 
L 2916 4238 
L 2916 4119 
L 1503 -88 
L 1153 -88 
L 2419 3728 
L 1253 3728 
Q 900 3728 750 3644 
Q 488 3500 328 3200 
L 238 3234 
L 644 4238 
z
" transform="scale(0.015625)"/>
       <path id="TimesNewRomanPSMT-39" d="M 338 -88 
L 338 28 
Q 744 34 1094 217 
Q 1444 400 1770 856 
Q 2097 1313 2225 1859 
Q 1734 1544 1338 1544 
Q 891 1544 572 1889 
Q 253 2234 253 2806 
Q 253 3363 572 3797 
Q 956 4325 1575 4325 
Q 2097 4325 2469 3894 
Q 2925 3359 2925 2575 
Q 2925 1869 2578 1258 
Q 2231 647 1613 244 
Q 1109 -88 516 -88 
L 338 -88 
z
M 2275 2091 
Q 2331 2497 2331 2741 
Q 2331 3044 2228 3395 
Q 2125 3747 1936 3934 
Q 1747 4122 1506 4122 
Q 1228 4122 1018 3872 
Q 809 3622 809 3128 
Q 809 2469 1088 2097 
Q 1291 1828 1588 1828 
Q 1731 1828 1928 1897 
Q 2125 1966 2275 2091 
z
" transform="scale(0.015625)"/>
       <path id="TimesNewRomanPSMT-29" d="M 144 4313 
L 144 4444 
Q 619 4209 934 3891 
Q 1381 3434 1625 2820 
Q 1869 2206 1869 1541 
Q 1869 572 1392 -226 
Q 916 -1025 144 -1369 
L 144 -1253 
Q 528 -1038 776 -670 
Q 1025 -303 1145 264 
Q 1266 831 1266 1447 
Q 1266 2113 1163 2663 
Q 1084 3094 967 3353 
Q 850 3613 656 3853 
Q 463 4094 144 4313 
z
" transform="scale(0.015625)"/>
      </defs>
      <use xlink:href="#TimesNewRomanPSMT-4c"/>
      <use xlink:href="#TimesNewRomanPSMT-6f" transform="translate(61.083984 0)"/>
      <use xlink:href="#TimesNewRomanPSMT-67" transform="translate(111.083984 0)"/>
      <use xlink:href="#TimesNewRomanPSMT-69" transform="translate(161.083984 0)"/>
      <use xlink:href="#TimesNewRomanPSMT-73" transform="translate(188.867188 0)"/>
      <use xlink:href="#TimesNewRomanPSMT-74" transform="translate(227.783203 0)"/>
      <use xlink:href="#TimesNewRomanPSMT-69" transform="translate(255.566406 0)"/>
      <use xlink:href="#TimesNewRomanPSMT-63" transform="translate(283.349609 0)"/>
      <use xlink:href="#TimesNewRomanPSMT-20" transform="translate(327.734375 0)"/>
      <use xlink:href="#TimesNewRomanPSMT-52" transform="translate(352.734375 0)"/>
      <use xlink:href="#TimesNewRomanPSMT-65" transform="translate(419.433594 0)"/>
      <use xlink:href="#TimesNewRomanPSMT-67" transform="translate(463.818359 0)"/>
      <use xlink:href="#TimesNewRomanPSMT-72" transform="translate(513.818359 0)"/>
      <use xlink:href="#TimesNewRomanPSMT-65" transform="translate(547.119141 0)"/>
      <use xlink:href="#TimesNewRomanPSMT-73" transform="translate(591.503906 0)"/>
      <use xlink:href="#TimesNewRomanPSMT-73" transform="translate(630.419922 0)"/>
      <use xlink:href="#TimesNewRomanPSMT-69" transform="translate(669.335938 0)"/>
      <use xlink:href="#TimesNewRomanPSMT-6f" transform="translate(697.119141 0)"/>
      <use xlink:href="#TimesNewRomanPSMT-6e" transform="translate(747.119141 0)"/>
      <use xlink:href="#TimesNewRomanPSMT-20" transform="translate(797.119141 0)"/>
      <use xlink:href="#TimesNewRomanPSMT-28" transform="translate(822.119141 0)"/>
      <use xlink:href="#TimesNewRomanPSMT-41" transform="translate(855.419922 0)"/>
      <use xlink:href="#TimesNewRomanPSMT-55" transform="translate(927.636719 0)"/>
      <use xlink:href="#TimesNewRomanPSMT-50" transform="translate(999.853516 0)"/>
      <use xlink:href="#TimesNewRomanPSMT-52" transform="translate(1055.46875 0)"/>
      <use xlink:href="#TimesNewRomanPSMT-43" transform="translate(1122.167969 0)"/>
      <use xlink:href="#TimesNewRomanPSMT-3d" transform="translate(1188.867188 0)"/>
      <use xlink:href="#TimesNewRomanPSMT-30" transform="translate(1245.263672 0)"/>
      <use xlink:href="#TimesNewRomanPSMT-2e" transform="translate(1295.263672 0)"/>
      <use xlink:href="#TimesNewRomanPSMT-36" transform="translate(1320.263672 0)"/>
      <use xlink:href="#TimesNewRomanPSMT-37" transform="translate(1370.263672 0)"/>
      <use xlink:href="#TimesNewRomanPSMT-39" transform="translate(1420.263672 0)"/>
      <use xlink:href="#TimesNewRomanPSMT-29" transform="translate(1470.263672 0)"/>
     </g>
    </g>
    <g id="line2d_20">
     <path d="M 191.946563 38.230937 
L 199.946563 38.230937 
L 207.946563 38.230937 
" style="fill: none; stroke: #4393c3; stroke-opacity: 0.85; stroke-width: 1.6; stroke-linecap: square"/>
    </g>
    <g id="text_18">
     <!-- CatBoost (AUPRC=0.660) -->
     <g transform="translate(214.346563 41.030937) scale(0.08 -0.08)">
      <defs>
       <path id="TimesNewRomanPSMT-42" d="M 2956 2163 
Q 3397 2069 3616 1863 
Q 3919 1575 3919 1159 
Q 3919 844 3719 555 
Q 3519 266 3170 133 
Q 2822 0 2106 0 
L 106 0 
L 106 116 
L 266 116 
Q 531 116 647 284 
Q 719 394 719 750 
L 719 3488 
Q 719 3881 628 3984 
Q 506 4122 266 4122 
L 106 4122 
L 106 4238 
L 1938 4238 
Q 2450 4238 2759 4163 
Q 3228 4050 3475 3764 
Q 3722 3478 3722 3106 
Q 3722 2788 3528 2536 
Q 3334 2284 2956 2163 
z
M 1319 2331 
Q 1434 2309 1582 2298 
Q 1731 2288 1909 2288 
Q 2366 2288 2595 2386 
Q 2825 2484 2947 2687 
Q 3069 2891 3069 3131 
Q 3069 3503 2766 3765 
Q 2463 4028 1881 4028 
Q 1569 4028 1319 3959 
L 1319 2331 
z
M 1319 306 
Q 1681 222 2034 222 
Q 2600 222 2897 476 
Q 3194 731 3194 1106 
Q 3194 1353 3059 1581 
Q 2925 1809 2622 1940 
Q 2319 2072 1872 2072 
Q 1678 2072 1540 2065 
Q 1403 2059 1319 2044 
L 1319 306 
z
" transform="scale(0.015625)"/>
      </defs>
      <use xlink:href="#TimesNewRomanPSMT-43"/>
      <use xlink:href="#TimesNewRomanPSMT-61" transform="translate(66.699219 0)"/>
      <use xlink:href="#TimesNewRomanPSMT-74" transform="translate(111.083984 0)"/>
      <use xlink:href="#TimesNewRomanPSMT-42" transform="translate(138.867188 0)"/>
      <use xlink:href="#TimesNewRomanPSMT-6f" transform="translate(205.566406 0)"/>
      <use xlink:href="#TimesNewRomanPSMT-6f" transform="translate(255.566406 0)"/>
      <use xlink:href="#TimesNewRomanPSMT-73" transform="translate(305.566406 0)"/>
      <use xlink:href="#TimesNewRomanPSMT-74" transform="translate(344.482422 0)"/>
      <use xlink:href="#TimesNewRomanPSMT-20" transform="translate(372.265625 0)"/>
      <use xlink:href="#TimesNewRomanPSMT-28" transform="translate(397.265625 0)"/>
      <use xlink:href="#TimesNewRomanPSMT-41" transform="translate(430.566406 0)"/>
      <use xlink:href="#TimesNewRomanPSMT-55" transform="translate(502.783203 0)"/>
      <use xlink:href="#TimesNewRomanPSMT-50" transform="translate(575 0)"/>
      <use xlink:href="#TimesNewRomanPSMT-52" transform="translate(630.615234 0)"/>
      <use xlink:href="#TimesNewRomanPSMT-43" transform="translate(697.314453 0)"/>
      <use xlink:href="#TimesNewRomanPSMT-3d" transform="translate(764.013672 0)"/>
      <use xlink:href="#TimesNewRomanPSMT-30" transform="translate(820.410156 0)"/>
      <use xlink:href="#TimesNewRomanPSMT-2e" transform="translate(870.410156 0)"/>
      <use xlink:href="#TimesNewRomanPSMT-36" transform="translate(895.410156 0)"/>
      <use xlink:href="#TimesNewRomanPSMT-36" transform="translate(945.410156 0)"/>
      <use xlink:href="#TimesNewRomanPSMT-30" transform="translate(995.410156 0)"/>
      <use xlink:href="#TimesNewRomanPSMT-29" transform="translate(1045.410156 0)"/>
     </g>
    </g>
    <g id="line2d_21">
     <path d="M 191.946563 49.542187 
L 199.946563 49.542187 
L 207.946563 49.542187 
" style="fill: none; stroke: #d6604d; stroke-opacity: 0.85; stroke-width: 1.6; stroke-linecap: square"/>
    </g>
    <g id="text_19">
     <!-- GraphSAGE (AUPRC=0.651) -->
     <g transform="translate(214.346563 52.342187) scale(0.08 -0.08)">
      <defs>
       <path id="TimesNewRomanPSMT-47" d="M 3928 4334 
L 4038 2997 
L 3928 2997 
Q 3763 3497 3500 3750 
Q 3122 4116 2528 4116 
Q 1719 4116 1297 3475 
Q 944 2934 944 2188 
Q 944 1581 1178 1081 
Q 1413 581 1792 348 
Q 2172 116 2572 116 
Q 2806 116 3025 175 
Q 3244 234 3447 350 
L 3447 1575 
Q 3447 1894 3398 1992 
Q 3350 2091 3248 2142 
Q 3147 2194 2891 2194 
L 2891 2313 
L 4531 2313 
L 4531 2194 
L 4453 2194 
Q 4209 2194 4119 2031 
Q 4056 1916 4056 1575 
L 4056 278 
Q 3697 84 3347 -6 
Q 2997 -97 2569 -97 
Q 1341 -97 703 691 
Q 225 1281 225 2053 
Q 225 2613 494 3125 
Q 813 3734 1369 4063 
Q 1834 4334 2469 4334 
Q 2700 4334 2889 4296 
Q 3078 4259 3425 4131 
Q 3600 4066 3659 4066 
Q 3719 4066 3761 4120 
Q 3803 4175 3813 4334 
L 3928 4334 
z
" transform="scale(0.015625)"/>
       <path id="TimesNewRomanPSMT-68" d="M 1041 4444 
L 1041 2350 
Q 1388 2731 1591 2839 
Q 1794 2947 1997 2947 
Q 2241 2947 2416 2812 
Q 2591 2678 2675 2391 
Q 2734 2191 2734 1659 
L 2734 647 
Q 2734 375 2778 275 
Q 2809 200 2884 156 
Q 2959 113 3159 113 
L 3159 0 
L 1753 0 
L 1753 113 
L 1819 113 
Q 2019 113 2097 173 
Q 2175 234 2206 353 
Q 2216 403 2216 647 
L 2216 1659 
Q 2216 2128 2167 2275 
Q 2119 2422 2012 2495 
Q 1906 2569 1756 2569 
Q 1603 2569 1437 2487 
Q 1272 2406 1041 2159 
L 1041 647 
Q 1041 353 1073 281 
Q 1106 209 1195 161 
Q 1284 113 1503 113 
L 1503 0 
L 84 0 
L 84 113 
Q 275 113 384 172 
Q 447 203 484 290 
Q 522 378 522 647 
L 522 3238 
Q 522 3728 498 3840 
Q 475 3953 426 3993 
Q 378 4034 297 4034 
Q 231 4034 84 3984 
L 41 4094 
L 897 4444 
L 1041 4444 
z
" transform="scale(0.015625)"/>
       <path id="TimesNewRomanPSMT-53" d="M 2934 4334 
L 2934 2869 
L 2819 2869 
Q 2763 3291 2617 3541 
Q 2472 3791 2203 3937 
Q 1934 4084 1647 4084 
Q 1322 4084 1109 3886 
Q 897 3688 897 3434 
Q 897 3241 1031 3081 
Q 1225 2847 1953 2456 
Q 2547 2138 2764 1967 
Q 2981 1797 3098 1565 
Q 3216 1334 3216 1081 
Q 3216 600 2842 251 
Q 2469 -97 1881 -97 
Q 1697 -97 1534 -69 
Q 1438 -53 1133 45 
Q 828 144 747 144 
Q 669 144 623 97 
Q 578 50 556 -97 
L 441 -97 
L 441 1356 
L 556 1356 
Q 638 900 775 673 
Q 913 447 1195 297 
Q 1478 147 1816 147 
Q 2206 147 2432 353 
Q 2659 559 2659 841 
Q 2659 997 2573 1156 
Q 2488 1316 2306 1453 
Q 2184 1547 1640 1851 
Q 1097 2156 867 2337 
Q 638 2519 519 2737 
Q 400 2956 400 3219 
Q 400 3675 750 4004 
Q 1100 4334 1641 4334 
Q 1978 4334 2356 4169 
Q 2531 4091 2603 4091 
Q 2684 4091 2736 4139 
Q 2788 4188 2819 4334 
L 2934 4334 
z
" transform="scale(0.015625)"/>
       <path id="TimesNewRomanPSMT-45" d="M 1338 4006 
L 1338 2331 
L 2269 2331 
Q 2631 2331 2753 2441 
Q 2916 2584 2934 2947 
L 3050 2947 
L 3050 1472 
L 2934 1472 
Q 2891 1781 2847 1869 
Q 2791 1978 2662 2040 
Q 2534 2103 2269 2103 
L 1338 2103 
L 1338 706 
Q 1338 425 1363 364 
Q 1388 303 1450 267 
Q 1513 231 1688 231 
L 2406 231 
Q 2766 231 2928 281 
Q 3091 331 3241 478 
Q 3434 672 3638 1063 
L 3763 1063 
L 3397 0 
L 131 0 
L 131 116 
L 281 116 
Q 431 116 566 188 
Q 666 238 702 338 
Q 738 438 738 747 
L 738 3500 
Q 738 3903 656 3997 
Q 544 4122 281 4122 
L 131 4122 
L 131 4238 
L 3397 4238 
L 3444 3309 
L 3322 3309 
Q 3256 3644 3176 3769 
Q 3097 3894 2941 3959 
Q 2816 4006 2500 4006 
L 1338 4006 
z
" transform="scale(0.015625)"/>
       <path id="TimesNewRomanPSMT-35" d="M 2778 4238 
L 2534 3706 
L 1259 3706 
L 981 3138 
Q 1809 3016 2294 2522 
Q 2709 2097 2709 1522 
Q 2709 1188 2573 903 
Q 2438 619 2231 419 
Q 2025 219 1772 97 
Q 1413 -75 1034 -75 
Q 653 -75 479 54 
Q 306 184 306 341 
Q 306 428 378 495 
Q 450 563 559 563 
Q 641 563 702 538 
Q 763 513 909 409 
Q 1144 247 1384 247 
Q 1750 247 2026 523 
Q 2303 800 2303 1197 
Q 2303 1581 2056 1914 
Q 1809 2247 1375 2428 
Q 1034 2569 447 2591 
L 1259 4238 
L 2778 4238 
z
" transform="scale(0.015625)"/>
      </defs>
      <use xlink:href="#TimesNewRomanPSMT-47"/>
      <use xlink:href="#TimesNewRomanPSMT-72" transform="translate(72.216797 0)"/>
      <use xlink:href="#TimesNewRomanPSMT-61" transform="translate(105.517578 0)"/>
      <use xlink:href="#TimesNewRomanPSMT-70" transform="translate(149.902344 0)"/>
      <use xlink:href="#TimesNewRomanPSMT-68" transform="translate(199.902344 0)"/>
      <use xlink:href="#TimesNewRomanPSMT-53" transform="translate(249.902344 0)"/>
      <use xlink:href="#TimesNewRomanPSMT-41" transform="translate(305.517578 0)"/>
      <use xlink:href="#TimesNewRomanPSMT-47" transform="translate(377.734375 0)"/>
      <use xlink:href="#TimesNewRomanPSMT-45" transform="translate(449.951172 0)"/>
      <use xlink:href="#TimesNewRomanPSMT-20" transform="translate(511.035156 0)"/>
      <use xlink:href="#TimesNewRomanPSMT-28" transform="translate(536.035156 0)"/>
      <use xlink:href="#TimesNewRomanPSMT-41" transform="translate(569.335938 0)"/>
      <use xlink:href="#TimesNewRomanPSMT-55" transform="translate(641.552734 0)"/>
      <use xlink:href="#TimesNewRomanPSMT-50" transform="translate(713.769531 0)"/>
      <use xlink:href="#TimesNewRomanPSMT-52" transform="translate(769.384766 0)"/>
      <use xlink:href="#TimesNewRomanPSMT-43" transform="translate(836.083984 0)"/>
      <use xlink:href="#TimesNewRomanPSMT-3d" transform="translate(902.783203 0)"/>
      <use xlink:href="#TimesNewRomanPSMT-30" transform="translate(959.179688 0)"/>
      <use xlink:href="#TimesNewRomanPSMT-2e" transform="translate(1009.179688 0)"/>
      <use xlink:href="#TimesNewRomanPSMT-36" transform="translate(1034.179688 0)"/>
      <use xlink:href="#TimesNewRomanPSMT-35" transform="translate(1084.179688 0)"/>
      <use xlink:href="#TimesNewRomanPSMT-31" transform="translate(1134.179688 0)"/>
      <use xlink:href="#TimesNewRomanPSMT-29" transform="translate(1184.179688 0)"/>
     </g>
    </g>
    <g id="line2d_22">
     <path d="M 191.946563 60.853437 
L 199.946563 60.853437 
L 207.946563 60.853437 
" style="fill: none; stroke: #f4a582; stroke-opacity: 0.85; stroke-width: 1.6; stroke-linecap: square"/>
    </g>
    <g id="text_20">
     <!-- R-GCN (AUPRC=0.652) -->
     <g transform="translate(214.346563 63.653437) scale(0.08 -0.08)">
      <defs>
       <path id="TimesNewRomanPSMT-4e" d="M -84 4238 
L 1066 4238 
L 3656 1059 
L 3656 3503 
Q 3656 3894 3569 3991 
Q 3453 4122 3203 4122 
L 3056 4122 
L 3056 4238 
L 4531 4238 
L 4531 4122 
L 4381 4122 
Q 4113 4122 4000 3959 
Q 3931 3859 3931 3503 
L 3931 -69 
L 3819 -69 
L 1025 3344 
L 1025 734 
Q 1025 344 1109 247 
Q 1228 116 1475 116 
L 1625 116 
L 1625 0 
L 150 0 
L 150 116 
L 297 116 
Q 569 116 681 278 
Q 750 378 750 734 
L 750 3681 
Q 566 3897 470 3965 
Q 375 4034 191 4094 
Q 100 4122 -84 4122 
L -84 4238 
z
" transform="scale(0.015625)"/>
      </defs>
      <use xlink:href="#TimesNewRomanPSMT-52"/>
      <use xlink:href="#TimesNewRomanPSMT-2d" transform="translate(66.699219 0)"/>
      <use xlink:href="#TimesNewRomanPSMT-47" transform="translate(100 0)"/>
      <use xlink:href="#TimesNewRomanPSMT-43" transform="translate(172.216797 0)"/>
      <use xlink:href="#TimesNewRomanPSMT-4e" transform="translate(238.916016 0)"/>
      <use xlink:href="#TimesNewRomanPSMT-20" transform="translate(311.132812 0)"/>
      <use xlink:href="#TimesNewRomanPSMT-28" transform="translate(336.132812 0)"/>
      <use xlink:href="#TimesNewRomanPSMT-41" transform="translate(369.433594 0)"/>
      <use xlink:href="#TimesNewRomanPSMT-55" transform="translate(441.650391 0)"/>
      <use xlink:href="#TimesNewRomanPSMT-50" transform="translate(513.867188 0)"/>
      <use xlink:href="#TimesNewRomanPSMT-52" transform="translate(569.482422 0)"/>
      <use xlink:href="#TimesNewRomanPSMT-43" transform="translate(636.181641 0)"/>
      <use xlink:href="#TimesNewRomanPSMT-3d" transform="translate(702.880859 0)"/>
      <use xlink:href="#TimesNewRomanPSMT-30" transform="translate(759.277344 0)"/>
      <use xlink:href="#TimesNewRomanPSMT-2e" transform="translate(809.277344 0)"/>
      <use xlink:href="#TimesNewRomanPSMT-36" transform="translate(834.277344 0)"/>
      <use xlink:href="#TimesNewRomanPSMT-35" transform="translate(884.277344 0)"/>
      <use xlink:href="#TimesNewRomanPSMT-32" transform="translate(934.277344 0)"/>
      <use xlink:href="#TimesNewRomanPSMT-29" transform="translate(984.277344 0)"/>
     </g>
    </g>
    <g id="line2d_23">
     <path d="M 191.946563 72.164687 
L 199.946563 72.164687 
L 207.946563 72.164687 
" style="fill: none; stroke: #b2182b; stroke-opacity: 0.85; stroke-width: 1.6; stroke-linecap: square"/>
    </g>
    <g id="text_21">
     <!-- Fusion (stack) (AUPRC=0.665) -->
     <g transform="translate(214.346563 74.964687) scale(0.08 -0.08)">
      <defs>
       <path id="TimesNewRomanPSMT-46" d="M 1309 4006 
L 1309 2341 
L 2081 2341 
Q 2347 2341 2470 2458 
Q 2594 2575 2634 2922 
L 2750 2922 
L 2750 1488 
L 2634 1488 
Q 2631 1734 2570 1850 
Q 2509 1966 2401 2023 
Q 2294 2081 2081 2081 
L 1309 2081 
L 1309 750 
Q 1309 428 1350 325 
Q 1381 247 1481 191 
Q 1619 116 1769 116 
L 1922 116 
L 1922 0 
L 103 0 
L 103 116 
L 253 116 
Q 516 116 634 269 
Q 709 369 709 750 
L 709 3488 
Q 709 3809 669 3913 
Q 638 3991 541 4047 
Q 406 4122 253 4122 
L 103 4122 
L 103 4238 
L 3256 4238 
L 3297 3306 
L 3188 3306 
Q 3106 3603 2998 3742 
Q 2891 3881 2733 3943 
Q 2575 4006 2244 4006 
L 1309 4006 
z
" transform="scale(0.015625)"/>
       <path id="TimesNewRomanPSMT-6b" d="M 1047 4444 
L 1047 1597 
L 1775 2259 
Q 2006 2472 2044 2528 
Q 2069 2566 2069 2603 
Q 2069 2666 2017 2711 
Q 1966 2756 1847 2763 
L 1847 2863 
L 3091 2863 
L 3091 2763 
Q 2834 2756 2664 2684 
Q 2494 2613 2291 2428 
L 1556 1750 
L 2291 822 
Q 2597 438 2703 334 
Q 2853 188 2966 144 
Q 3044 113 3238 113 
L 3238 0 
L 1847 0 
L 1847 113 
Q 1966 116 2008 148 
Q 2050 181 2050 241 
Q 2050 313 1925 472 
L 1047 1594 
L 1047 644 
Q 1047 366 1086 278 
Q 1125 191 1197 153 
Q 1269 116 1509 113 
L 1509 0 
L 53 0 
L 53 113 
Q 272 113 381 166 
Q 447 200 481 272 
Q 528 375 528 628 
L 528 3234 
Q 528 3731 506 3842 
Q 484 3953 434 3995 
Q 384 4038 303 4038 
Q 238 4038 106 3984 
L 53 4094 
L 903 4444 
L 1047 4444 
z
" transform="scale(0.015625)"/>
      </defs>
      <use xlink:href="#TimesNewRomanPSMT-46"/>
      <use xlink:href="#TimesNewRomanPSMT-75" transform="translate(55.615234 0)"/>
      <use xlink:href="#TimesNewRomanPSMT-73" transform="translate(105.615234 0)"/>
      <use xlink:href="#TimesNewRomanPSMT-69" transform="translate(144.53125 0)"/>
      <use xlink:href="#TimesNewRomanPSMT-6f" transform="translate(172.314453 0)"/>
      <use xlink:href="#TimesNewRomanPSMT-6e" transform="translate(222.314453 0)"/>
      <use xlink:href="#TimesNewRomanPSMT-20" transform="translate(272.314453 0)"/>
      <use xlink:href="#TimesNewRomanPSMT-28" transform="translate(297.314453 0)"/>
      <use xlink:href="#TimesNewRomanPSMT-73" transform="translate(330.615234 0)"/>
      <use xlink:href="#TimesNewRomanPSMT-74" transform="translate(369.53125 0)"/>
      <use xlink:href="#TimesNewRomanPSMT-61" transform="translate(397.314453 0)"/>
      <use xlink:href="#TimesNewRomanPSMT-63" transform="translate(441.699219 0)"/>
      <use xlink:href="#TimesNewRomanPSMT-6b" transform="translate(486.083984 0)"/>
      <use xlink:href="#TimesNewRomanPSMT-29" transform="translate(536.083984 0)"/>
      <use xlink:href="#TimesNewRomanPSMT-20" transform="translate(569.384766 0)"/>
      <use xlink:href="#TimesNewRomanPSMT-28" transform="translate(594.384766 0)"/>
      <use xlink:href="#TimesNewRomanPSMT-41" transform="translate(627.685547 0)"/>
      <use xlink:href="#TimesNewRomanPSMT-55" transform="translate(699.902344 0)"/>
      <use xlink:href="#TimesNewRomanPSMT-50" transform="translate(772.119141 0)"/>
      <use xlink:href="#TimesNewRomanPSMT-52" transform="translate(827.734375 0)"/>
      <use xlink:href="#TimesNewRomanPSMT-43" transform="translate(894.433594 0)"/>
      <use xlink:href="#TimesNewRomanPSMT-3d" transform="translate(961.132812 0)"/>
      <use xlink:href="#TimesNewRomanPSMT-30" transform="translate(1017.529297 0)"/>
      <use xlink:href="#TimesNewRomanPSMT-2e" transform="translate(1067.529297 0)"/>
      <use xlink:href="#TimesNewRomanPSMT-36" transform="translate(1092.529297 0)"/>
      <use xlink:href="#TimesNewRomanPSMT-36" transform="translate(1142.529297 0)"/>
      <use xlink:href="#TimesNewRomanPSMT-35" transform="translate(1192.529297 0)"/>
      <use xlink:href="#TimesNewRomanPSMT-29" transform="translate(1242.529297 0)"/>
     </g>
    </g>
    <g id="line2d_24">
     <path d="M 191.946563 83.475937 
L 199.946563 83.475937 
L 207.946563 83.475937 
" style="fill: none; stroke-dasharray: 3.7,1.6; stroke-dashoffset: 0; stroke: #636363"/>
    </g>
    <g id="text_22">
     <!-- Prevalence (0.094) -->
     <g transform="translate(214.346563 86.275937) scale(0.08 -0.08)">
      <use xlink:href="#TimesNewRomanPSMT-50"/>
      <use xlink:href="#TimesNewRomanPSMT-72" transform="translate(55.615234 0)"/>
      <use xlink:href="#TimesNewRomanPSMT-65" transform="translate(88.916016 0)"/>
      <use xlink:href="#TimesNewRomanPSMT-76" transform="translate(133.300781 0)"/>
      <use xlink:href="#TimesNewRomanPSMT-61" transform="translate(183.300781 0)"/>
      <use xlink:href="#TimesNewRomanPSMT-6c" transform="translate(227.685547 0)"/>
      <use xlink:href="#TimesNewRomanPSMT-65" transform="translate(255.46875 0)"/>
      <use xlink:href="#TimesNewRomanPSMT-6e" transform="translate(299.853516 0)"/>
      <use xlink:href="#TimesNewRomanPSMT-63" transform="translate(349.853516 0)"/>
      <use xlink:href="#TimesNewRomanPSMT-65" transform="translate(394.238281 0)"/>
      <use xlink:href="#TimesNewRomanPSMT-20" transform="translate(438.623047 0)"/>
      <use xlink:href="#TimesNewRomanPSMT-28" transform="translate(463.623047 0)"/>
      <use xlink:href="#TimesNewRomanPSMT-30" transform="translate(496.923828 0)"/>
      <use xlink:href="#TimesNewRomanPSMT-2e" transform="translate(546.923828 0)"/>
      <use xlink:href="#TimesNewRomanPSMT-30" transform="translate(571.923828 0)"/>
      <use xlink:href="#TimesNewRomanPSMT-39" transform="translate(621.923828 0)"/>
      <use xlink:href="#TimesNewRomanPSMT-34" transform="translate(671.923828 0)"/>
      <use xlink:href="#TimesNewRomanPSMT-29" transform="translate(721.923828 0)"/>
     </g>
    </g>
   </g>
  </g>
 </g>
 <defs>
  <clipPath id="pc82a8c0c55">
   <rect x="34.932813" y="16.904687" width="306.9" height="249.48"/>
  </clipPath>
 </defs>
</svg>
