<?xml version="1.0" encoding="utf-8" standalone="no"?>
<!DOCTYPE svg PUBLIC "-//W3C//DTD SVG 1.1//EN"
  "http://www.w3.org/Graphics/SVG/1.1/DTD/svg11.dtd">
<svg xmlns:xlink="http://www.w3.org/1999/xlink" width="398.488922pt" height="260.18175pt" viewBox="0 0 398.488922 260.18175" xmlns="http://www.w3.org/2000/svg" version="1.1">
 <metadata>
  <rdf:RDF xmlns:dc="http://purl.org/dc/elements/1.1/" xmlns:cc="http://creativecommons.org/ns#" xmlns:rdf="http://www.w3.org/1999/02/22-rdf-syntax-ns#">
   <cc:Work>
    <dc:type rdf:resource="http://purl.org/dc/dcmitype/StillImage"/>
    <dc:date>2026-06-21T20:43:00.127340</dc:date>
    <dc:format>image/svg+xml</dc:format>
    <dc:creator>
     <cc:Agent>
      <dc:title>Matplotlib v3.10.8, https://matplotlib.org/</dc:title>
     </cc:Agent>
    </dc:creator>
   </cc:Work>
  </rdf:RDF>
 </metadata>
 <defs>
  <style type="text/css">*{stroke-linejoin: round; stroke-linecap: butt}</style>
 </defs>
 <g id="figure_1">
  <g id="patch_1">
   <path d="M 0 260.18175 
L 398.488922 260.18175 
L 398.488922 0 
L 0 0 
z
" style="fill: #ffffff"/>
  </g>
  <g id="axes_1">
   <g id="patch_2">
    <path d="M 9.171422 151.99419 
L 46.278422 151.99419 
Q 49.403222 151.99419 49.403222 148.88955 
L 49.403222 115.90275 
Q 49.403222 112.79811 46.278422 112.79811 
L 9.171422 112.79811 
Q 6.046622 112.79811 6.046622 115.90275 
L 6.046622 148.88955 
Q 6.046622 151.99419 9.171422 151.99419 
z
" clip-path="url(#p36a0e52a95)" style="fill: #f5f5f5; stroke: #333333; stroke-width: 0.9; stroke-linejoin: miter"/>
   </g>
   <g id="patch_3">
    <path d="M 58.275422 151.99419 
L 95.382422 151.99419 
Q 98.507222 151.99419 98.507222 148.88955 
L 98.507222 115.90275 
Q 98.507222 112.79811 95.382422 112.79811 
L 58.275422 112.79811 
Q 55.150622 112.79811 55.150622 115.90275 
L 55.150622 148.88955 
Q 55.150622 151.99419 58.275422 151.99419 
z
" clip-path="url(#p36a0e52a95)" style="fill: #e8f1fa; stroke: #e66101; stroke-width: 1.2; stroke-linejoin: miter"/>
   </g>
   <g id="patch_4">
    <path d="M 107.379422 151.99419 
L 144.486422 151.99419 
Q 147.611222 151.99419 147.611222 148.88955 
L 147.611222 115.90275 
Q 147.611222 112.79811 144.486422 112.79811 
L 107.379422 112.79811 
Q 104.254622 112.79811 104.254622 115.90275 
L 104.254622 148.88955 
Q 104.254622 151.99419 107.379422 151.99419 
z
" clip-path="url(#p36a0e52a95)" style="fill: #e8f1fa; stroke: #e66101; stroke-width: 1.2; stroke-linejoin: miter"/>
   </g>
   <g id="patch_5">
    <path d="M 156.483422 151.99419 
L 193.590422 151.99419 
Q 196.715222 151.99419 196.715222 148.88955 
L 196.715222 115.90275 
Q 196.715222 112.79811 193.590422 112.79811 
L 156.483422 112.79811 
Q 153.358622 112.79811 153.358622 115.90275 
L 153.358622 148.88955 
Q 153.358622 151.99419 156.483422 151.99419 
z
" clip-path="url(#p36a0e52a95)" style="fill: #f5f5f5; stroke: #333333; stroke-width: 0.9; stroke-linejoin: miter"/>
   </g>
   <g id="patch_6">
    <path d="M 205.587422 151.99419 
L 242.694422 151.99419 
Q 245.819222 151.99419 245.819222 148.88955 
L 245.819222 115.90275 
Q 245.819222 112.79811 242.694422 112.79811 
L 205.587422 112.79811 
Q 202.462622 112.79811 202.462622 115.90275 
L 202.462622 148.88955 
Q 202.462622 151.99419 205.587422 151.99419 
z
" clip-path="url(#p36a0e52a95)" style="fill: #e8f1fa; stroke: #e66101; stroke-width: 1.2; stroke-linejoin: miter"/>
   </g>
   <g id="patch_7">
    <path d="M 254.691422 151.99419 
L 291.798422 151.99419 
Q 294.923222 151.99419 294.923222 148.88955 
L 294.923222 115.90275 
Q 294.923222 112.79811 291.798422 112.79811 
L 254.691422 112.79811 
Q 251.566622 112.79811 251.566622 115.90275 
L 251.566622 148.88955 
Q 251.566622 151.99419 254.691422 151.99419 
z
" clip-path="url(#p36a0e52a95)" style="fill: #e8f1fa; stroke: #e66101; stroke-width: 1.2; stroke-linejoin: miter"/>
   </g>
   <g id="patch_8">
    <path d="M 303.795422 151.99419 
L 340.902422 151.99419 
Q 344.027222 151.99419 344.027222 148.88955 
L 344.027222 115.90275 
Q 344.027222 112.79811 340.902422 112.79811 
L 303.795422 112.79811 
Q 300.670622 112.79811 300.670622 115.90275 
L 300.670622 148.88955 
Q 300.670622 151.99419 303.795422 151.99419 
z
" clip-path="url(#p36a0e52a95)" style="fill: #e8f1fa; stroke: #e66101; stroke-width: 1.2; stroke-linejoin: miter"/>
   </g>
   <g id="patch_9">
    <path d="M 352.899422 151.99419 
L 390.006422 151.99419 
Q 393.131222 151.99419 393.131222 148.88955 
L 393.131222 115.90275 
Q 393.131222 112.79811 390.006422 112.79811 
L 352.899422 112.79811 
Q 349.774622 112.79811 349.774622 115.90275 
L 349.774622 148.88955 
Q 349.774622 151.99419 352.899422 151.99419 
z
" clip-path="url(#p36a0e52a95)" style="fill: #f5f5f5; stroke: #333333; stroke-width: 0.9; stroke-linejoin: miter"/>
   </g>
   <g id="text_1">
    <!-- CMS Dataset -->
    <g transform="translate(3.6 134.558259) scale(0.09 -0.09)">
     <defs>
      <path id="TimesNewRomanPSMT-43" d="M 3853 4334 
L 3950 2894 
L 3853 2894 
Q 3659 3541 3300 3825 
Q 2941 4109 2438 4109 
Q 2016 4109 1675 3895 
Q 1334 3681 1139 3212 
Q 944 2744 944 2047 
Q 944 1472 1128 1050 
Q 1313 628 1683 403 
Q 2053 178 2528 178 
Q 2941 178 3256 354 
Q 3572 531 3950 1056 
L 4047 994 
Q 3728 428 3303 165 
Q 2878 -97 2294 -97 
Q 1241 -97 663 684 
Q 231 1266 231 2053 
Q 231 2688 515 3219 
Q 800 3750 1298 4042 
Q 1797 4334 2388 4334 
Q 2847 4334 3294 4109 
Q 3425 4041 3481 4041 
Q 3566 4041 3628 4100 
Q 3709 4184 3744 4334 
L 3853 4334 
z
" transform="scale(0.015625)"/>
      <path id="TimesNewRomanPSMT-4d" d="M 2619 0 
L 981 3566 
L 981 734 
Q 981 344 1066 247 
Q 1181 116 1431 116 
L 1581 116 
L 1581 0 
L 106 0 
L 106 116 
L 256 116 
Q 525 116 638 278 
Q 706 378 706 734 
L 706 3503 
Q 706 3784 644 3909 
Q 600 4000 483 4061 
Q 366 4122 106 4122 
L 106 4238 
L 1306 4238 
L 2844 922 
L 4356 4238 
L 5556 4238 
L 5556 4122 
L 5409 4122 
Q 5138 4122 5025 3959 
Q 4956 3859 4956 3503 
L 4956 734 
Q 4956 344 5044 247 
Q 5159 116 5409 116 
L 5556 116 
L 5556 0 
L 3756 0 
L 3756 116 
L 3906 116 
Q 4178 116 4288 278 
Q 4356 378 4356 734 
L 4356 3566 
L 2722 0 
L 2619 0 
z
" transform="scale(0.015625)"/>
      <path id="TimesNewRomanPSMT-53" d="M 2934 4334 
L 2934 2869 
L 2819 2869 
Q 2763 3291 2617 3541 
Q 2472 3791 2203 3937 
Q 1934 4084 1647 4084 
Q 1322 4084 1109 3886 
Q 897 3688 897 3434 
Q 897 3241 1031 3081 
Q 1225 2847 1953 2456 
Q 2547 2138 2764 1967 
Q 2981 1797 3098 1565 
Q 3216 1334 3216 1081 
Q 3216 600 2842 251 
Q 2469 -97 1881 -97 
Q 1697 -97 1534 -69 
Q 1438 -53 1133 45 
Q 828 144 747 144 
Q 669 144 623 97 
Q 578 50 556 -97 
L 441 -97 
L 441 1356 
L 556 1356 
Q 638 900 775 673 
Q 913 447 1195 297 
Q 1478 147 1816 147 
Q 2206 147 2432 353 
Q 2659 559 2659 841 
Q 2659 997 2573 1156 
Q 2488 1316 2306 1453 
Q 2184 1547 1640 1851 
Q 1097 2156 867 2337 
Q 638 2519 519 2737 
Q 400 2956 400 3219 
Q 400 3675 750 4004 
Q 1100 4334 1641 4334 
Q 1978 4334 2356 4169 
Q 2531 4091 2603 4091 
Q 2684 4091 2736 4139 
Q 2788 4188 2819 4334 
L 2934 4334 
z
" transform="scale(0.015625)"/>
      <path id="TimesNewRomanPSMT-20" transform="scale(0.015625)"/>
      <path id="TimesNewRomanPSMT-44" d="M 109 0 
L 109 116 
L 269 116 
Q 538 116 650 288 
Q 719 391 719 750 
L 719 3488 
Q 719 3884 631 3984 
Q 509 4122 269 4122 
L 109 4122 
L 109 4238 
L 1834 4238 
Q 2784 4238 3279 4022 
Q 3775 3806 4076 3303 
Q 4378 2800 4378 2141 
Q 4378 1256 3841 663 
Q 3238 0 2003 0 
L 109 0 
z
M 1319 306 
Q 1716 219 1984 219 
Q 2709 219 3187 728 
Q 3666 1238 3666 2109 
Q 3666 2988 3187 3494 
Q 2709 4000 1959 4000 
Q 1678 4000 1319 3909 
L 1319 306 
z
" transform="scale(0.015625)"/>
      <path id="TimesNewRomanPSMT-61" d="M 1822 413 
Q 1381 72 1269 19 
Q 1100 -59 909 -59 
Q 613 -59 420 144 
Q 228 347 228 678 
Q 228 888 322 1041 
Q 450 1253 767 1440 
Q 1084 1628 1822 1897 
L 1822 2009 
Q 1822 2438 1686 2597 
Q 1550 2756 1291 2756 
Q 1094 2756 978 2650 
Q 859 2544 859 2406 
L 866 2225 
Q 866 2081 792 2003 
Q 719 1925 600 1925 
Q 484 1925 411 2006 
Q 338 2088 338 2228 
Q 338 2497 613 2722 
Q 888 2947 1384 2947 
Q 1766 2947 2009 2819 
Q 2194 2722 2281 2516 
Q 2338 2381 2338 1966 
L 2338 994 
Q 2338 584 2353 492 
Q 2369 400 2405 369 
Q 2441 338 2488 338 
Q 2538 338 2575 359 
Q 2641 400 2828 588 
L 2828 413 
Q 2478 -56 2159 -56 
Q 2006 -56 1915 50 
Q 1825 156 1822 413 
z
M 1822 616 
L 1822 1706 
Q 1350 1519 1213 1441 
Q 966 1303 859 1153 
Q 753 1003 753 825 
Q 753 600 887 451 
Q 1022 303 1197 303 
Q 1434 303 1822 616 
z
" transform="scale(0.015625)"/>
      <path id="TimesNewRomanPSMT-74" d="M 1031 3803 
L 1031 2863 
L 1700 2863 
L 1700 2644 
L 1031 2644 
L 1031 788 
Q 1031 509 1111 412 
Q 1191 316 1316 316 
Q 1419 316 1516 380 
Q 1613 444 1666 569 
L 1788 569 
Q 1678 263 1478 108 
Q 1278 -47 1066 -47 
Q 922 -47 784 33 
Q 647 113 581 261 
Q 516 409 516 719 
L 516 2644 
L 63 2644 
L 63 2747 
Q 234 2816 414 2980 
Q 594 3144 734 3369 
Q 806 3488 934 3803 
L 1031 3803 
z
" transform="scale(0.015625)"/>
      <path id="TimesNewRomanPSMT-73" d="M 2050 2947 
L 2050 1972 
L 1947 1972 
Q 1828 2431 1642 2597 
Q 1456 2763 1169 2763 
Q 950 2763 815 2647 
Q 681 2531 681 2391 
Q 681 2216 781 2091 
Q 878 1963 1175 1819 
L 1631 1597 
Q 2266 1288 2266 781 
Q 2266 391 1970 151 
Q 1675 -88 1309 -88 
Q 1047 -88 709 6 
Q 606 38 541 38 
Q 469 38 428 -44 
L 325 -44 
L 325 978 
L 428 978 
Q 516 541 762 319 
Q 1009 97 1316 97 
Q 1531 97 1667 223 
Q 1803 350 1803 528 
Q 1803 744 1651 891 
Q 1500 1038 1047 1263 
Q 594 1488 453 1669 
Q 313 1847 313 2119 
Q 313 2472 555 2709 
Q 797 2947 1181 2947 
Q 1350 2947 1591 2875 
Q 1750 2828 1803 2828 
Q 1853 2828 1881 2850 
Q 1909 2872 1947 2947 
L 2050 2947 
z
" transform="scale(0.015625)"/>
      <path id="TimesNewRomanPSMT-65" d="M 681 1784 
Q 678 1147 991 784 
Q 1303 422 1725 422 
Q 2006 422 2214 576 
Q 2422 731 2563 1106 
L 2659 1044 
Q 2594 616 2278 264 
Q 1963 -88 1488 -88 
Q 972 -88 605 314 
Q 238 716 238 1394 
Q 238 2128 614 2539 
Q 991 2950 1559 2950 
Q 2041 2950 2350 2633 
Q 2659 2316 2659 1784 
L 681 1784 
z
M 681 1966 
L 2006 1966 
Q 1991 2241 1941 2353 
Q 1863 2528 1708 2628 
Q 1553 2728 1384 2728 
Q 1125 2728 920 2526 
Q 716 2325 681 1966 
z
" transform="scale(0.015625)"/>
     </defs>
     <use xlink:href="#TimesNewRomanPSMT-43"/>
     <use xlink:href="#TimesNewRomanPSMT-4d" transform="translate(66.699219 0)"/>
     <use xlink:href="#TimesNewRomanPSMT-53" transform="translate(155.615234 0)"/>
     <use xlink:href="#TimesNewRomanPSMT-20" transform="translate(211.230469 0)"/>
     <use xlink:href="#TimesNewRomanPSMT-44" transform="translate(236.230469 0)"/>
     <use xlink:href="#TimesNewRomanPSMT-61" transform="translate(308.447266 0)"/>
     <use xlink:href="#TimesNewRomanPSMT-74" transform="translate(352.832031 0)"/>
     <use xlink:href="#TimesNewRomanPSMT-61" transform="translate(380.615234 0)"/>
     <use xlink:href="#TimesNewRomanPSMT-73" transform="translate(425 0)"/>
     <use xlink:href="#TimesNewRomanPSMT-65" transform="translate(463.916016 0)"/>
     <use xlink:href="#TimesNewRomanPSMT-74" transform="translate(508.300781 0)"/>
    </g>
   </g>
   <g id="patch_10">
    <path d="M 52.182923 132.39615 
Q 52.274739 132.39615 50.91311 132.39615 
" style="fill: none; stroke: #444444; stroke-width: 1.3; stroke-linecap: round"/>
    <path d="M 46.91311 130.39615 
L 50.91311 132.39615 
L 46.91311 134.39615 
z
" style="fill: #444444; stroke: #444444; stroke-width: 1.3; stroke-linecap: round"/>
   </g>
   <g id="text_2">
    <!-- Data -->
    <g transform="translate(68.333766 129.837619) scale(0.09 -0.09)">
     <use xlink:href="#TimesNewRomanPSMT-44"/>
     <use xlink:href="#TimesNewRomanPSMT-61" transform="translate(72.216797 0)"/>
     <use xlink:href="#TimesNewRomanPSMT-74" transform="translate(116.601562 0)"/>
     <use xlink:href="#TimesNewRomanPSMT-61" transform="translate(144.384766 0)"/>
    </g>
    <!-- Processing -->
    <g transform="translate(57.329859 139.262025) scale(0.09 -0.09)">
     <defs>
      <path id="TimesNewRomanPSMT-50" d="M 1313 1984 
L 1313 750 
Q 1313 350 1400 253 
Q 1519 116 1759 116 
L 1922 116 
L 1922 0 
L 106 0 
L 106 116 
L 266 116 
Q 534 116 650 291 
Q 713 388 713 750 
L 713 3488 
Q 713 3888 628 3984 
Q 506 4122 266 4122 
L 106 4122 
L 106 4238 
L 1659 4238 
Q 2228 4238 2556 4120 
Q 2884 4003 3109 3725 
Q 3334 3447 3334 3066 
Q 3334 2547 2992 2222 
Q 2650 1897 2025 1897 
Q 1872 1897 1694 1919 
Q 1516 1941 1313 1984 
z
M 1313 2163 
Q 1478 2131 1606 2115 
Q 1734 2100 1825 2100 
Q 2150 2100 2386 2351 
Q 2622 2603 2622 3003 
Q 2622 3278 2509 3514 
Q 2397 3750 2190 3867 
Q 1984 3984 1722 3984 
Q 1563 3984 1313 3925 
L 1313 2163 
z
" transform="scale(0.015625)"/>
      <path id="TimesNewRomanPSMT-72" d="M 1038 2947 
L 1038 2303 
Q 1397 2947 1775 2947 
Q 1947 2947 2059 2842 
Q 2172 2738 2172 2600 
Q 2172 2478 2090 2393 
Q 2009 2309 1897 2309 
Q 1788 2309 1652 2417 
Q 1516 2525 1450 2525 
Q 1394 2525 1328 2463 
Q 1188 2334 1038 2041 
L 1038 669 
Q 1038 431 1097 309 
Q 1138 225 1241 169 
Q 1344 113 1538 113 
L 1538 0 
L 72 0 
L 72 113 
Q 291 113 397 181 
Q 475 231 506 341 
Q 522 394 522 644 
L 522 1753 
Q 522 2253 501 2348 
Q 481 2444 426 2487 
Q 372 2531 291 2531 
Q 194 2531 72 2484 
L 41 2597 
L 906 2947 
L 1038 2947 
z
" transform="scale(0.015625)"/>
      <path id="TimesNewRomanPSMT-6f" d="M 1600 2947 
Q 2250 2947 2644 2453 
Q 2978 2031 2978 1484 
Q 2978 1100 2793 706 
Q 2609 313 2286 112 
Q 1963 -88 1566 -88 
Q 919 -88 538 428 
Q 216 863 216 1403 
Q 216 1797 411 2186 
Q 606 2575 925 2761 
Q 1244 2947 1600 2947 
z
M 1503 2744 
Q 1338 2744 1170 2645 
Q 1003 2547 900 2300 
Q 797 2053 797 1666 
Q 797 1041 1045 587 
Q 1294 134 1700 134 
Q 2003 134 2200 384 
Q 2397 634 2397 1244 
Q 2397 2006 2069 2444 
Q 1847 2744 1503 2744 
z
" transform="scale(0.015625)"/>
      <path id="TimesNewRomanPSMT-63" d="M 2631 1088 
Q 2516 522 2178 217 
Q 1841 -88 1431 -88 
Q 944 -88 581 321 
Q 219 731 219 1428 
Q 219 2103 620 2525 
Q 1022 2947 1584 2947 
Q 2006 2947 2278 2723 
Q 2550 2500 2550 2259 
Q 2550 2141 2473 2067 
Q 2397 1994 2259 1994 
Q 2075 1994 1981 2113 
Q 1928 2178 1911 2362 
Q 1894 2547 1784 2644 
Q 1675 2738 1481 2738 
Q 1169 2738 978 2506 
Q 725 2200 725 1697 
Q 725 1184 976 792 
Q 1228 400 1656 400 
Q 1963 400 2206 609 
Q 2378 753 2541 1131 
L 2631 1088 
z
" transform="scale(0.015625)"/>
      <path id="TimesNewRomanPSMT-69" d="M 928 4444 
Q 1059 4444 1151 4351 
Q 1244 4259 1244 4128 
Q 1244 3997 1151 3903 
Q 1059 3809 928 3809 
Q 797 3809 703 3903 
Q 609 3997 609 4128 
Q 609 4259 701 4351 
Q 794 4444 928 4444 
z
M 1188 2947 
L 1188 647 
Q 1188 378 1227 289 
Q 1266 200 1342 156 
Q 1419 113 1622 113 
L 1622 0 
L 231 0 
L 231 113 
Q 441 113 512 153 
Q 584 194 626 287 
Q 669 381 669 647 
L 669 1750 
Q 669 2216 641 2353 
Q 619 2453 572 2492 
Q 525 2531 444 2531 
Q 356 2531 231 2484 
L 188 2597 
L 1050 2947 
L 1188 2947 
z
" transform="scale(0.015625)"/>
      <path id="TimesNewRomanPSMT-6e" d="M 1034 2341 
Q 1538 2947 1994 2947 
Q 2228 2947 2397 2830 
Q 2566 2713 2666 2444 
Q 2734 2256 2734 1869 
L 2734 647 
Q 2734 375 2778 278 
Q 2813 200 2889 156 
Q 2966 113 3172 113 
L 3172 0 
L 1756 0 
L 1756 113 
L 1816 113 
Q 2016 113 2095 173 
Q 2175 234 2206 353 
Q 2219 400 2219 647 
L 2219 1819 
Q 2219 2209 2117 2386 
Q 2016 2563 1775 2563 
Q 1403 2563 1034 2156 
L 1034 647 
Q 1034 356 1069 288 
Q 1113 197 1189 155 
Q 1266 113 1500 113 
L 1500 0 
L 84 0 
L 84 113 
L 147 113 
Q 366 113 442 223 
Q 519 334 519 647 
L 519 1709 
Q 519 2225 495 2337 
Q 472 2450 423 2490 
Q 375 2531 294 2531 
Q 206 2531 84 2484 
L 38 2597 
L 900 2947 
L 1034 2947 
L 1034 2341 
z
" transform="scale(0.015625)"/>
      <path id="TimesNewRomanPSMT-67" d="M 966 1044 
Q 703 1172 562 1401 
Q 422 1631 422 1909 
Q 422 2334 742 2640 
Q 1063 2947 1563 2947 
Q 1972 2947 2272 2747 
L 2878 2747 
Q 3013 2747 3034 2739 
Q 3056 2731 3066 2713 
Q 3084 2684 3084 2613 
Q 3084 2531 3069 2500 
Q 3059 2484 3036 2475 
Q 3013 2466 2878 2466 
L 2506 2466 
Q 2681 2241 2681 1891 
Q 2681 1491 2375 1206 
Q 2069 922 1553 922 
Q 1341 922 1119 984 
Q 981 866 932 777 
Q 884 688 884 625 
Q 884 572 936 522 
Q 988 472 1138 450 
Q 1225 438 1575 428 
Q 2219 413 2409 384 
Q 2700 344 2873 169 
Q 3047 -6 3047 -263 
Q 3047 -616 2716 -925 
Q 2228 -1381 1444 -1381 
Q 841 -1381 425 -1109 
Q 191 -953 191 -784 
Q 191 -709 225 -634 
Q 278 -519 444 -313 
Q 466 -284 763 25 
Q 600 122 533 198 
Q 466 275 466 372 
Q 466 481 555 628 
Q 644 775 966 1044 
z
M 1509 2797 
Q 1278 2797 1122 2612 
Q 966 2428 966 2047 
Q 966 1553 1178 1281 
Q 1341 1075 1591 1075 
Q 1828 1075 1981 1253 
Q 2134 1431 2134 1813 
Q 2134 2309 1919 2591 
Q 1759 2797 1509 2797 
z
M 934 0 
Q 788 -159 713 -296 
Q 638 -434 638 -550 
Q 638 -700 819 -813 
Q 1131 -1006 1722 -1006 
Q 2284 -1006 2551 -807 
Q 2819 -609 2819 -384 
Q 2819 -222 2659 -153 
Q 2497 -84 2016 -72 
Q 1313 -53 934 0 
z
" transform="scale(0.015625)"/>
     </defs>
     <use xlink:href="#TimesNewRomanPSMT-50"/>
     <use xlink:href="#TimesNewRomanPSMT-72" transform="translate(55.615234 0)"/>
     <use xlink:href="#TimesNewRomanPSMT-6f" transform="translate(88.916016 0)"/>
     <use xlink:href="#TimesNewRomanPSMT-63" transform="translate(138.916016 0)"/>
     <use xlink:href="#TimesNewRomanPSMT-65" transform="translate(183.300781 0)"/>
     <use xlink:href="#TimesNewRomanPSMT-73" transform="translate(227.685547 0)"/>
     <use xlink:href="#TimesNewRomanPSMT-73" transform="translate(266.601562 0)"/>
     <use xlink:href="#TimesNewRomanPSMT-69" transform="translate(305.517578 0)"/>
     <use xlink:href="#TimesNewRomanPSMT-6e" transform="translate(333.300781 0)"/>
     <use xlink:href="#TimesNewRomanPSMT-67" transform="translate(383.300781 0)"/>
    </g>
   </g>
   <g id="text_3">
    <!-- G1 -->
    <g style="fill: #e66101" transform="translate(71.717672 105.26566) scale(0.08 -0.08)">
     <defs>
      <path id="TimesNewRomanPS-BoldMT-47" d="M 4416 4334 
L 4416 2841 
L 4300 2841 
Q 4091 3453 3672 3772 
Q 3253 4091 2756 4091 
Q 2281 4091 1965 3823 
Q 1650 3556 1519 3078 
Q 1388 2600 1388 2097 
Q 1388 1488 1531 1028 
Q 1675 569 1995 353 
Q 2316 138 2756 138 
Q 2909 138 3070 170 
Q 3231 203 3400 266 
L 3400 1147 
Q 3400 1397 3365 1470 
Q 3331 1544 3223 1603 
Q 3116 1663 2963 1663 
L 2853 1663 
L 2853 1778 
L 4913 1778 
L 4913 1663 
Q 4678 1647 4586 1598 
Q 4494 1550 4444 1438 
Q 4416 1378 4416 1147 
L 4416 266 
Q 4009 84 3570 -8 
Q 3131 -100 2659 -100 
Q 2056 -100 1657 64 
Q 1259 228 954 495 
Q 650 763 478 1097 
Q 259 1528 259 2063 
Q 259 3019 931 3678 
Q 1603 4338 2622 4338 
Q 2938 4338 3191 4288 
Q 3328 4263 3636 4145 
Q 3944 4028 4000 4028 
Q 4088 4028 4163 4092 
Q 4238 4156 4300 4334 
L 4416 4334 
z
" transform="scale(0.015625)"/>
      <path id="TimesNewRomanPS-BoldMT-31" d="M 2084 4325 
L 2084 859 
Q 2084 469 2118 361 
Q 2153 253 2262 184 
Q 2372 116 2613 116 
L 2709 116 
L 2709 0 
L 478 0 
L 478 116 
L 591 116 
Q 863 116 978 178 
Q 1094 241 1134 350 
Q 1175 459 1175 859 
L 1175 3056 
Q 1175 3350 1147 3423 
Q 1119 3497 1042 3548 
Q 966 3600 866 3600 
Q 706 3600 478 3500 
L 422 3613 
L 1981 4325 
L 2084 4325 
z
" transform="scale(0.015625)"/>
     </defs>
     <use xlink:href="#TimesNewRomanPS-BoldMT-47"/>
     <use xlink:href="#TimesNewRomanPS-BoldMT-31" transform="translate(77.783203 0)"/>
    </g>
   </g>
   <g id="patch_11">
    <path d="M 101.286923 132.39615 
Q 101.378739 132.39615 100.01711 132.39615 
" style="fill: none; stroke: #444444; stroke-width: 1.3; stroke-linecap: round"/>
    <path d="M 96.01711 130.39615 
L 100.01711 132.39615 
L 96.01711 134.39615 
z
" style="fill: #444444; stroke: #444444; stroke-width: 1.3; stroke-linecap: round"/>
   </g>
   <g id="text_4">
    <!-- Graph -->
    <g transform="translate(114.687141 129.846056) scale(0.09 -0.09)">
     <defs>
      <path id="TimesNewRomanPSMT-47" d="M 3928 4334 
L 4038 2997 
L 3928 2997 
Q 3763 3497 3500 3750 
Q 3122 4116 2528 4116 
Q 1719 4116 1297 3475 
Q 944 2934 944 2188 
Q 944 1581 1178 1081 
Q 1413 581 1792 348 
Q 2172 116 2572 116 
Q 2806 116 3025 175 
Q 3244 234 3447 350 
L 3447 1575 
Q 3447 1894 3398 1992 
Q 3350 2091 3248 2142 
Q 3147 2194 2891 2194 
L 2891 2313 
L 4531 2313 
L 4531 2194 
L 4453 2194 
Q 4209 2194 4119 2031 
Q 4056 1916 4056 1575 
L 4056 278 
Q 3697 84 3347 -6 
Q 2997 -97 2569 -97 
Q 1341 -97 703 691 
Q 225 1281 225 2053 
Q 225 2613 494 3125 
Q 813 3734 1369 4063 
Q 1834 4334 2469 4334 
Q 2700 4334 2889 4296 
Q 3078 4259 3425 4131 
Q 3600 4066 3659 4066 
Q 3719 4066 3761 4120 
Q 3803 4175 3813 4334 
L 3928 4334 
z
" transform="scale(0.015625)"/>
      <path id="TimesNewRomanPSMT-70" d="M -6 2578 
L 875 2934 
L 994 2934 
L 994 2266 
Q 1216 2644 1439 2795 
Q 1663 2947 1909 2947 
Q 2341 2947 2628 2609 
Q 2981 2197 2981 1534 
Q 2981 794 2556 309 
Q 2206 -88 1675 -88 
Q 1444 -88 1275 -22 
Q 1150 25 994 166 
L 994 -706 
Q 994 -1000 1030 -1079 
Q 1066 -1159 1155 -1206 
Q 1244 -1253 1478 -1253 
L 1478 -1369 
L -22 -1369 
L -22 -1253 
L 56 -1253 
Q 228 -1256 350 -1188 
Q 409 -1153 442 -1076 
Q 475 -1000 475 -688 
L 475 2019 
Q 475 2297 450 2372 
Q 425 2447 370 2484 
Q 316 2522 222 2522 
Q 147 2522 31 2478 
L -6 2578 
z
M 994 2081 
L 994 1013 
Q 994 666 1022 556 
Q 1066 375 1236 237 
Q 1406 100 1666 100 
Q 1978 100 2172 344 
Q 2425 663 2425 1241 
Q 2425 1897 2138 2250 
Q 1938 2494 1663 2494 
Q 1513 2494 1366 2419 
Q 1253 2363 994 2081 
z
" transform="scale(0.015625)"/>
      <path id="TimesNewRomanPSMT-68" d="M 1041 4444 
L 1041 2350 
Q 1388 2731 1591 2839 
Q 1794 2947 1997 2947 
Q 2241 2947 2416 2812 
Q 2591 2678 2675 2391 
Q 2734 2191 2734 1659 
L 2734 647 
Q 2734 375 2778 275 
Q 2809 200 2884 156 
Q 2959 113 3159 113 
L 3159 0 
L 1753 0 
L 1753 113 
L 1819 113 
Q 2019 113 2097 173 
Q 2175 234 2206 353 
Q 2216 403 2216 647 
L 2216 1659 
Q 2216 2128 2167 2275 
Q 2119 2422 2012 2495 
Q 1906 2569 1756 2569 
Q 1603 2569 1437 2487 
Q 1272 2406 1041 2159 
L 1041 647 
Q 1041 353 1073 281 
Q 1106 209 1195 161 
Q 1284 113 1503 113 
L 1503 0 
L 84 0 
L 84 113 
Q 275 113 384 172 
Q 447 203 484 290 
Q 522 378 522 647 
L 522 3238 
Q 522 3728 498 3840 
Q 475 3953 426 3993 
Q 378 4034 297 4034 
Q 231 4034 84 3984 
L 41 4094 
L 897 4444 
L 1041 4444 
z
" transform="scale(0.015625)"/>
     </defs>
     <use xlink:href="#TimesNewRomanPSMT-47"/>
     <use xlink:href="#TimesNewRomanPSMT-72" transform="translate(72.216797 0)"/>
     <use xlink:href="#TimesNewRomanPSMT-61" transform="translate(105.517578 0)"/>
     <use xlink:href="#TimesNewRomanPSMT-70" transform="translate(149.902344 0)"/>
     <use xlink:href="#TimesNewRomanPSMT-68" transform="translate(199.902344 0)"/>
    </g>
    <!-- Construction -->
    <g transform="translate(102.683391 139.270463) scale(0.09 -0.09)">
     <defs>
      <path id="TimesNewRomanPSMT-75" d="M 2709 2863 
L 2709 1128 
Q 2709 631 2732 520 
Q 2756 409 2807 365 
Q 2859 322 2928 322 
Q 3025 322 3147 375 
L 3191 266 
L 2334 -88 
L 2194 -88 
L 2194 519 
Q 1825 119 1631 15 
Q 1438 -88 1222 -88 
Q 981 -88 804 51 
Q 628 191 559 409 
Q 491 628 491 1028 
L 491 2306 
Q 491 2509 447 2587 
Q 403 2666 317 2708 
Q 231 2750 6 2747 
L 6 2863 
L 1009 2863 
L 1009 947 
Q 1009 547 1148 422 
Q 1288 297 1484 297 
Q 1619 297 1789 381 
Q 1959 466 2194 703 
L 2194 2325 
Q 2194 2569 2105 2655 
Q 2016 2741 1734 2747 
L 1734 2863 
L 2709 2863 
z
" transform="scale(0.015625)"/>
     </defs>
     <use xlink:href="#TimesNewRomanPSMT-43"/>
     <use xlink:href="#TimesNewRomanPSMT-6f" transform="translate(66.699219 0)"/>
     <use xlink:href="#TimesNewRomanPSMT-6e" transform="translate(116.699219 0)"/>
     <use xlink:href="#TimesNewRomanPSMT-73" transform="translate(166.699219 0)"/>
     <use xlink:href="#TimesNewRomanPSMT-74" transform="translate(205.615234 0)"/>
     <use xlink:href="#TimesNewRomanPSMT-72" transform="translate(233.398438 0)"/>
     <use xlink:href="#TimesNewRomanPSMT-75" transform="translate(266.699219 0)"/>
     <use xlink:href="#TimesNewRomanPSMT-63" transform="translate(316.699219 0)"/>
     <use xlink:href="#TimesNewRomanPSMT-74" transform="translate(361.083984 0)"/>
     <use xlink:href="#TimesNewRomanPSMT-69" transform="translate(388.867188 0)"/>
     <use xlink:href="#TimesNewRomanPSMT-6f" transform="translate(416.650391 0)"/>
     <use xlink:href="#TimesNewRomanPSMT-6e" transform="translate(466.650391 0)"/>
    </g>
   </g>
   <g id="text_5">
    <!-- G2 -->
    <g style="fill: #e66101" transform="translate(120.821672 105.26566) scale(0.08 -0.08)">
     <defs>
      <path id="TimesNewRomanPS-BoldMT-32" d="M 2650 0 
L 156 0 
L 156 69 
Q 1303 1434 1548 1906 
Q 1794 2378 1794 2828 
Q 1794 3156 1591 3373 
Q 1388 3591 1094 3591 
Q 613 3591 347 3109 
L 231 3150 
Q 400 3750 744 4037 
Q 1088 4325 1538 4325 
Q 1859 4325 2125 4175 
Q 2391 4025 2541 3764 
Q 2691 3503 2691 3275 
Q 2691 2859 2459 2431 
Q 2144 1853 1081 819 
L 1997 819 
Q 2334 819 2436 847 
Q 2538 875 2603 942 
Q 2669 1009 2775 1225 
L 2888 1225 
L 2650 0 
z
" transform="scale(0.015625)"/>
     </defs>
     <use xlink:href="#TimesNewRomanPS-BoldMT-47"/>
     <use xlink:href="#TimesNewRomanPS-BoldMT-32" transform="translate(77.783203 0)"/>
    </g>
   </g>
   <g id="patch_12">
    <path d="M 150.390923 132.39615 
Q 150.482739 132.39615 149.12111 132.39615 
" style="fill: none; stroke: #444444; stroke-width: 1.3; stroke-linecap: round"/>
    <path d="M 145.12111 130.39615 
L 149.12111 132.39615 
L 145.12111 134.39615 
z
" style="fill: #444444; stroke: #444444; stroke-width: 1.3; stroke-linecap: round"/>
   </g>
   <g id="text_6">
    <!-- Feature -->
    <g transform="translate(161.54325 129.837619) scale(0.09 -0.09)">
     <defs>
      <path id="TimesNewRomanPSMT-46" d="M 1309 4006 
L 1309 2341 
L 2081 2341 
Q 2347 2341 2470 2458 
Q 2594 2575 2634 2922 
L 2750 2922 
L 2750 1488 
L 2634 1488 
Q 2631 1734 2570 1850 
Q 2509 1966 2401 2023 
Q 2294 2081 2081 2081 
L 1309 2081 
L 1309 750 
Q 1309 428 1350 325 
Q 1381 247 1481 191 
Q 1619 116 1769 116 
L 1922 116 
L 1922 0 
L 103 0 
L 103 116 
L 253 116 
Q 516 116 634 269 
Q 709 369 709 750 
L 709 3488 
Q 709 3809 669 3913 
Q 638 3991 541 4047 
Q 406 4122 253 4122 
L 103 4122 
L 103 4238 
L 3256 4238 
L 3297 3306 
L 3188 3306 
Q 3106 3603 2998 3742 
Q 2891 3881 2733 3943 
Q 2575 4006 2244 4006 
L 1309 4006 
z
" transform="scale(0.015625)"/>
     </defs>
     <use xlink:href="#TimesNewRomanPSMT-46"/>
     <use xlink:href="#TimesNewRomanPSMT-65" transform="translate(55.615234 0)"/>
     <use xlink:href="#TimesNewRomanPSMT-61" transform="translate(100 0)"/>
     <use xlink:href="#TimesNewRomanPSMT-74" transform="translate(144.384766 0)"/>
     <use xlink:href="#TimesNewRomanPSMT-75" transform="translate(172.167969 0)"/>
     <use xlink:href="#TimesNewRomanPSMT-72" transform="translate(222.167969 0)"/>
     <use xlink:href="#TimesNewRomanPSMT-65" transform="translate(255.46875 0)"/>
    </g>
    <!-- Engineering -->
    <g transform="translate(153.044578 139.262025) scale(0.09 -0.09)">
     <defs>
      <path id="TimesNewRomanPSMT-45" d="M 1338 4006 
L 1338 2331 
L 2269 2331 
Q 2631 2331 2753 2441 
Q 2916 2584 2934 2947 
L 3050 2947 
L 3050 1472 
L 2934 1472 
Q 2891 1781 2847 1869 
Q 2791 1978 2662 2040 
Q 2534 2103 2269 2103 
L 1338 2103 
L 1338 706 
Q 1338 425 1363 364 
Q 1388 303 1450 267 
Q 1513 231 1688 231 
L 2406 231 
Q 2766 231 2928 281 
Q 3091 331 3241 478 
Q 3434 672 3638 1063 
L 3763 1063 
L 3397 0 
L 131 0 
L 131 116 
L 281 116 
Q 431 116 566 188 
Q 666 238 702 338 
Q 738 438 738 747 
L 738 3500 
Q 738 3903 656 3997 
Q 544 4122 281 4122 
L 131 4122 
L 131 4238 
L 3397 4238 
L 3444 3309 
L 3322 3309 
Q 3256 3644 3176 3769 
Q 3097 3894 2941 3959 
Q 2816 4006 2500 4006 
L 1338 4006 
z
" transform="scale(0.015625)"/>
     </defs>
     <use xlink:href="#TimesNewRomanPSMT-45"/>
     <use xlink:href="#TimesNewRomanPSMT-6e" transform="translate(61.083984 0)"/>
     <use xlink:href="#TimesNewRomanPSMT-67" transform="translate(111.083984 0)"/>
     <use xlink:href="#TimesNewRomanPSMT-69" transform="translate(161.083984 0)"/>
     <use xlink:href="#TimesNewRomanPSMT-6e" transform="translate(188.867188 0)"/>
     <use xlink:href="#TimesNewRomanPSMT-65" transform="translate(238.867188 0)"/>
     <use xlink:href="#TimesNewRomanPSMT-65" transform="translate(283.251953 0)"/>
     <use xlink:href="#TimesNewRomanPSMT-72" transform="translate(327.636719 0)"/>
     <use xlink:href="#TimesNewRomanPSMT-69" transform="translate(360.9375 0)"/>
     <use xlink:href="#TimesNewRomanPSMT-6e" transform="translate(388.720703 0)"/>
     <use xlink:href="#TimesNewRomanPSMT-67" transform="translate(438.720703 0)"/>
    </g>
   </g>
   <g id="patch_13">
    <path d="M 199.494923 132.39615 
Q 199.586739 132.39615 198.22511 132.39615 
" style="fill: none; stroke: #444444; stroke-width: 1.3; stroke-linecap: round"/>
    <path d="M 194.22511 130.39615 
L 198.22511 132.39615 
L 194.22511 134.39615 
z
" style="fill: #444444; stroke: #444444; stroke-width: 1.3; stroke-linecap: round"/>
   </g>
   <g id="text_7">
    <!-- Baseline -->
    <g transform="translate(208.64475 129.846056) scale(0.09 -0.09)">
     <defs>
      <path id="TimesNewRomanPSMT-42" d="M 2956 2163 
Q 3397 2069 3616 1863 
Q 3919 1575 3919 1159 
Q 3919 844 3719 555 
Q 3519 266 3170 133 
Q 2822 0 2106 0 
L 106 0 
L 106 116 
L 266 116 
Q 531 116 647 284 
Q 719 394 719 750 
L 719 3488 
Q 719 3881 628 3984 
Q 506 4122 266 4122 
L 106 4122 
L 106 4238 
L 1938 4238 
Q 2450 4238 2759 4163 
Q 3228 4050 3475 3764 
Q 3722 3478 3722 3106 
Q 3722 2788 3528 2536 
Q 3334 2284 2956 2163 
z
M 1319 2331 
Q 1434 2309 1582 2298 
Q 1731 2288 1909 2288 
Q 2366 2288 2595 2386 
Q 2825 2484 2947 2687 
Q 3069 2891 3069 3131 
Q 3069 3503 2766 3765 
Q 2463 4028 1881 4028 
Q 1569 4028 1319 3959 
L 1319 2331 
z
M 1319 306 
Q 1681 222 2034 222 
Q 2600 222 2897 476 
Q 3194 731 3194 1106 
Q 3194 1353 3059 1581 
Q 2925 1809 2622 1940 
Q 2319 2072 1872 2072 
Q 1678 2072 1540 2065 
Q 1403 2059 1319 2044 
L 1319 306 
z
" transform="scale(0.015625)"/>
      <path id="TimesNewRomanPSMT-6c" d="M 1184 4444 
L 1184 647 
Q 1184 378 1223 290 
Q 1263 203 1344 158 
Q 1425 113 1647 113 
L 1647 0 
L 244 0 
L 244 113 
Q 441 113 512 153 
Q 584 194 625 287 
Q 666 381 666 647 
L 666 3247 
Q 666 3731 644 3842 
Q 622 3953 573 3993 
Q 525 4034 450 4034 
Q 369 4034 244 3984 
L 191 4094 
L 1044 4444 
L 1184 4444 
z
" transform="scale(0.015625)"/>
     </defs>
     <use xlink:href="#TimesNewRomanPSMT-42"/>
     <use xlink:href="#TimesNewRomanPSMT-61" transform="translate(66.699219 0)"/>
     <use xlink:href="#TimesNewRomanPSMT-73" transform="translate(111.083984 0)"/>
     <use xlink:href="#TimesNewRomanPSMT-65" transform="translate(150 0)"/>
     <use xlink:href="#TimesNewRomanPSMT-6c" transform="translate(194.384766 0)"/>
     <use xlink:href="#TimesNewRomanPSMT-69" transform="translate(222.167969 0)"/>
     <use xlink:href="#TimesNewRomanPSMT-6e" transform="translate(249.951172 0)"/>
     <use xlink:href="#TimesNewRomanPSMT-65" transform="translate(299.951172 0)"/>
    </g>
    <!-- Models -->
    <g transform="translate(210.640219 139.270463) scale(0.09 -0.09)">
     <defs>
      <path id="TimesNewRomanPSMT-64" d="M 2222 322 
Q 2013 103 1813 7 
Q 1613 -88 1381 -88 
Q 913 -88 563 304 
Q 213 697 213 1313 
Q 213 1928 600 2439 
Q 988 2950 1597 2950 
Q 1975 2950 2222 2709 
L 2222 3238 
Q 2222 3728 2198 3840 
Q 2175 3953 2125 3993 
Q 2075 4034 2000 4034 
Q 1919 4034 1784 3984 
L 1744 4094 
L 2597 4444 
L 2738 4444 
L 2738 1134 
Q 2738 631 2761 520 
Q 2784 409 2836 365 
Q 2888 322 2956 322 
Q 3041 322 3181 375 
L 3216 266 
L 2366 -88 
L 2222 -88 
L 2222 322 
z
M 2222 541 
L 2222 2016 
Q 2203 2228 2109 2403 
Q 2016 2578 1861 2667 
Q 1706 2756 1559 2756 
Q 1284 2756 1069 2509 
Q 784 2184 784 1559 
Q 784 928 1059 592 
Q 1334 256 1672 256 
Q 1956 256 2222 541 
z
" transform="scale(0.015625)"/>
     </defs>
     <use xlink:href="#TimesNewRomanPSMT-4d"/>
     <use xlink:href="#TimesNewRomanPSMT-6f" transform="translate(88.916016 0)"/>
     <use xlink:href="#TimesNewRomanPSMT-64" transform="translate(138.916016 0)"/>
     <use xlink:href="#TimesNewRomanPSMT-65" transform="translate(188.916016 0)"/>
     <use xlink:href="#TimesNewRomanPSMT-6c" transform="translate(233.300781 0)"/>
     <use xlink:href="#TimesNewRomanPSMT-73" transform="translate(261.083984 0)"/>
    </g>
   </g>
   <g id="text_8">
    <!-- G3 -->
    <g style="fill: #e66101" transform="translate(219.029672 105.26566) scale(0.08 -0.08)">
     <defs>
      <path id="TimesNewRomanPS-BoldMT-33" d="M 947 2125 
L 947 2234 
Q 1303 2338 1440 2427 
Q 1578 2516 1678 2698 
Q 1778 2881 1778 3069 
Q 1778 3328 1589 3514 
Q 1400 3700 1119 3700 
Q 681 3700 375 3238 
L 259 3278 
Q 484 3800 836 4062 
Q 1188 4325 1619 4325 
Q 2059 4325 2345 4056 
Q 2631 3788 2631 3428 
Q 2631 3194 2498 2976 
Q 2366 2759 2081 2594 
Q 2447 2416 2639 2155 
Q 2831 1894 2831 1500 
Q 2831 838 2351 373 
Q 1872 -91 1066 -91 
Q 528 -91 281 88 
Q 103 213 103 409 
Q 103 553 206 654 
Q 309 756 444 756 
Q 547 756 638 713 
Q 688 688 992 439 
Q 1297 191 1563 191 
Q 1794 191 1959 373 
Q 2125 556 2125 838 
Q 2125 1266 1825 1627 
Q 1525 1988 947 2125 
z
" transform="scale(0.015625)"/>
     </defs>
     <use xlink:href="#TimesNewRomanPS-BoldMT-47"/>
     <use xlink:href="#TimesNewRomanPS-BoldMT-33" transform="translate(77.783203 0)"/>
    </g>
   </g>
   <g id="patch_14">
    <path d="M 248.598923 132.39615 
Q 248.690739 132.39615 247.32911 132.39615 
" style="fill: none; stroke: #444444; stroke-width: 1.3; stroke-linecap: round"/>
    <path d="M 243.32911 130.39615 
L 247.32911 132.39615 
L 243.32911 134.39615 
z
" style="fill: #444444; stroke: #444444; stroke-width: 1.3; stroke-linecap: round"/>
   </g>
   <g id="text_9">
    <!-- Graph -->
    <g transform="translate(261.999141 129.846056) scale(0.09 -0.09)">
     <use xlink:href="#TimesNewRomanPSMT-47"/>
     <use xlink:href="#TimesNewRomanPSMT-72" transform="translate(72.216797 0)"/>
     <use xlink:href="#TimesNewRomanPSMT-61" transform="translate(105.517578 0)"/>
     <use xlink:href="#TimesNewRomanPSMT-70" transform="translate(149.902344 0)"/>
     <use xlink:href="#TimesNewRomanPSMT-68" transform="translate(199.902344 0)"/>
    </g>
    <!-- Models -->
    <g transform="translate(259.744219 139.270463) scale(0.09 -0.09)">
     <use xlink:href="#TimesNewRomanPSMT-4d"/>
     <use xlink:href="#TimesNewRomanPSMT-6f" transform="translate(88.916016 0)"/>
     <use xlink:href="#TimesNewRomanPSMT-64" transform="translate(138.916016 0)"/>
     <use xlink:href="#TimesNewRomanPSMT-65" transform="translate(188.916016 0)"/>
     <use xlink:href="#TimesNewRomanPSMT-6c" transform="translate(233.300781 0)"/>
     <use xlink:href="#TimesNewRomanPSMT-73" transform="translate(261.083984 0)"/>
    </g>
   </g>
   <g id="text_10">
    <!-- G4–G5 -->
    <g style="fill: #e66101" transform="translate(261.022422 105.26566) scale(0.08 -0.08)">
     <defs>
      <path id="TimesNewRomanPS-BoldMT-34" d="M 159 1597 
L 2172 4325 
L 2553 4325 
L 2553 1597 
L 2941 1597 
L 2941 950 
L 2553 950 
L 2553 0 
L 1694 0 
L 1694 950 
L 159 950 
L 159 1597 
z
M 463 1597 
L 1694 1597 
L 1694 3269 
L 463 1597 
z
" transform="scale(0.015625)"/>
      <path id="TimesNewRomanPS-BoldMT-2013" d="M 3250 1291 
L -53 1291 
L -53 1669 
L 3250 1669 
L 3250 1291 
z
" transform="scale(0.015625)"/>
      <path id="TimesNewRomanPS-BoldMT-35" d="M 975 4238 
L 2959 4238 
L 2644 3431 
L 975 3431 
L 816 3009 
Q 1894 2969 2475 2472 
Q 2953 2063 2953 1453 
Q 2953 1063 2731 689 
Q 2509 316 2106 114 
Q 1703 -88 1222 -88 
Q 703 -88 425 106 
Q 231 244 231 419 
Q 231 553 332 656 
Q 434 759 569 759 
Q 691 759 816 709 
Q 941 659 1244 447 
Q 1434 316 1572 266 
Q 1669 228 1791 228 
Q 2047 228 2226 415 
Q 2406 603 2406 866 
Q 2406 1416 1856 1759 
Q 1306 2103 469 2103 
Q 384 2103 216 2100 
L 975 4238 
z
" transform="scale(0.015625)"/>
     </defs>
     <use xlink:href="#TimesNewRomanPS-BoldMT-47"/>
     <use xlink:href="#TimesNewRomanPS-BoldMT-34" transform="translate(77.783203 0)"/>
     <use xlink:href="#TimesNewRomanPS-BoldMT-2013" transform="translate(127.783203 0)"/>
     <use xlink:href="#TimesNewRomanPS-BoldMT-47" transform="translate(177.783203 0)"/>
     <use xlink:href="#TimesNewRomanPS-BoldMT-35" transform="translate(255.566406 0)"/>
    </g>
   </g>
   <g id="patch_15">
    <path d="M 297.702923 132.39615 
Q 297.794739 132.39615 296.43311 132.39615 
" style="fill: none; stroke: #444444; stroke-width: 1.3; stroke-linecap: round"/>
    <path d="M 292.43311 130.39615 
L 296.43311 132.39615 
L 292.43311 134.39615 
z
" style="fill: #444444; stroke: #444444; stroke-width: 1.3; stroke-linecap: round"/>
   </g>
   <g id="text_11">
    <!-- Fusion -->
    <g transform="translate(310.094859 129.846056) scale(0.09 -0.09)">
     <use xlink:href="#TimesNewRomanPSMT-46"/>
     <use xlink:href="#TimesNewRomanPSMT-75" transform="translate(55.615234 0)"/>
     <use xlink:href="#TimesNewRomanPSMT-73" transform="translate(105.615234 0)"/>
     <use xlink:href="#TimesNewRomanPSMT-69" transform="translate(144.53125 0)"/>
     <use xlink:href="#TimesNewRomanPSMT-6f" transform="translate(172.314453 0)"/>
     <use xlink:href="#TimesNewRomanPSMT-6e" transform="translate(222.314453 0)"/>
    </g>
    <!-- Models -->
    <g transform="translate(308.848219 139.270463) scale(0.09 -0.09)">
     <use xlink:href="#TimesNewRomanPSMT-4d"/>
     <use xlink:href="#TimesNewRomanPSMT-6f" transform="translate(88.916016 0)"/>
     <use xlink:href="#TimesNewRomanPSMT-64" transform="translate(138.916016 0)"/>
     <use xlink:href="#TimesNewRomanPSMT-65" transform="translate(188.916016 0)"/>
     <use xlink:href="#TimesNewRomanPSMT-6c" transform="translate(233.300781 0)"/>
     <use xlink:href="#TimesNewRomanPSMT-73" transform="translate(261.083984 0)"/>
    </g>
   </g>
   <g id="text_12">
    <!-- G6 -->
    <g style="fill: #e66101" transform="translate(317.237672 105.26566) scale(0.08 -0.08)">
     <defs>
      <path id="TimesNewRomanPS-BoldMT-36" d="M 3006 4325 
L 3006 4238 
Q 2441 4094 2098 3867 
Q 1756 3641 1557 3317 
Q 1359 2994 1250 2516 
Q 1388 2609 1478 2638 
Q 1681 2700 1888 2700 
Q 2363 2700 2680 2354 
Q 2997 2009 2997 1413 
Q 2997 994 2825 644 
Q 2653 294 2337 103 
Q 2022 -88 1663 -88 
Q 1272 -88 940 126 
Q 609 341 423 753 
Q 238 1166 238 1650 
Q 238 2363 580 2977 
Q 922 3591 1551 3955 
Q 2181 4319 3006 4325 
z
M 1209 2263 
Q 1184 1831 1184 1631 
Q 1184 1200 1267 797 
Q 1350 394 1494 231 
Q 1597 116 1738 116 
Q 1881 116 1993 283 
Q 2106 450 2106 963 
Q 2106 1825 1897 2153 
Q 1763 2366 1534 2366 
Q 1409 2366 1209 2263 
z
" transform="scale(0.015625)"/>
     </defs>
     <use xlink:href="#TimesNewRomanPS-BoldMT-47"/>
     <use xlink:href="#TimesNewRomanPS-BoldMT-36" transform="translate(77.783203 0)"/>
    </g>
   </g>
   <g id="patch_16">
    <path d="M 346.806923 132.39615 
Q 346.898739 132.39615 345.53711 132.39615 
" style="fill: none; stroke: #444444; stroke-width: 1.3; stroke-linecap: round"/>
    <path d="M 341.53711 130.39615 
L 345.53711 132.39615 
L 341.53711 134.39615 
z
" style="fill: #444444; stroke: #444444; stroke-width: 1.3; stroke-linecap: round"/>
   </g>
   <g id="text_13">
    <!-- Fraud -->
    <g transform="translate(360.954563 129.846056) scale(0.09 -0.09)">
     <use xlink:href="#TimesNewRomanPSMT-46"/>
     <use xlink:href="#TimesNewRomanPSMT-72" transform="translate(55.615234 0)"/>
     <use xlink:href="#TimesNewRomanPSMT-61" transform="translate(88.916016 0)"/>
     <use xlink:href="#TimesNewRomanPSMT-75" transform="translate(133.300781 0)"/>
     <use xlink:href="#TimesNewRomanPSMT-64" transform="translate(183.300781 0)"/>
    </g>
    <!-- Prediction -->
    <g transform="translate(352.956516 139.270463) scale(0.09 -0.09)">
     <use xlink:href="#TimesNewRomanPSMT-50"/>
     <use xlink:href="#TimesNewRomanPSMT-72" transform="translate(55.615234 0)"/>
     <use xlink:href="#TimesNewRomanPSMT-65" transform="translate(88.916016 0)"/>
     <use xlink:href="#TimesNewRomanPSMT-64" transform="translate(133.300781 0)"/>
     <use xlink:href="#TimesNewRomanPSMT-69" transform="translate(183.300781 0)"/>
     <use xlink:href="#TimesNewRomanPSMT-63" transform="translate(211.083984 0)"/>
     <use xlink:href="#TimesNewRomanPSMT-74" transform="translate(255.46875 0)"/>
     <use xlink:href="#TimesNewRomanPSMT-69" transform="translate(283.251953 0)"/>
     <use xlink:href="#TimesNewRomanPSMT-6f" transform="translate(311.035156 0)"/>
     <use xlink:href="#TimesNewRomanPSMT-6e" transform="translate(361.035156 0)"/>
    </g>
   </g>
   <g id="patch_17">
    <path d="M 182.865574 189.484366 
Q 202.756291 171.791769 221.811629 154.842233 
" style="fill: none; stroke: #4393c3; stroke-linecap: round"/>
    <path d="M 218.357249 155.773503 
L 221.811629 154.842233 
L 220.484016 158.164499 
z
" style="fill: #4393c3; stroke: #4393c3; stroke-linecap: round"/>
   </g>
   <g id="text_14">
    <!-- Tabular features -->
    <g style="fill: #4393c3" transform="translate(149.220672 198.36975) scale(0.08 -0.08)">
     <defs>
      <path id="TimesNewRomanPSMT-54" d="M 3703 4238 
L 3750 3244 
L 3631 3244 
Q 3597 3506 3538 3619 
Q 3441 3800 3280 3886 
Q 3119 3972 2856 3972 
L 2259 3972 
L 2259 734 
Q 2259 344 2344 247 
Q 2463 116 2709 116 
L 2856 116 
L 2856 0 
L 1059 0 
L 1059 116 
L 1209 116 
Q 1478 116 1591 278 
Q 1659 378 1659 734 
L 1659 3972 
L 1150 3972 
Q 853 3972 728 3928 
Q 566 3869 450 3700 
Q 334 3531 313 3244 
L 194 3244 
L 244 4238 
L 3703 4238 
z
" transform="scale(0.015625)"/>
      <path id="TimesNewRomanPSMT-62" d="M 984 2369 
Q 1400 2947 1881 2947 
Q 2322 2947 2650 2570 
Q 2978 2194 2978 1541 
Q 2978 778 2472 313 
Q 2038 -88 1503 -88 
Q 1253 -88 995 3 
Q 738 94 469 275 
L 469 3241 
Q 469 3728 445 3840 
Q 422 3953 372 3993 
Q 322 4034 247 4034 
Q 159 4034 28 3984 
L -16 4094 
L 844 4444 
L 984 4444 
L 984 2369 
z
M 984 2169 
L 984 456 
Q 1144 300 1314 220 
Q 1484 141 1663 141 
Q 1947 141 2192 453 
Q 2438 766 2438 1363 
Q 2438 1913 2192 2208 
Q 1947 2503 1634 2503 
Q 1469 2503 1303 2419 
Q 1178 2356 984 2169 
z
" transform="scale(0.015625)"/>
      <path id="TimesNewRomanPSMT-66" d="M 1319 2638 
L 1319 756 
Q 1319 356 1406 250 
Q 1522 113 1716 113 
L 1975 113 
L 1975 0 
L 266 0 
L 266 113 
L 394 113 
Q 519 113 622 175 
Q 725 238 764 344 
Q 803 450 803 756 
L 803 2638 
L 247 2638 
L 247 2863 
L 803 2863 
L 803 3050 
Q 803 3478 940 3775 
Q 1078 4072 1361 4255 
Q 1644 4438 1997 4438 
Q 2325 4438 2600 4225 
Q 2781 4084 2781 3909 
Q 2781 3816 2700 3733 
Q 2619 3650 2525 3650 
Q 2453 3650 2373 3701 
Q 2294 3753 2178 3923 
Q 2063 4094 1966 4153 
Q 1869 4213 1750 4213 
Q 1606 4213 1506 4136 
Q 1406 4059 1362 3898 
Q 1319 3738 1319 3069 
L 1319 2863 
L 2056 2863 
L 2056 2638 
L 1319 2638 
z
" transform="scale(0.015625)"/>
     </defs>
     <use xlink:href="#TimesNewRomanPSMT-54"/>
     <use xlink:href="#TimesNewRomanPSMT-61" transform="translate(54.083984 0)"/>
     <use xlink:href="#TimesNewRomanPSMT-62" transform="translate(98.46875 0)"/>
     <use xlink:href="#TimesNewRomanPSMT-75" transform="translate(148.46875 0)"/>
     <use xlink:href="#TimesNewRomanPSMT-6c" transform="translate(198.46875 0)"/>
     <use xlink:href="#TimesNewRomanPSMT-61" transform="translate(226.251953 0)"/>
     <use xlink:href="#TimesNewRomanPSMT-72" transform="translate(270.636719 0)"/>
     <use xlink:href="#TimesNewRomanPSMT-20" transform="translate(303.9375 0)"/>
     <use xlink:href="#TimesNewRomanPSMT-66" transform="translate(328.9375 0)"/>
     <use xlink:href="#TimesNewRomanPSMT-65" transform="translate(362.238281 0)"/>
     <use xlink:href="#TimesNewRomanPSMT-61" transform="translate(406.623047 0)"/>
     <use xlink:href="#TimesNewRomanPSMT-74" transform="translate(451.007812 0)"/>
     <use xlink:href="#TimesNewRomanPSMT-75" transform="translate(478.791016 0)"/>
     <use xlink:href="#TimesNewRomanPSMT-72" transform="translate(528.791016 0)"/>
     <use xlink:href="#TimesNewRomanPSMT-65" transform="translate(562.091797 0)"/>
     <use xlink:href="#TimesNewRomanPSMT-73" transform="translate(606.476562 0)"/>
    </g>
   </g>
   <g id="patch_18">
    <path d="M 146.868329 190.24703 
Q 209.098234 171.792899 270.256243 153.656636 
" style="fill: none; stroke: #d6604d; stroke-linecap: round"/>
    <path d="M 266.733403 153.032455 
L 270.256243 153.656636 
L 267.643195 156.100399 
z
" style="fill: #d6604d; stroke: #d6604d; stroke-linecap: round"/>
   </g>
   <g id="text_15">
    <!-- Heterogeneous graph -->
    <g style="fill: #d6604d" transform="translate(91.834172 198.36975) scale(0.08 -0.08)">
     <defs>
      <path id="TimesNewRomanPSMT-48" d="M 1316 2272 
L 3284 2272 
L 3284 3484 
Q 3284 3809 3244 3913 
Q 3213 3991 3113 4047 
Q 2978 4122 2828 4122 
L 2678 4122 
L 2678 4238 
L 4491 4238 
L 4491 4122 
L 4341 4122 
Q 4191 4122 4056 4050 
Q 3956 4000 3920 3898 
Q 3884 3797 3884 3484 
L 3884 750 
Q 3884 428 3925 325 
Q 3956 247 4053 191 
Q 4191 116 4341 116 
L 4491 116 
L 4491 0 
L 2678 0 
L 2678 116 
L 2828 116 
Q 3088 116 3206 269 
Q 3284 369 3284 750 
L 3284 2041 
L 1316 2041 
L 1316 750 
Q 1316 428 1356 325 
Q 1388 247 1488 191 
Q 1622 116 1772 116 
L 1925 116 
L 1925 0 
L 109 0 
L 109 116 
L 259 116 
Q 522 116 641 269 
Q 716 369 716 750 
L 716 3484 
Q 716 3809 675 3913 
Q 644 3991 547 4047 
Q 409 4122 259 4122 
L 109 4122 
L 109 4238 
L 1925 4238 
L 1925 4122 
L 1772 4122 
Q 1622 4122 1488 4050 
Q 1391 4000 1353 3898 
Q 1316 3797 1316 3484 
L 1316 2272 
z
" transform="scale(0.015625)"/>
     </defs>
     <use xlink:href="#TimesNewRomanPSMT-48"/>
     <use xlink:href="#TimesNewRomanPSMT-65" transform="translate(72.216797 0)"/>
     <use xlink:href="#TimesNewRomanPSMT-74" transform="translate(116.601562 0)"/>
     <use xlink:href="#TimesNewRomanPSMT-65" transform="translate(144.384766 0)"/>
     <use xlink:href="#TimesNewRomanPSMT-72" transform="translate(188.769531 0)"/>
     <use xlink:href="#TimesNewRomanPSMT-6f" transform="translate(222.070312 0)"/>
     <use xlink:href="#TimesNewRomanPSMT-67" transform="translate(272.070312 0)"/>
     <use xlink:href="#TimesNewRomanPSMT-65" transform="translate(322.070312 0)"/>
     <use xlink:href="#TimesNewRomanPSMT-6e" transform="translate(366.455078 0)"/>
     <use xlink:href="#TimesNewRomanPSMT-65" transform="translate(416.455078 0)"/>
     <use xlink:href="#TimesNewRomanPSMT-6f" transform="translate(460.839844 0)"/>
     <use xlink:href="#TimesNewRomanPSMT-75" transform="translate(510.839844 0)"/>
     <use xlink:href="#TimesNewRomanPSMT-73" transform="translate(560.839844 0)"/>
     <use xlink:href="#TimesNewRomanPSMT-20" transform="translate(599.755859 0)"/>
     <use xlink:href="#TimesNewRomanPSMT-67" transform="translate(624.755859 0)"/>
     <use xlink:href="#TimesNewRomanPSMT-72" transform="translate(674.755859 0)"/>
     <use xlink:href="#TimesNewRomanPSMT-61" transform="translate(708.056641 0)"/>
     <use xlink:href="#TimesNewRomanPSMT-70" transform="translate(752.441406 0)"/>
     <use xlink:href="#TimesNewRomanPSMT-68" transform="translate(802.441406 0)"/>
    </g>
   </g>
   <g id="text_16">
    <!-- Provider-disjoint stratified 5-fold CV  ·  Primary metric: AUPRC -->
    <g style="fill: #636363" transform="translate(88.906305 242.99895) scale(0.085 -0.085)">
     <defs>
      <path id="TimesNewRomanPSMT-76" d="M 53 2863 
L 1400 2863 
L 1400 2747 
L 1313 2747 
Q 1191 2747 1127 2687 
Q 1063 2628 1063 2528 
Q 1063 2419 1128 2269 
L 1794 688 
L 2463 2328 
Q 2534 2503 2534 2594 
Q 2534 2638 2509 2666 
Q 2475 2713 2422 2730 
Q 2369 2747 2206 2747 
L 2206 2863 
L 3141 2863 
L 3141 2747 
Q 2978 2734 2916 2681 
Q 2806 2588 2719 2369 
L 1703 -88 
L 1575 -88 
L 553 2328 
Q 484 2497 421 2570 
Q 359 2644 263 2694 
Q 209 2722 53 2747 
L 53 2863 
z
" transform="scale(0.015625)"/>
      <path id="TimesNewRomanPSMT-2d" d="M 259 1672 
L 1875 1672 
L 1875 1200 
L 259 1200 
L 259 1672 
z
" transform="scale(0.015625)"/>
      <path id="TimesNewRomanPSMT-6a" d="M 925 4447 
Q 1059 4447 1153 4353 
Q 1247 4259 1247 4125 
Q 1247 3994 1153 3900 
Q 1059 3806 925 3806 
Q 794 3806 700 3900 
Q 606 3994 606 4125 
Q 606 4259 700 4353 
Q 794 4447 925 4447 
z
M 1194 2947 
L 1194 66 
Q 1194 -669 881 -1025 
Q 569 -1381 69 -1381 
Q -216 -1381 -353 -1278 
Q -491 -1175 -491 -1066 
Q -491 -956 -414 -878 
Q -338 -800 -234 -800 
Q -153 -800 -69 -841 
Q -16 -863 136 -998 
Q 288 -1134 391 -1134 
Q 466 -1134 537 -1076 
Q 609 -1019 643 -883 
Q 678 -747 678 -294 
L 678 1744 
Q 678 2216 650 2350 
Q 628 2453 581 2492 
Q 534 2531 453 2531 
Q 366 2531 241 2484 
L 197 2597 
L 1059 2947 
L 1194 2947 
z
" transform="scale(0.015625)"/>
      <path id="TimesNewRomanPSMT-35" d="M 2778 4238 
L 2534 3706 
L 1259 3706 
L 981 3138 
Q 1809 3016 2294 2522 
Q 2709 2097 2709 1522 
Q 2709 1188 2573 903 
Q 2438 619 2231 419 
Q 2025 219 1772 97 
Q 1413 -75 1034 -75 
Q 653 -75 479 54 
Q 306 184 306 341 
Q 306 428 378 495 
Q 450 563 559 563 
Q 641 563 702 538 
Q 763 513 909 409 
Q 1144 247 1384 247 
Q 1750 247 2026 523 
Q 2303 800 2303 1197 
Q 2303 1581 2056 1914 
Q 1809 2247 1375 2428 
Q 1034 2569 447 2591 
L 1259 4238 
L 2778 4238 
z
" transform="scale(0.015625)"/>
      <path id="TimesNewRomanPSMT-56" d="M 4544 4238 
L 4544 4122 
Q 4319 4081 4203 3978 
Q 4038 3825 3909 3509 
L 2431 -97 
L 2316 -97 
L 728 3556 
Q 606 3838 556 3900 
Q 478 3997 364 4051 
Q 250 4106 56 4122 
L 56 4238 
L 1788 4238 
L 1788 4122 
Q 1494 4094 1406 4022 
Q 1319 3950 1319 3838 
Q 1319 3681 1463 3350 
L 2541 866 
L 3541 3319 
Q 3688 3681 3688 3822 
Q 3688 3913 3597 3995 
Q 3506 4078 3291 4113 
Q 3275 4116 3238 4122 
L 3238 4238 
L 4544 4238 
z
" transform="scale(0.015625)"/>
      <path id="TimesNewRomanPSMT-b7" d="M 1066 2525 
Q 1203 2525 1298 2429 
Q 1394 2334 1394 2197 
Q 1394 2063 1297 1966 
Q 1200 1869 1066 1869 
Q 931 1869 834 1966 
Q 738 2063 738 2197 
Q 738 2334 833 2429 
Q 928 2525 1066 2525 
z
" transform="scale(0.015625)"/>
      <path id="TimesNewRomanPSMT-6d" d="M 1050 2338 
Q 1363 2650 1419 2697 
Q 1559 2816 1721 2881 
Q 1884 2947 2044 2947 
Q 2313 2947 2506 2790 
Q 2700 2634 2766 2338 
Q 3088 2713 3309 2830 
Q 3531 2947 3766 2947 
Q 3994 2947 4170 2830 
Q 4347 2713 4450 2447 
Q 4519 2266 4519 1878 
L 4519 647 
Q 4519 378 4559 278 
Q 4591 209 4675 161 
Q 4759 113 4950 113 
L 4950 0 
L 3538 0 
L 3538 113 
L 3597 113 
Q 3781 113 3884 184 
Q 3956 234 3988 344 
Q 4000 397 4000 647 
L 4000 1878 
Q 4000 2228 3916 2372 
Q 3794 2572 3525 2572 
Q 3359 2572 3192 2489 
Q 3025 2406 2788 2181 
L 2781 2147 
L 2788 2013 
L 2788 647 
Q 2788 353 2820 281 
Q 2853 209 2943 161 
Q 3034 113 3253 113 
L 3253 0 
L 1806 0 
L 1806 113 
Q 2044 113 2133 169 
Q 2222 225 2256 338 
Q 2272 391 2272 647 
L 2272 1878 
Q 2272 2228 2169 2381 
Q 2031 2581 1784 2581 
Q 1616 2581 1450 2491 
Q 1191 2353 1050 2181 
L 1050 647 
Q 1050 366 1089 281 
Q 1128 197 1204 155 
Q 1281 113 1516 113 
L 1516 0 
L 100 0 
L 100 113 
Q 297 113 375 155 
Q 453 197 493 289 
Q 534 381 534 647 
L 534 1741 
Q 534 2213 506 2350 
Q 484 2453 437 2492 
Q 391 2531 309 2531 
Q 222 2531 100 2484 
L 53 2597 
L 916 2947 
L 1050 2947 
L 1050 2338 
z
" transform="scale(0.015625)"/>
      <path id="TimesNewRomanPSMT-79" d="M 38 2863 
L 1372 2863 
L 1372 2747 
L 1306 2747 
Q 1166 2747 1095 2686 
Q 1025 2625 1025 2534 
Q 1025 2413 1128 2197 
L 1825 753 
L 2466 2334 
Q 2519 2463 2519 2588 
Q 2519 2644 2497 2672 
Q 2472 2706 2419 2726 
Q 2366 2747 2231 2747 
L 2231 2863 
L 3163 2863 
L 3163 2747 
Q 3047 2734 2984 2696 
Q 2922 2659 2847 2556 
Q 2819 2513 2741 2316 
L 1575 -541 
Q 1406 -956 1132 -1168 
Q 859 -1381 606 -1381 
Q 422 -1381 303 -1275 
Q 184 -1169 184 -1031 
Q 184 -900 270 -820 
Q 356 -741 506 -741 
Q 609 -741 788 -809 
Q 913 -856 944 -856 
Q 1038 -856 1148 -759 
Q 1259 -663 1372 -384 
L 1575 113 
L 547 2272 
Q 500 2369 397 2513 
Q 319 2622 269 2659 
Q 197 2709 38 2747 
L 38 2863 
z
" transform="scale(0.015625)"/>
      <path id="TimesNewRomanPSMT-3a" d="M 903 2950 
Q 1047 2950 1148 2848 
Q 1250 2747 1250 2603 
Q 1250 2459 1148 2357 
Q 1047 2256 903 2256 
Q 759 2256 657 2357 
Q 556 2459 556 2603 
Q 556 2747 657 2848 
Q 759 2950 903 2950 
z
M 897 609 
Q 1044 609 1145 506 
Q 1247 403 1247 259 
Q 1247 116 1144 14 
Q 1041 -88 897 -88 
Q 753 -88 651 14 
Q 550 116 550 259 
Q 550 403 651 506 
Q 753 609 897 609 
z
" transform="scale(0.015625)"/>
      <path id="TimesNewRomanPSMT-41" d="M 2928 1419 
L 1288 1419 
L 1000 750 
Q 894 503 894 381 
Q 894 284 986 211 
Q 1078 138 1384 116 
L 1384 0 
L 50 0 
L 50 116 
Q 316 163 394 238 
Q 553 388 747 847 
L 2238 4334 
L 2347 4334 
L 3822 809 
Q 4000 384 4145 257 
Q 4291 131 4550 116 
L 4550 0 
L 2878 0 
L 2878 116 
Q 3131 128 3220 200 
Q 3309 272 3309 375 
Q 3309 513 3184 809 
L 2928 1419 
z
M 2841 1650 
L 2122 3363 
L 1384 1650 
L 2841 1650 
z
" transform="scale(0.015625)"/>
      <path id="TimesNewRomanPSMT-55" d="M 3053 4122 
L 3053 4238 
L 4553 4238 
L 4553 4122 
L 4394 4122 
Q 4144 4122 4009 3913 
Q 3944 3816 3944 3463 
L 3944 1744 
Q 3944 1106 3817 754 
Q 3691 403 3320 151 
Q 2950 -100 2313 -100 
Q 1619 -100 1259 140 
Q 900 381 750 788 
Q 650 1066 650 1831 
L 650 3488 
Q 650 3878 542 4000 
Q 434 4122 194 4122 
L 34 4122 
L 34 4238 
L 1866 4238 
L 1866 4122 
L 1703 4122 
Q 1441 4122 1328 3956 
Q 1250 3844 1250 3488 
L 1250 1641 
Q 1250 1394 1295 1075 
Q 1341 756 1459 578 
Q 1578 400 1801 284 
Q 2025 169 2350 169 
Q 2766 169 3094 350 
Q 3422 531 3542 814 
Q 3663 1097 3663 1772 
L 3663 3488 
Q 3663 3884 3575 3984 
Q 3453 4122 3213 4122 
L 3053 4122 
z
" transform="scale(0.015625)"/>
      <path id="TimesNewRomanPSMT-52" d="M 4325 0 
L 3194 0 
L 1759 1981 
Q 1600 1975 1500 1975 
Q 1459 1975 1412 1976 
Q 1366 1978 1316 1981 
L 1316 750 
Q 1316 350 1403 253 
Q 1522 116 1759 116 
L 1925 116 
L 1925 0 
L 109 0 
L 109 116 
L 269 116 
Q 538 116 653 291 
Q 719 388 719 750 
L 719 3488 
Q 719 3888 631 3984 
Q 509 4122 269 4122 
L 109 4122 
L 109 4238 
L 1653 4238 
Q 2328 4238 2648 4139 
Q 2969 4041 3192 3777 
Q 3416 3513 3416 3147 
Q 3416 2756 3161 2468 
Q 2906 2181 2372 2063 
L 3247 847 
Q 3547 428 3762 290 
Q 3978 153 4325 116 
L 4325 0 
z
M 1316 2178 
Q 1375 2178 1419 2176 
Q 1463 2175 1491 2175 
Q 2097 2175 2405 2437 
Q 2713 2700 2713 3106 
Q 2713 3503 2464 3751 
Q 2216 4000 1806 4000 
Q 1625 4000 1316 3941 
L 1316 2178 
z
" transform="scale(0.015625)"/>
     </defs>
     <use xlink:href="#TimesNewRomanPSMT-50"/>
     <use xlink:href="#TimesNewRomanPSMT-72" transform="translate(55.615234 0)"/>
     <use xlink:href="#TimesNewRomanPSMT-6f" transform="translate(88.916016 0)"/>
     <use xlink:href="#TimesNewRomanPSMT-76" transform="translate(138.916016 0)"/>
     <use xlink:href="#TimesNewRomanPSMT-69" transform="translate(188.916016 0)"/>
     <use xlink:href="#TimesNewRomanPSMT-64" transform="translate(216.699219 0)"/>
     <use xlink:href="#TimesNewRomanPSMT-65" transform="translate(266.699219 0)"/>
     <use xlink:href="#TimesNewRomanPSMT-72" transform="translate(311.083984 0)"/>
     <use xlink:href="#TimesNewRomanPSMT-2d" transform="translate(342.384766 0)"/>
     <use xlink:href="#TimesNewRomanPSMT-64" transform="translate(375.685547 0)"/>
     <use xlink:href="#TimesNewRomanPSMT-69" transform="translate(425.685547 0)"/>
     <use xlink:href="#TimesNewRomanPSMT-73" transform="translate(453.46875 0)"/>
     <use xlink:href="#TimesNewRomanPSMT-6a" transform="translate(492.384766 0)"/>
     <use xlink:href="#TimesNewRomanPSMT-6f" transform="translate(520.167969 0)"/>
     <use xlink:href="#TimesNewRomanPSMT-69" transform="translate(570.167969 0)"/>
     <use xlink:href="#TimesNewRomanPSMT-6e" transform="translate(597.951172 0)"/>
     <use xlink:href="#TimesNewRomanPSMT-74" transform="translate(647.951172 0)"/>
     <use xlink:href="#TimesNewRomanPSMT-20" transform="translate(675.734375 0)"/>
     <use xlink:href="#TimesNewRomanPSMT-73" transform="translate(700.734375 0)"/>
     <use xlink:href="#TimesNewRomanPSMT-74" transform="translate(739.650391 0)"/>
     <use xlink:href="#TimesNewRomanPSMT-72" transform="translate(767.433594 0)"/>
     <use xlink:href="#TimesNewRomanPSMT-61" transform="translate(800.734375 0)"/>
     <use xlink:href="#TimesNewRomanPSMT-74" transform="translate(845.119141 0)"/>
     <use xlink:href="#TimesNewRomanPSMT-69" transform="translate(872.902344 0)"/>
     <use xlink:href="#TimesNewRomanPSMT-66" transform="translate(900.685547 0)"/>
     <use xlink:href="#TimesNewRomanPSMT-69" transform="translate(933.986328 0)"/>
     <use xlink:href="#TimesNewRomanPSMT-65" transform="translate(961.769531 0)"/>
     <use xlink:href="#TimesNewRomanPSMT-64" transform="translate(1006.154297 0)"/>
     <use xlink:href="#TimesNewRomanPSMT-20" transform="translate(1056.154297 0)"/>
     <use xlink:href="#TimesNewRomanPSMT-35" transform="translate(1081.154297 0)"/>
     <use xlink:href="#TimesNewRomanPSMT-2d" transform="translate(1131.154297 0)"/>
     <use xlink:href="#TimesNewRomanPSMT-66" transform="translate(1164.455078 0)"/>
     <use xlink:href="#TimesNewRomanPSMT-6f" transform="translate(1197.755859 0)"/>
     <use xlink:href="#TimesNewRomanPSMT-6c" transform="translate(1247.755859 0)"/>
     <use xlink:href="#TimesNewRomanPSMT-64" transform="translate(1275.539062 0)"/>
     <use xlink:href="#TimesNewRomanPSMT-20" transform="translate(1325.539062 0)"/>
     <use xlink:href="#TimesNewRomanPSMT-43" transform="translate(1350.539062 0)"/>
     <use xlink:href="#TimesNewRomanPSMT-56" transform="translate(1417.238281 0)"/>
     <use xlink:href="#TimesNewRomanPSMT-20" transform="translate(1487.705078 0)"/>
     <use xlink:href="#TimesNewRomanPSMT-20" transform="translate(1512.705078 0)"/>
     <use xlink:href="#TimesNewRomanPSMT-b7" transform="translate(1537.705078 0)"/>
     <use xlink:href="#TimesNewRomanPSMT-20" transform="translate(1571.005859 0)"/>
     <use xlink:href="#TimesNewRomanPSMT-20" transform="translate(1596.005859 0)"/>
     <use xlink:href="#TimesNewRomanPSMT-50" transform="translate(1621.005859 0)"/>
     <use xlink:href="#TimesNewRomanPSMT-72" transform="translate(1676.621094 0)"/>
     <use xlink:href="#TimesNewRomanPSMT-69" transform="translate(1709.921875 0)"/>
     <use xlink:href="#TimesNewRomanPSMT-6d" transform="translate(1737.705078 0)"/>
     <use xlink:href="#TimesNewRomanPSMT-61" transform="translate(1815.488281 0)"/>
     <use xlink:href="#TimesNewRomanPSMT-72" transform="translate(1859.873047 0)"/>
     <use xlink:href="#TimesNewRomanPSMT-79" transform="translate(1893.173828 0)"/>
     <use xlink:href="#TimesNewRomanPSMT-20" transform="translate(1943.173828 0)"/>
     <use xlink:href="#TimesNewRomanPSMT-6d" transform="translate(1968.173828 0)"/>
     <use xlink:href="#TimesNewRomanPSMT-65" transform="translate(2045.957031 0)"/>
     <use xlink:href="#TimesNewRomanPSMT-74" transform="translate(2090.341797 0)"/>
     <use xlink:href="#TimesNewRomanPSMT-72" transform="translate(2118.125 0)"/>
     <use xlink:href="#TimesNewRomanPSMT-69" transform="translate(2151.425781 0)"/>
     <use xlink:href="#TimesNewRomanPSMT-63" transform="translate(2179.208984 0)"/>
     <use xlink:href="#TimesNewRomanPSMT-3a" transform="translate(2223.59375 0)"/>
     <use xlink:href="#TimesNewRomanPSMT-20" transform="translate(2251.376953 0)"/>
     <use xlink:href="#TimesNewRomanPSMT-41" transform="translate(2270.876953 0)"/>
     <use xlink:href="#TimesNewRomanPSMT-55" transform="translate(2343.09375 0)"/>
     <use xlink:href="#TimesNewRomanPSMT-50" transform="translate(2415.310547 0)"/>
     <use xlink:href="#TimesNewRomanPSMT-52" transform="translate(2470.925781 0)"/>
     <use xlink:href="#TimesNewRomanPSMT-43" transform="translate(2537.625 0)"/>
    </g>
   </g>
   <g id="text_17">
    <!-- Hybrid CMS Provider Fraud Detection Pipeline -->
    <g transform="translate(76.647984 11.73375) scale(0.12 -0.12)">
     <defs>
      <path id="TimesNewRomanPS-BoldMT-48" d="M 1750 2038 
L 1750 725 
Q 1750 400 1786 319 
Q 1822 238 1926 177 
Q 2031 116 2209 116 
L 2350 116 
L 2350 0 
L 134 0 
L 134 116 
L 275 116 
Q 459 116 572 181 
Q 653 225 697 331 
Q 731 406 731 725 
L 731 3513 
Q 731 3838 697 3919 
Q 663 4000 558 4061 
Q 453 4122 275 4122 
L 134 4122 
L 134 4238 
L 2350 4238 
L 2350 4122 
L 2209 4122 
Q 2025 4122 1913 4056 
Q 1831 4013 1784 3906 
Q 1750 3831 1750 3513 
L 1750 2313 
L 3247 2313 
L 3247 3513 
Q 3247 3838 3212 3919 
Q 3178 4000 3072 4061 
Q 2966 4122 2788 4122 
L 2650 4122 
L 2650 4238 
L 4863 4238 
L 4863 4122 
L 4725 4122 
Q 4538 4122 4428 4056 
Q 4347 4013 4300 3906 
Q 4266 3831 4266 3513 
L 4266 725 
Q 4266 400 4300 319 
Q 4334 238 4440 177 
Q 4547 116 4725 116 
L 4863 116 
L 4863 0 
L 2650 0 
L 2650 116 
L 2788 116 
Q 2975 116 3084 181 
Q 3166 225 3213 331 
Q 3247 406 3247 725 
L 3247 2038 
L 1750 2038 
z
" transform="scale(0.015625)"/>
      <path id="TimesNewRomanPS-BoldMT-79" d="M 1556 -119 
L 613 2047 
Q 400 2538 298 2650 
Q 197 2763 53 2806 
L 53 2922 
L 1606 2922 
L 1606 2806 
Q 1453 2800 1390 2747 
Q 1328 2694 1328 2619 
Q 1328 2500 1484 2150 
L 1984 1006 
L 2325 1891 
Q 2509 2363 2509 2547 
Q 2509 2663 2432 2731 
Q 2356 2800 2163 2806 
L 2163 2922 
L 3141 2922 
L 3141 2806 
Q 2997 2791 2906 2695 
Q 2816 2600 2603 2047 
L 1769 -119 
Q 1453 -931 1300 -1119 
Q 1084 -1381 759 -1381 
Q 500 -1381 339 -1232 
Q 178 -1084 178 -875 
Q 178 -694 289 -575 
Q 400 -456 563 -456 
Q 719 -456 814 -556 
Q 909 -656 913 -866 
Q 916 -984 941 -1019 
Q 966 -1053 1013 -1053 
Q 1088 -1053 1172 -963 
Q 1297 -831 1466 -363 
L 1556 -119 
z
" transform="scale(0.015625)"/>
      <path id="TimesNewRomanPS-BoldMT-62" d="M 1347 4238 
L 1347 2628 
Q 1716 3009 2153 3009 
Q 2453 3009 2718 2832 
Q 2984 2656 3134 2331 
Q 3284 2006 3284 1581 
Q 3284 1103 3093 712 
Q 2903 322 2584 117 
Q 2266 -88 1856 -88 
Q 1619 -88 1434 -12 
Q 1250 63 1072 231 
L 588 -84 
L 481 -84 
L 481 3631 
Q 481 3884 459 3944 
Q 428 4031 361 4073 
Q 294 4116 134 4122 
L 134 4238 
L 1347 4238 
z
M 1347 2350 
L 1347 1050 
Q 1347 653 1366 544 
Q 1397 359 1515 245 
Q 1634 131 1819 131 
Q 1978 131 2092 222 
Q 2206 313 2282 581 
Q 2359 850 2359 1550 
Q 2359 2222 2191 2472 
Q 2069 2653 1863 2653 
Q 1594 2653 1347 2350 
z
" transform="scale(0.015625)"/>
      <path id="TimesNewRomanPS-BoldMT-72" d="M 1428 2922 
L 1428 2259 
Q 1719 2713 1937 2861 
Q 2156 3009 2359 3009 
Q 2534 3009 2639 2901 
Q 2744 2794 2744 2597 
Q 2744 2388 2642 2272 
Q 2541 2156 2397 2156 
Q 2231 2156 2109 2262 
Q 1988 2369 1966 2381 
Q 1934 2400 1894 2400 
Q 1803 2400 1722 2331 
Q 1594 2225 1528 2028 
Q 1428 1725 1428 1359 
L 1428 688 
L 1431 513 
Q 1431 334 1453 284 
Q 1491 200 1564 161 
Q 1638 122 1813 113 
L 1813 0 
L 234 0 
L 234 113 
Q 425 128 492 217 
Q 559 306 559 688 
L 559 2303 
Q 559 2553 534 2622 
Q 503 2709 443 2750 
Q 384 2791 234 2806 
L 234 2922 
L 1428 2922 
z
" transform="scale(0.015625)"/>
      <path id="TimesNewRomanPS-BoldMT-69" d="M 919 4338 
Q 1122 4338 1262 4195 
Q 1403 4053 1403 3853 
Q 1403 3653 1261 3512 
Q 1119 3372 919 3372 
Q 719 3372 578 3512 
Q 438 3653 438 3853 
Q 438 4053 578 4195 
Q 719 4338 919 4338 
z
M 1356 2922 
L 1356 606 
Q 1356 297 1428 211 
Q 1500 125 1709 113 
L 1709 0 
L 131 0 
L 131 113 
Q 325 119 419 225 
Q 481 297 481 606 
L 481 2313 
Q 481 2622 409 2708 
Q 338 2794 131 2806 
L 131 2922 
L 1356 2922 
z
" transform="scale(0.015625)"/>
      <path id="TimesNewRomanPS-BoldMT-64" d="M 3056 4238 
L 3056 875 
Q 3056 534 3075 472 
Q 3100 369 3170 319 
Q 3241 269 3416 256 
L 3416 153 
L 2181 -88 
L 2181 375 
Q 1959 106 1786 9 
Q 1613 -88 1394 -88 
Q 834 -88 509 413 
Q 247 819 247 1409 
Q 247 1881 409 2254 
Q 572 2628 855 2818 
Q 1138 3009 1463 3009 
Q 1672 3009 1834 2928 
Q 1997 2847 2181 2644 
L 2181 3525 
Q 2181 3859 2153 3928 
Q 2116 4019 2041 4062 
Q 1966 4106 1759 4106 
L 1759 4238 
L 3056 4238 
z
M 2181 2256 
Q 1950 2700 1616 2700 
Q 1500 2700 1425 2638 
Q 1309 2541 1236 2297 
Q 1163 2053 1163 1550 
Q 1163 997 1244 731 
Q 1325 466 1466 347 
Q 1538 288 1663 288 
Q 1938 288 2181 719 
L 2181 2256 
z
" transform="scale(0.015625)"/>
      <path id="TimesNewRomanPS-BoldMT-20" transform="scale(0.015625)"/>
      <path id="TimesNewRomanPS-BoldMT-43" d="M 4272 4334 
L 4272 2866 
L 4150 2866 
Q 4013 3441 3638 3747 
Q 3263 4053 2788 4053 
Q 2391 4053 2059 3825 
Q 1728 3597 1575 3228 
Q 1378 2756 1378 2178 
Q 1378 1609 1522 1142 
Q 1666 675 1972 436 
Q 2278 197 2766 197 
Q 3166 197 3498 372 
Q 3831 547 4200 975 
L 4200 609 
Q 3844 238 3458 70 
Q 3072 -97 2556 -97 
Q 1878 -97 1351 175 
Q 825 447 539 956 
Q 253 1466 253 2041 
Q 253 2647 570 3190 
Q 888 3734 1427 4034 
Q 1966 4334 2572 4334 
Q 3019 4334 3516 4141 
Q 3803 4028 3881 4028 
Q 3981 4028 4054 4101 
Q 4128 4175 4150 4334 
L 4272 4334 
z
" transform="scale(0.015625)"/>
      <path id="TimesNewRomanPS-BoldMT-4d" d="M 3050 1444 
L 4200 4238 
L 5925 4238 
L 5925 4122 
L 5788 4122 
Q 5600 4122 5488 4056 
Q 5409 4013 5363 3909 
Q 5328 3834 5328 3519 
L 5328 725 
Q 5328 400 5362 319 
Q 5397 238 5503 177 
Q 5609 116 5788 116 
L 5925 116 
L 5925 0 
L 3713 0 
L 3713 116 
L 3850 116 
Q 4038 116 4150 181 
Q 4228 225 4275 331 
Q 4309 406 4309 725 
L 4309 3866 
L 2684 0 
L 2609 0 
L 959 3838 
L 959 853 
Q 959 541 975 469 
Q 1016 313 1152 214 
Q 1288 116 1578 116 
L 1578 0 
L 128 0 
L 128 116 
L 172 116 
Q 313 113 434 161 
Q 556 209 618 290 
Q 681 372 716 519 
Q 722 553 722 838 
L 722 3519 
Q 722 3841 687 3920 
Q 653 4000 547 4061 
Q 441 4122 263 4122 
L 128 4122 
L 128 4238 
L 1859 4238 
L 3050 1444 
z
" transform="scale(0.015625)"/>
      <path id="TimesNewRomanPS-BoldMT-53" d="M 3006 4334 
L 3041 2922 
L 2913 2922 
Q 2822 3453 2467 3776 
Q 2113 4100 1700 4100 
Q 1381 4100 1195 3929 
Q 1009 3759 1009 3538 
Q 1009 3397 1075 3288 
Q 1166 3141 1366 2997 
Q 1513 2894 2044 2631 
Q 2788 2266 3047 1941 
Q 3303 1616 3303 1197 
Q 3303 666 2889 283 
Q 2475 -100 1838 -100 
Q 1638 -100 1459 -59 
Q 1281 -19 1013 94 
Q 863 156 766 156 
Q 684 156 593 93 
Q 503 31 447 -97 
L 331 -97 
L 331 1503 
L 447 1503 
Q 584 828 976 473 
Q 1369 119 1822 119 
Q 2172 119 2380 309 
Q 2588 500 2588 753 
Q 2588 903 2508 1043 
Q 2428 1184 2265 1311 
Q 2103 1438 1691 1641 
Q 1113 1925 859 2125 
Q 606 2325 470 2572 
Q 334 2819 334 3116 
Q 334 3622 706 3978 
Q 1078 4334 1644 4334 
Q 1850 4334 2044 4284 
Q 2191 4247 2402 4145 
Q 2613 4044 2697 4044 
Q 2778 4044 2825 4094 
Q 2872 4144 2913 4334 
L 3006 4334 
z
" transform="scale(0.015625)"/>
      <path id="TimesNewRomanPS-BoldMT-50" d="M 1728 1919 
L 1728 744 
Q 1728 400 1770 311 
Q 1813 222 1920 169 
Q 2028 116 2316 116 
L 2316 0 
L 163 0 
L 163 116 
Q 456 116 561 170 
Q 666 225 708 312 
Q 750 400 750 744 
L 750 3494 
Q 750 3838 708 3927 
Q 666 4016 559 4069 
Q 453 4122 163 4122 
L 163 4238 
L 2009 4238 
Q 2922 4238 3319 3913 
Q 3716 3588 3716 3100 
Q 3716 2688 3459 2394 
Q 3203 2100 2753 1994 
Q 2450 1919 1728 1919 
z
M 1728 3994 
L 1728 2163 
Q 1831 2156 1884 2156 
Q 2266 2156 2472 2382 
Q 2678 2609 2678 3084 
Q 2678 3556 2472 3775 
Q 2266 3994 1856 3994 
L 1728 3994 
z
" transform="scale(0.015625)"/>
      <path id="TimesNewRomanPS-BoldMT-6f" d="M 1594 3009 
Q 1975 3009 2303 2812 
Q 2631 2616 2801 2253 
Q 2972 1891 2972 1459 
Q 2972 838 2656 419 
Q 2275 -88 1603 -88 
Q 944 -88 587 375 
Q 231 838 231 1447 
Q 231 2075 595 2542 
Q 959 3009 1594 3009 
z
M 1606 2788 
Q 1447 2788 1333 2667 
Q 1219 2547 1183 2192 
Q 1147 1838 1147 1206 
Q 1147 872 1191 581 
Q 1225 359 1337 243 
Q 1450 128 1594 128 
Q 1734 128 1828 206 
Q 1950 313 1991 503 
Q 2053 800 2053 1703 
Q 2053 2234 1993 2432 
Q 1934 2631 1819 2722 
Q 1738 2788 1606 2788 
z
" transform="scale(0.015625)"/>
      <path id="TimesNewRomanPS-BoldMT-76" d="M 1534 -88 
L 550 2178 
Q 372 2588 272 2697 
Q 200 2778 59 2806 
L 59 2922 
L 1613 2922 
L 1613 2806 
Q 1466 2806 1413 2753 
Q 1338 2684 1338 2591 
Q 1338 2475 1475 2156 
L 1956 1059 
L 2341 2006 
Q 2506 2413 2506 2581 
Q 2506 2678 2436 2739 
Q 2366 2800 2188 2806 
L 2188 2922 
L 3144 2922 
L 3144 2806 
Q 3006 2788 2918 2703 
Q 2831 2619 2656 2206 
L 1681 -88 
L 1534 -88 
z
" transform="scale(0.015625)"/>
      <path id="TimesNewRomanPS-BoldMT-65" d="M 2691 1566 
L 1088 1566 
Q 1116 984 1397 647 
Q 1613 388 1916 388 
Q 2103 388 2256 492 
Q 2409 597 2584 869 
L 2691 800 
Q 2453 316 2165 114 
Q 1878 -88 1500 -88 
Q 850 -88 516 413 
Q 247 816 247 1413 
Q 247 2144 642 2576 
Q 1038 3009 1569 3009 
Q 2013 3009 2339 2645 
Q 2666 2281 2691 1566 
z
M 1922 1775 
Q 1922 2278 1867 2465 
Q 1813 2653 1697 2750 
Q 1631 2806 1522 2806 
Q 1359 2806 1256 2647 
Q 1072 2369 1072 1884 
L 1072 1775 
L 1922 1775 
z
" transform="scale(0.015625)"/>
      <path id="TimesNewRomanPS-BoldMT-46" d="M 1759 3994 
L 1759 2253 
L 1881 2253 
Q 2163 2253 2341 2337 
Q 2519 2422 2642 2622 
Q 2766 2822 2803 3163 
L 2913 3163 
L 2913 1034 
L 2803 1034 
Q 2744 1638 2480 1830 
Q 2216 2022 1881 2022 
L 1759 2022 
L 1759 725 
Q 1759 400 1795 319 
Q 1831 238 1936 177 
Q 2041 116 2219 116 
L 2359 116 
L 2359 0 
L 144 0 
L 144 116 
L 284 116 
Q 469 116 581 181 
Q 663 225 706 331 
Q 741 406 741 725 
L 741 3513 
Q 741 3838 706 3919 
Q 672 4000 567 4061 
Q 463 4122 284 4122 
L 144 4122 
L 144 4238 
L 3719 4238 
L 3719 3022 
L 3591 3022 
Q 3547 3450 3367 3656 
Q 3188 3863 2847 3947 
Q 2659 3994 2153 3994 
L 1759 3994 
z
" transform="scale(0.015625)"/>
      <path id="TimesNewRomanPS-BoldMT-61" d="M 1828 431 
Q 1294 -41 869 -41 
Q 619 -41 453 123 
Q 288 288 288 534 
Q 288 869 575 1136 
Q 863 1403 1828 1847 
L 1828 2141 
Q 1828 2472 1792 2558 
Q 1756 2644 1656 2708 
Q 1556 2772 1431 2772 
Q 1228 2772 1097 2681 
Q 1016 2625 1016 2550 
Q 1016 2484 1103 2388 
Q 1222 2253 1222 2128 
Q 1222 1975 1108 1867 
Q 994 1759 809 1759 
Q 613 1759 480 1878 
Q 347 1997 347 2156 
Q 347 2381 525 2586 
Q 703 2791 1022 2900 
Q 1341 3009 1684 3009 
Q 2100 3009 2342 2832 
Q 2584 2656 2656 2450 
Q 2700 2319 2700 1847 
L 2700 713 
Q 2700 513 2715 461 
Q 2731 409 2762 384 
Q 2794 359 2834 359 
Q 2916 359 3000 475 
L 3094 400 
Q 2938 169 2770 64 
Q 2603 -41 2391 -41 
Q 2141 -41 2000 76 
Q 1859 194 1828 431 
z
M 1828 659 
L 1828 1638 
Q 1450 1416 1266 1163 
Q 1144 994 1144 822 
Q 1144 678 1247 569 
Q 1325 484 1466 484 
Q 1622 484 1828 659 
z
" transform="scale(0.015625)"/>
      <path id="TimesNewRomanPS-BoldMT-75" d="M 3038 2922 
L 3038 634 
Q 3038 300 3100 217 
Q 3163 134 3353 113 
L 3353 0 
L 2163 0 
L 2163 391 
Q 1953 141 1743 26 
Q 1534 -88 1275 -88 
Q 1028 -88 836 64 
Q 644 216 578 419 
Q 513 622 513 1128 
L 513 2288 
Q 513 2619 452 2700 
Q 391 2781 197 2806 
L 197 2922 
L 1388 2922 
L 1388 925 
Q 1388 613 1417 522 
Q 1447 431 1511 384 
Q 1575 338 1659 338 
Q 1772 338 1863 397 
Q 1988 478 2163 725 
L 2163 2288 
Q 2163 2619 2102 2700 
Q 2041 2781 1847 2806 
L 1847 2922 
L 3038 2922 
z
" transform="scale(0.015625)"/>
      <path id="TimesNewRomanPS-BoldMT-44" d="M 84 0 
L 84 116 
L 225 116 
Q 409 116 507 173 
Q 606 231 653 331 
Q 681 397 681 725 
L 681 3513 
Q 681 3838 647 3919 
Q 613 4000 508 4061 
Q 403 4122 225 4122 
L 84 4122 
L 84 4238 
L 1981 4238 
Q 2741 4238 3203 4031 
Q 3769 3778 4061 3265 
Q 4353 2753 4353 2106 
Q 4353 1659 4209 1282 
Q 4066 906 3837 661 
Q 3609 416 3311 267 
Q 3013 119 2581 38 
Q 2391 0 1981 0 
L 84 0 
z
M 1700 3997 
L 1700 691 
Q 1700 428 1725 368 
Q 1750 309 1809 278 
Q 1894 231 2053 231 
Q 2575 231 2850 588 
Q 3225 1069 3225 2081 
Q 3225 2897 2969 3384 
Q 2766 3766 2447 3903 
Q 2222 4000 1700 3997 
z
" transform="scale(0.015625)"/>
      <path id="TimesNewRomanPS-BoldMT-74" d="M 1375 3991 
L 1375 2922 
L 2069 2922 
L 2069 2613 
L 1375 2613 
L 1375 809 
Q 1375 556 1398 482 
Q 1422 409 1481 364 
Q 1541 319 1591 319 
Q 1794 319 1975 628 
L 2069 559 
Q 1816 -41 1247 -41 
Q 969 -41 776 114 
Q 584 269 531 459 
Q 500 566 500 1034 
L 500 2613 
L 119 2613 
L 119 2722 
Q 513 3000 789 3306 
Q 1066 3613 1272 3991 
L 1375 3991 
z
" transform="scale(0.015625)"/>
      <path id="TimesNewRomanPS-BoldMT-63" d="M 2600 753 
L 2697 678 
Q 2491 291 2183 101 
Q 1875 -88 1528 -88 
Q 944 -88 594 353 
Q 244 794 244 1413 
Q 244 2009 563 2463 
Q 947 3009 1622 3009 
Q 2075 3009 2342 2781 
Q 2609 2553 2609 2272 
Q 2609 2094 2501 1987 
Q 2394 1881 2219 1881 
Q 2034 1881 1914 2003 
Q 1794 2125 1766 2438 
Q 1747 2634 1675 2713 
Q 1603 2791 1506 2791 
Q 1356 2791 1250 2631 
Q 1088 2391 1088 1894 
Q 1088 1481 1219 1104 
Q 1350 728 1578 544 
Q 1750 409 1984 409 
Q 2138 409 2275 481 
Q 2413 553 2600 753 
z
" transform="scale(0.015625)"/>
      <path id="TimesNewRomanPS-BoldMT-6e" d="M 1409 2922 
L 1409 2544 
Q 1634 2788 1840 2898 
Q 2047 3009 2284 3009 
Q 2569 3009 2756 2851 
Q 2944 2694 3006 2459 
Q 3056 2281 3056 1775 
L 3056 638 
Q 3056 300 3117 217 
Q 3178 134 3372 113 
L 3372 0 
L 1894 0 
L 1894 113 
Q 2059 134 2131 250 
Q 2181 328 2181 638 
L 2181 1938 
Q 2181 2297 2153 2390 
Q 2125 2484 2058 2536 
Q 1991 2588 1909 2588 
Q 1641 2588 1409 2203 
L 1409 638 
Q 1409 309 1470 221 
Q 1531 134 1697 113 
L 1697 0 
L 219 0 
L 219 113 
Q 403 131 481 231 
Q 534 300 534 638 
L 534 2288 
Q 534 2619 473 2700 
Q 413 2781 219 2806 
L 219 2922 
L 1409 2922 
z
" transform="scale(0.015625)"/>
      <path id="TimesNewRomanPS-BoldMT-70" d="M 1347 297 
L 1347 -791 
Q 1347 -1016 1383 -1097 
Q 1419 -1178 1494 -1215 
Q 1569 -1253 1788 -1253 
L 1788 -1369 
L 122 -1369 
L 122 -1253 
Q 316 -1247 409 -1144 
Q 472 -1072 472 -772 
L 472 2313 
Q 472 2622 400 2708 
Q 328 2794 122 2806 
L 122 2922 
L 1347 2922 
L 1347 2538 
Q 1500 2763 1659 2863 
Q 1888 3009 2156 3009 
Q 2478 3009 2742 2806 
Q 3006 2603 3143 2245 
Q 3281 1888 3281 1475 
Q 3281 1031 3139 664 
Q 2997 297 2726 104 
Q 2456 -88 2125 -88 
Q 1884 -88 1675 19 
Q 1519 100 1347 297 
z
M 1347 613 
Q 1616 231 1922 231 
Q 2091 231 2200 409 
Q 2363 672 2363 1409 
Q 2363 2166 2184 2444 
Q 2066 2628 1866 2628 
Q 1550 2628 1347 2172 
L 1347 613 
z
" transform="scale(0.015625)"/>
      <path id="TimesNewRomanPS-BoldMT-6c" d="M 1359 4238 
L 1359 606 
Q 1359 297 1431 211 
Q 1503 125 1713 113 
L 1713 0 
L 134 0 
L 134 113 
Q 328 119 422 225 
Q 484 297 484 606 
L 484 3631 
Q 484 3938 412 4023 
Q 341 4109 134 4122 
L 134 4238 
L 1359 4238 
z
" transform="scale(0.015625)"/>
     </defs>
     <use xlink:href="#TimesNewRomanPS-BoldMT-48"/>
     <use xlink:href="#TimesNewRomanPS-BoldMT-79" transform="translate(77.783203 0)"/>
     <use xlink:href="#TimesNewRomanPS-BoldMT-62" transform="translate(127.783203 0)"/>
     <use xlink:href="#TimesNewRomanPS-BoldMT-72" transform="translate(183.398438 0)"/>
     <use xlink:href="#TimesNewRomanPS-BoldMT-69" transform="translate(227.783203 0)"/>
     <use xlink:href="#TimesNewRomanPS-BoldMT-64" transform="translate(255.566406 0)"/>
     <use xlink:href="#TimesNewRomanPS-BoldMT-20" transform="translate(311.181641 0)"/>
     <use xlink:href="#TimesNewRomanPS-BoldMT-43" transform="translate(336.181641 0)"/>
     <use xlink:href="#TimesNewRomanPS-BoldMT-4d" transform="translate(408.398438 0)"/>
     <use xlink:href="#TimesNewRomanPS-BoldMT-53" transform="translate(502.783203 0)"/>
     <use xlink:href="#TimesNewRomanPS-BoldMT-20" transform="translate(558.398438 0)"/>
     <use xlink:href="#TimesNewRomanPS-BoldMT-50" transform="translate(583.398438 0)"/>
     <use xlink:href="#TimesNewRomanPS-BoldMT-72" transform="translate(644.482422 0)"/>
     <use xlink:href="#TimesNewRomanPS-BoldMT-6f" transform="translate(687.117188 0)"/>
     <use xlink:href="#TimesNewRomanPS-BoldMT-76" transform="translate(737.117188 0)"/>
     <use xlink:href="#TimesNewRomanPS-BoldMT-69" transform="translate(787.117188 0)"/>
     <use xlink:href="#TimesNewRomanPS-BoldMT-64" transform="translate(814.900391 0)"/>
     <use xlink:href="#TimesNewRomanPS-BoldMT-65" transform="translate(870.515625 0)"/>
     <use xlink:href="#TimesNewRomanPS-BoldMT-72" transform="translate(914.900391 0)"/>
     <use xlink:href="#TimesNewRomanPS-BoldMT-20" transform="translate(957.535156 0)"/>
     <use xlink:href="#TimesNewRomanPS-BoldMT-46" transform="translate(982.535156 0)"/>
     <use xlink:href="#TimesNewRomanPS-BoldMT-72" transform="translate(1043.619141 0)"/>
     <use xlink:href="#TimesNewRomanPS-BoldMT-61" transform="translate(1088.003906 0)"/>
     <use xlink:href="#TimesNewRomanPS-BoldMT-75" transform="translate(1138.003906 0)"/>
     <use xlink:href="#TimesNewRomanPS-BoldMT-64" transform="translate(1193.619141 0)"/>
     <use xlink:href="#TimesNewRomanPS-BoldMT-20" transform="translate(1249.234375 0)"/>
     <use xlink:href="#TimesNewRomanPS-BoldMT-44" transform="translate(1274.234375 0)"/>
     <use xlink:href="#TimesNewRomanPS-BoldMT-65" transform="translate(1346.451172 0)"/>
     <use xlink:href="#TimesNewRomanPS-BoldMT-74" transform="translate(1390.835938 0)"/>
     <use xlink:href="#TimesNewRomanPS-BoldMT-65" transform="translate(1424.136719 0)"/>
     <use xlink:href="#TimesNewRomanPS-BoldMT-63" transform="translate(1468.521484 0)"/>
     <use xlink:href="#TimesNewRomanPS-BoldMT-74" transform="translate(1512.90625 0)"/>
     <use xlink:href="#TimesNewRomanPS-BoldMT-69" transform="translate(1546.207031 0)"/>
     <use xlink:href="#TimesNewRomanPS-BoldMT-6f" transform="translate(1573.990234 0)"/>
     <use xlink:href="#TimesNewRomanPS-BoldMT-6e" transform="translate(1623.990234 0)"/>
     <use xlink:href="#TimesNewRomanPS-BoldMT-20" transform="translate(1679.605469 0)"/>
     <use xlink:href="#TimesNewRomanPS-BoldMT-50" transform="translate(1704.605469 0)"/>
     <use xlink:href="#TimesNewRomanPS-BoldMT-69" transform="translate(1765.689453 0)"/>
     <use xlink:href="#TimesNewRomanPS-BoldMT-70" transform="translate(1793.472656 0)"/>
     <use xlink:href="#TimesNewRomanPS-BoldMT-65" transform="translate(1849.087891 0)"/>
     <use xlink:href="#TimesNewRomanPS-BoldMT-6c" transform="translate(1893.472656 0)"/>
     <use xlink:href="#TimesNewRomanPS-BoldMT-69" transform="translate(1921.255859 0)"/>
     <use xlink:href="#TimesNewRomanPS-BoldMT-6e" transform="translate(1949.039062 0)"/>
     <use xlink:href="#TimesNewRomanPS-BoldMT-65" transform="translate(2004.654297 0)"/>
    </g>
   </g>
  </g>
 </g>
 <defs>
  <clipPath id="p36a0e52a95">
   <rect x="4.288922" y="23.73375" width="390.6" height="232.848"/>
  </clipPath>
 </defs>
</svg>
